<?xml version="1.0" standalone="no"?>
<!DOCTYPE svg PUBLIC "-//W3C//DTD SVG 1.1//EN" "http://www.w3.org/Graphics/SVG/1.1/DTD/svg11.dtd" >
<svg>
<metadata>
Created by FontForge 20090622 at Sun Sep  8 13:40:45 2019
 By deploy user
&#194;&#169; Copyright 1999-2004 WinSoft
</metadata>
<defs>
<font id="WinSoftPro-Medium" horiz-adv-x="0" >
  <font-face 
    font-family="WinSoft Pro"
    font-weight="500"
    font-stretch="normal"
    units-per-em="2048"
    panose-1="2 11 6 0 6 2 0 0 0 0"
    ascent="1638"
    descent="-410"
    x-height="772"
    cap-height="1055"
    bbox="-258 -999 1999 1974"
    underline-thickness="102"
    underline-position="-461"
    unicode-range="U+0020-U+FEFC"
  />
<missing-glyph horiz-adv-x="1024" 
d="M129 0v1497h768v-1497h-768zM256 129h512v1241h-512v-1241z" />
    <glyph glyph-name="uni05DC05BC05B9" unicode="&#x5dc;&#x5bc;&#x5b9;" horiz-adv-x="850" 
d="M775 158q0 -37 -14 -66.5t-36.5 -49.5t-51 -31t-56.5 -11h-178v143h129q14 0 24.5 5.5t17 13t10 15t3.5 11.5v478h-434v440h166v-299h420v-649zM474 434q0 -26 -18.5 -44.5t-44.5 -18.5q-29 0 -46.5 17.5t-17.5 45.5q0 25 17.5 44.5t46.5 19.5q24 0 43.5 -18.5
t19.5 -45.5zM153 950q0 -63 -63 -63q-29 0 -46.5 17.5t-17.5 45.5q0 64 64 64q63 0 63 -64z" />
    <glyph glyph-name="uni05D105BC" unicode="&#x5d1;&#x5bc;" horiz-adv-x="789" 
d="M743 0h-712v143h452v256q0 66 -10 116.5t-41.5 85t-90.5 52t-157 17.5q-11 0 -42 -3t-85 -10l-16 140q59 9 106.5 13.5t88.5 4.5q213 0 313 -93t100 -288v-291h94v-143zM375 372q0 -26 -18.5 -44.5t-44.5 -18.5q-29 0 -46.5 17.5t-17.5 45.5q0 25 17.5 44.5t46.5 19.5
q24 0 43.5 -18.5t19.5 -45.5z" />
    <glyph glyph-name="uni05D205BC" unicode="&#x5d2;&#x5bc;" horiz-adv-x="614" 
d="M233 469q0 -31 -19.5 -52.5t-53.5 -21.5q-31 0 -53.5 19.5t-22.5 54.5q0 15 6 28t16.5 23.5t24.5 16.5t29 6q28 0 50.5 -21.5t22.5 -52.5zM563 0h-162l-55 193q-40 -2 -72.5 -27t-58.5 -78l-47 -88h-170l70 139q43 88 108 131.5t146 48.5v195q0 38 -4.5 67.5t-17.5 49
t-37 29.5t-64 10q-11 0 -23 -1t-26 -3l-39 -2l-17 133q70 18 135 18q76 0 126 -19t79 -56t41 -92.5t12 -127.5v-237z" />
    <glyph glyph-name="uni05D305BC" unicode="&#x5d3;&#x5bc;" horiz-adv-x="799" 
d="M737 664h-116v-664h-166v664h-412v143h694v-143zM381 376q0 -26 -18.5 -44.5t-44.5 -18.5q-29 0 -46.5 17.5t-17.5 45.5q0 25 17.5 44.5t46.5 19.5q24 0 43.5 -18.5t19.5 -45.5z" />
    <glyph glyph-name="uni05D405BC" unicode="&#x5d4;&#x5bc;" horiz-adv-x="870" 
d="M233 0h-163v465h163v-465zM776 0h-166v399q0 72 -12 123.5t-45.5 84.5t-92.5 48t-153 15q-48 0 -105 -6t-128 -17l-17 144q145 24 275 24q115 0 199 -19.5t138.5 -64.5t80.5 -118t26 -179v-434zM495 376q0 -26 -18.5 -44.5t-44.5 -18.5q-29 0 -46.5 17.5t-17.5 45.5
q0 25 17.5 44.5t46.5 19.5q24 0 43.5 -18.5t19.5 -45.5z" />
    <glyph glyph-name="uni05D505BC" unicode="&#x5d5;&#x5bc;" horiz-adv-x="514" 
d="M425 0h-167v807h167v-807zM166 417q0 -26 -18.5 -44.5t-44.5 -18.5q-29 0 -46.5 17.5t-17.5 45.5q0 25 17.5 44.5t46.5 19.5q24 0 43.5 -18.5t19.5 -45.5z" />
    <glyph glyph-name="uni05D605BC" unicode="&#x5d6;&#x5bc;" horiz-adv-x="655" 
d="M584 682q-55 0 -100 -15.5t-76.5 -45t-48.5 -71t-17 -93.5q0 -17 3.5 -35t6.5 -45q8 -85 12.5 -150.5t4.5 -105.5v-121h-166v139q0 29 -3 90t-11 152v-2q-5 35 -5.5 58t-0.5 34q0 28 5 57t15.5 56.5t25 52.5t34.5 45h-179v125h500v-125zM143 382q0 -26 -18.5 -44.5
t-44.5 -18.5q-29 0 -46.5 17.5t-17.5 45.5q0 25 17.5 44.5t46.5 19.5q24 0 43.5 -18.5t19.5 -45.5z" />
    <glyph glyph-name="uni05E905BC05C1" unicode="&#x5e9;&#x5c1;&#x5bc;" horiz-adv-x="1044" 
d="M970 807q-6 -13 -7 -20t-1 -15v-268q0 -58 -16.5 -123.5t-46.5 -128t-71 -117t-90 -88.5q-100 -70 -260 -70q-65 0 -121 13.5t-104 45t-87.5 82.5t-69.5 126q-11 28 -16 84t-5 143v336h164v-414q37 1 76.5 11.5t72 31.5t53.5 53.5t21 77.5v240h151v-260q0 -53 -25.5 -103
t-72.5 -89.5t-113.5 -64.5t-148.5 -26q12 -30 33.5 -56t51 -45.5t66.5 -30.5t80 -11q41 0 76 9t67 29.5t61 55t58 85.5q56 98 56 159v348h168zM706 343q0 -26 -18.5 -44.5t-44.5 -18.5q-29 0 -46.5 17.5t-17.5 45.5q0 25 17.5 44.5t46.5 19.5q24 0 43.5 -18.5t19.5 -45.5z
M957 950q0 -26 -20 -44.5t-43 -18.5q-64 0 -64 63q0 64 64 64q20 0 41.5 -16.5t21.5 -47.5z" />
    <glyph glyph-name="uni05D805BC" unicode="&#x5d8;&#x5bc;" horiz-adv-x="903" 
d="M821 436q0 -167 -28 -243q-17 -45 -46 -83.5t-71 -67.5t-97 -45.5t-122 -16.5q-56 0 -106.5 15.5t-93.5 42.5t-75.5 64t-50.5 80q-15 42 -24 102.5t-9 141.5v381h166v-418q0 -272 193 -272q59 0 97 17t60.5 53t31.5 92.5t9 136.5v98q0 81 -20.5 120.5t-65.5 39.5
q-66 0 -127 -88l-59 94q43 72 97.5 107.5t119.5 35.5q221 0 221 -329v-58zM538 400q0 -26 -18.5 -44.5t-44.5 -18.5q-29 0 -46.5 17.5t-17.5 45.5q0 25 17.5 44.5t46.5 19.5q24 0 43.5 -18.5t19.5 -45.5z" />
    <glyph glyph-name="uni05D905BC" unicode="&#x5d9;&#x5bc;" horiz-adv-x="512" 
d="M379 269l-162 1v549l162 -1v-549zM160 538q0 -71 -72 -71q-27 0 -49.5 19.5t-22.5 51.5q0 27 19.5 49.5t52.5 22.5q27 0 49.5 -18.5t22.5 -53.5z" />
    <glyph glyph-name="uni05DA05BC" unicode="&#x5da;&#x5bc;" horiz-adv-x="765" 
d="M682 -299h-166v698q0 79 -17 131.5t-51.5 83.5t-87 43.5t-124.5 12.5q-42 0 -91.5 -4.5t-109.5 -12.5l-10 144q68 9 121.5 13.5t97.5 4.5q115 0 198 -21t136 -66.5t78.5 -118t25.5 -175.5v-733zM381 298q0 -26 -18.5 -44.5t-44.5 -18.5q-29 0 -46.5 17.5t-17.5 45.5
q0 25 17.5 44.5t46.5 19.5q24 0 43.5 -18.5t19.5 -45.5z" />
    <glyph glyph-name="uni05DB05BC" unicode="&#x5db;&#x5bc;" horiz-adv-x="706" 
d="M647 403q0 -85 -27 -160.5t-81 -132t-134 -89.5t-186 -33q-38 0 -79 6t-91 18l25 154q42 -12 79 -19.5t72 -7.5q58 0 104 18.5t78 52.5t49 83t17 110q0 58 -16 106.5t-47.5 83.5t-77.5 55t-107 20q-35 0 -72 -7t-79 -18l-25 152q50 12 91 18t79 6q97 0 176 -30t135 -84.5
t86.5 -131t30.5 -170.5zM358 400q0 -26 -18.5 -44.5t-44.5 -18.5q-29 0 -46.5 17.5t-17.5 45.5q0 25 17.5 44.5t46.5 19.5q24 0 43.5 -18.5t19.5 -45.5z" />
    <glyph glyph-name="uni05DC05BC" unicode="&#x5dc;&#x5bc;" horiz-adv-x="709" 
d="M623 158q0 -37 -14 -66.5t-36.5 -49.5t-51 -31t-56.5 -11h-178v143h129q14 0 24.5 5.5t17 13t10 15t3.5 11.5v478h-434v440h166v-299h420v-649zM381 434q0 -26 -18.5 -44.5t-44.5 -18.5q-29 0 -46.5 17.5t-17.5 45.5q0 25 17.5 44.5t46.5 19.5q24 0 43.5 -18.5
t19.5 -45.5z" />
    <glyph glyph-name="uni05DE05BC" unicode="&#x5de;&#x5bc;" horiz-adv-x="933" 
d="M825 0h-428v143h260v217q0 84 -4.5 143t-18 96t-38.5 54t-66 17q-83 0 -136.5 -94t-90.5 -277l-29.5 -149.5l-28.5 -149.5h-166l64 319q0 4 1 7t3 8q5 21 11.5 56.5t19.5 78.5l-59 169.5l-60 170.5h160l49 -154q21 33 51.5 62t65.5 51t72.5 34.5t74.5 12.5
q76 0 131.5 -24t91.5 -78t53 -142t17 -215v-356zM598 376q0 -26 -18.5 -44.5t-44.5 -18.5q-29 0 -46.5 17.5t-17.5 45.5q0 25 17.5 44.5t46.5 19.5q24 0 43.5 -18.5t19.5 -45.5z" />
    <glyph glyph-name="uni05E005BC" unicode="&#x5e0;&#x5bc;" horiz-adv-x="552" 
d="M471 0h-403v143h237v371q0 84 -26.5 118t-98.5 38q-10 -2 -26.5 -4l-34.5 -4l-10 135q69 18 102 18q141 0 200.5 -68.5t59.5 -226.5v-520zM250 434q0 -26 -18.5 -44.5t-44.5 -18.5q-29 0 -46.5 17.5t-17.5 45.5q0 25 17.5 44.5t46.5 19.5q24 0 43.5 -18.5t19.5 -45.5z
" />
    <glyph glyph-name="uni05E105BC" unicode="&#x5e1;&#x5bc;" horiz-adv-x="877" 
d="M641 403q0 136 -52 210.5t-149 74.5q-98 0 -149 -79t-51 -208q0 -133 52 -206.5t148 -73.5q99 0 150 76.5t51 205.5zM819 401q0 -88 -24.5 -165.5t-71.5 -135t-119 -90.5t-164 -33q-86 0 -155.5 31t-118.5 86.5t-77 133t-28 173.5q0 97 28 175.5t77 134t118.5 86
t155.5 30.5q78 0 147.5 -27.5t121 -80.5t81 -133t29.5 -185zM526 400q0 -26 -18.5 -44.5t-44.5 -18.5q-29 0 -46.5 17.5t-17.5 45.5q0 25 17.5 44.5t46.5 19.5q24 0 43.5 -18.5t19.5 -45.5z" />
    <glyph glyph-name="uni05E905BC05C2" unicode="&#x5e9;&#x5c2;&#x5bc;" horiz-adv-x="1044" 
d="M970 807q-6 -13 -7 -20t-1 -15v-268q0 -58 -16.5 -123.5t-46.5 -128t-71 -117t-90 -88.5q-100 -70 -260 -70q-65 0 -121 13.5t-104 45t-87.5 82.5t-69.5 126q-11 28 -16 84t-5 143v336h164v-414q37 1 76.5 11.5t72 31.5t53.5 53.5t21 77.5v240h151v-260q0 -53 -25.5 -103
t-72.5 -89.5t-113.5 -64.5t-148.5 -26q12 -30 33.5 -56t51 -45.5t66.5 -30.5t80 -11q41 0 76 9t67 29.5t61 55t58 85.5q56 98 56 159v348h168zM721 353q0 -26 -18.5 -44.5t-44.5 -18.5q-29 0 -46.5 17.5t-17.5 45.5q0 25 17.5 44.5t46.5 19.5q24 0 43.5 -18.5t19.5 -45.5z
M220 950q0 -26 -20.5 -44.5t-42.5 -18.5q-64 0 -64 63q0 64 64 64q63 0 63 -64z" />
    <glyph glyph-name="uni05E405BC" unicode="&#x5e4;&#x5bc;" horiz-adv-x="844" 
d="M549 430q0 -23 -18 -43t-46 -20q-65 0 -65 63q0 66 65 66q25 0 44.5 -19t19.5 -47zM770 414q0 -99 -31 -178t-90 -134t-144.5 -84.5t-193.5 -29.5q-144 0 -241 61l41 139q42 -27 88 -41t102 -14q65 0 119.5 19t94 55t61.5 88t22 117q0 60 -18.5 109t-51.5 84t-79.5 54
t-102.5 19q-28 0 -55.5 -2t-54.5 -8v-133q0 -80 77 -80q17 0 35.5 4t38.5 10l21 -127q-28 -11 -56 -17t-59 -6q-215 0 -215 218v239q145 43 278 43q95 0 171.5 -29t130.5 -82t83 -127.5t29 -166.5z" />
    <glyph glyph-name="uni05E605BC" unicode="&#x5e6;&#x5bc;" horiz-adv-x="810" 
d="M731 633q0 -32 -12.5 -72t-35.5 -80.5t-56 -78t-74 -64.5l145 -205v-133h-643v143h437l-237.5 332.5l-236.5 331.5h201l250 -348q18 14 36.5 38.5t33.5 50.5t24.5 50.5t9.5 38.5v170h158v-174zM256 314q0 -26 -18.5 -44.5t-44.5 -18.5q-29 0 -46.5 17.5t-17.5 45.5
q0 25 17.5 44.5t46.5 19.5q24 0 43.5 -18.5t19.5 -45.5z" />
    <glyph glyph-name="uni05E705BC" unicode="&#x5e7;&#x5bc;" horiz-adv-x="836" 
d="M276 -301h-166v766h166v-766zM758 156q0 -37 -14 -66t-36 -49t-49.5 -30.5t-54.5 -10.5h-180v141h131q12 0 22.5 5.5t17.5 13t11 15t4 11.5v478h-504l5 143h652zM518 394q0 -26 -18.5 -44.5t-44.5 -18.5q-29 0 -46.5 17.5t-17.5 45.5q0 25 17.5 44.5t46.5 19.5
q24 0 43.5 -18.5t19.5 -45.5z" />
    <glyph glyph-name="uni05E905BC" unicode="&#x5e9;&#x5bc;" horiz-adv-x="1038" 
d="M971 807q-6 -13 -7 -20t-1 -15v-268q0 -58 -16.5 -123.5t-46.5 -128t-71 -117t-90 -88.5q-100 -70 -260 -70q-65 0 -121 13.5t-104 45t-87.5 82.5t-69.5 126q-11 28 -16 84t-5 143v336h164v-414q37 1 76.5 11.5t72 31.5t53.5 53.5t21 77.5v240h151v-260q0 -53 -25.5 -103
t-72.5 -89.5t-113.5 -64.5t-148.5 -26q12 -30 33.5 -56t51 -45.5t66.5 -30.5t80 -11q41 0 76 9t67 29.5t61 55t58 85.5q56 98 56 159v348h168zM667 292q0 -26 -18.5 -44.5t-44.5 -18.5q-29 0 -46.5 17.5t-17.5 45.5q0 25 17.5 44.5t46.5 19.5q24 0 43.5 -18.5t19.5 -45.5z
" />
    <glyph glyph-name="uni05EA05BC" unicode="&#x5ea;&#x5bc;" horiz-adv-x="956" 
d="M885 0h-166v397q0 74 -9.5 126t-37.5 85t-78.5 48.5t-132.5 15.5h-74v-465q0 -52 -7 -92t-29 -67t-64.5 -40.5t-112.5 -13.5q-83 0 -149 29l28 129q28 -8 50 -12.5t42 -4.5q42 0 59 20.5t17 69.5v338l105 107q-25 -2 -47.5 -3t-45.5 -1q-8 0 -12 -1t-10 -3t-21 -5t-32 -6
l-15 140q97 14 160.5 19t104.5 5q119 0 208.5 -13.5t149 -54.5t89.5 -116t30 -197v-434zM645 359q0 -26 -18.5 -44.5t-44.5 -18.5q-29 0 -46.5 17.5t-17.5 45.5q0 25 17.5 44.5t46.5 19.5q24 0 43.5 -18.5t19.5 -45.5z" />
    <glyph glyph-name="uni05DC05B9" unicode="&#x5dc;&#x5b9;" horiz-adv-x="690" 
d="M-45 946q0 -71 -66 -74h-18q-28 2 -48 21t-20 53q0 74 74 74h4q74 0 74 -74zM618 158v-8q-2 -10 -2.5 -18t-3.5 -17l-20 -47q-2 -2 -3.5 -4.5t-4.5 -4.5q-2 -2 -3.5 -4t-5.5 -4l-12 -12q-9 -8 -19 -15t-20 -12l-28 -8q-8 -2 -16.5 -3t-16.5 -1h-178v143h141q5 2 9 5t9 6
l9 6l4 6q4 4 4 6q3 5 4.5 7t3.5 5v482h-434v440h164v-299h419v-649z" />
    <glyph glyph-name="uni05D505B9" unicode="&#x5d5;&#x5b9;" horiz-adv-x="370" 
d="M276 0h-167v807h167v-807zM258 950q0 -63 -63 -63q-29 0 -46.5 17.5t-17.5 45.5q0 64 64 64q63 0 63 -64z" />
    <glyph glyph-name="uni05E905C1" unicode="&#x5e9;&#x5c1;" horiz-adv-x="1044" 
d="M970 807q-6 -13 -7 -20t-1 -15v-268q0 -58 -16.5 -123.5t-46.5 -128t-71 -117t-90 -88.5q-100 -70 -260 -70q-65 0 -121 13.5t-104 45t-87.5 82.5t-69.5 126q-11 28 -16 84t-5 143v336h164v-414q37 1 76.5 11.5t72 31.5t53.5 53.5t21 77.5v240h151v-260q0 -53 -25.5 -103
t-72.5 -89.5t-113.5 -64.5t-148.5 -26q12 -30 33.5 -56t51 -45.5t66.5 -30.5t80 -11q41 0 76 9t67 29.5t61 55t58 85.5q56 98 56 159v348h168zM957 950q0 -26 -20 -44.5t-43 -18.5q-64 0 -64 63q0 64 64 64q20 0 41.5 -16.5t21.5 -47.5z" />
    <glyph glyph-name="uni05E905C2" unicode="&#x5e9;&#x5c2;" horiz-adv-x="1044" 
d="M970 807q-6 -13 -7 -20t-1 -15v-268q0 -58 -16.5 -123.5t-46.5 -128t-71 -117t-90 -88.5q-100 -70 -260 -70q-65 0 -121 13.5t-104 45t-87.5 82.5t-69.5 126q-11 28 -16 84t-5 143v336h164v-414q37 1 76.5 11.5t72 31.5t53.5 53.5t21 77.5v240h151v-260q0 -53 -25.5 -103
t-72.5 -89.5t-113.5 -64.5t-148.5 -26q12 -30 33.5 -56t51 -45.5t66.5 -30.5t80 -11q41 0 76 9t67 29.5t61 55t58 85.5q56 98 56 159v348h168zM206 950q0 -26 -20.5 -44.5t-42.5 -18.5q-64 0 -64 63q0 64 64 64q63 0 63 -64z" />
    <glyph glyph-name="uni05D905B4" unicode="&#x5d9;&#x5b4;" horiz-adv-x="383" 
d="M275 377h-166v430h166v-430zM252 222q0 -27 -18.5 -45.5t-44.5 -18.5q-29 0 -46.5 17.5t-17.5 46.5q0 24 17.5 43.5t46.5 19.5q24 0 43.5 -18.5t19.5 -44.5z" />
    <glyph glyph-name="noonjeemisolatedarabic" unicode="&#xfee7;&#xfe9e;" horiz-adv-x="1051" arabic-form="isolated" 
d="M1036 633l-92 -182q-26 0 -63 -2q-197 -11 -351 -87q-145 -71 -237 -190t-92 -238q0 -151 134 -246.5t347 -95.5q119 0 317 41q-75 -65 -130.5 -126.5t-75.5 -71.5q-56 -29 -230 -29q-219 0 -346 107q-145 122 -145 344q0 159 89 318t245 276q-82 22 -144 22
q-88 0 -170 -41l51 119q13 29 29 61q16 23 39 27l25 4l16 4q133 82 200.5 170t116.5 246q37 117 74 117q49 0 131 -144q35 -61 35 -118q0 -50 -29 -150q-57 117 -98 162q-31 33 -43 33q-6 0 -12 -7q-27 -67 -52 -137q-53 -131 -118 -186q18 0 47 -4q147 -8 272 -8
q135 0 260 12zM657 -14l-100 -90l-127 116l100 92zM592 1311l-98 -88l-129 116l102 93z" />
    <glyph glyph-name="tehjeemisolatedarabic" unicode="&#xfe97;&#xfe9e;" horiz-adv-x="1051" arabic-form="isolated" 
d="M1036 633l-92 -182q-26 0 -63 -2q-197 -11 -351 -87q-145 -71 -237 -190t-92 -238q0 -151 134 -246.5t347 -95.5q119 0 317 41q-75 -65 -130.5 -126.5t-75.5 -71.5q-56 -29 -230 -29q-219 0 -346 107q-145 122 -145 344q0 159 89 318t245 276q-82 22 -144 22
q-88 0 -170 -41l51 119q13 29 29 61q16 23 39 27l25 4l16 4q133 82 200.5 170t116.5 246q37 117 74 117q49 0 131 -144q35 -61 35 -118q0 -50 -29 -150q-57 117 -98 162q-31 33 -43 33q-6 0 -12 -7q-27 -67 -52 -137q-53 -131 -118 -186q18 0 47 -4q147 -8 272 -8
q135 0 260 12zM657 -14l-100 -90l-127 116l100 92zM592 1311l-103 -90l-77 71l-82 -71l-125 120l100 89l76 -72l86 72z" />
    <glyph glyph-name="tehhahisolatedarabic" unicode="&#xfe97;&#xfea2;" horiz-adv-x="1051" arabic-form="isolated" 
d="M1036 633l-92 -182q-26 0 -63 -2q-197 -11 -351 -87q-145 -71 -237 -190t-92 -238q0 -151 134 -246.5t347 -95.5q119 0 317 41q-75 -65 -130.5 -126.5t-75.5 -71.5q-56 -29 -230 -29q-219 0 -346 107q-145 122 -145 344q0 159 89 318t245 276q-82 22 -144 22
q-88 0 -170 -41l51 119q13 29 29 61q16 23 39 27l25 4l16 4q133 82 200.5 170t116.5 246q37 117 74 117q49 0 131 -144q35 -61 35 -118q0 -50 -29 -150q-57 117 -98 162q-31 33 -43 33q-6 0 -12 -7q-27 -67 -52 -137q-53 -131 -118 -186q18 0 47 -4q147 -8 272 -8
q135 0 260 12zM592 1311l-103 -90l-77 71l-82 -71l-125 120l100 89l76 -72l86 72z" />
    <glyph glyph-name="noonjeeminitialarabic" unicode="&#xfee7;&#xfea0;" horiz-adv-x="1118" arabic-form="initial" 
d="M1104 303l-109 -168q-73 21 -145 21q-184 0 -287 -105q-37 -39 -45 -43q-14 -8 -55 -8h-488v193h541q64 47 107 59q-258 168 -363 168q-27 0 -76 -17q170 152 252 351l51 125q29 71 60 71q22 0 55 -37q115 -127 115 -227q0 -35 -31 -151q-10 24 -16 34q-45 80 -86 133
q-19 25 -35 25q-19 0 -39 -53q-27 -68 -35 -84q-10 -23 -31 -47q9 2 15 2q28 0 159 -68l152 -78q160 -82 334 -96zM465 -231l98 90l129 -117l-102 -92zM580 1124l98 88l129 -116l-102 -92z" />
    <glyph glyph-name="tehhahinitialarabic" unicode="&#xfe97;&#xfea4;" horiz-adv-x="1118" arabic-form="initial" 
d="M1104 303l-109 -168q-73 21 -145 21q-184 0 -287 -105q-37 -39 -45 -43q-14 -8 -55 -8h-488v193h541q64 47 107 59q-258 168 -363 168q-27 0 -76 -17q170 152 252 351l51 125q29 71 60 71q22 0 55 -37q115 -127 115 -227q0 -35 -31 -151q-10 24 -16 34q-45 80 -86 133
q-19 25 -35 25q-19 0 -39 -53q-27 -68 -35 -84q-10 -23 -31 -47q9 2 15 2q28 0 159 -68l152 -78q160 -82 334 -96zM494 1079l-103 -92l-78 72l-82 -72l-125 121l101 88l76 -72l86 72z" />
    <glyph glyph-name="tehjeeminitialarabic" unicode="&#xfe97;&#xfea0;" horiz-adv-x="1118" arabic-form="initial" 
d="M1104 303l-109 -168q-73 21 -145 21q-184 0 -287 -105q-37 -39 -45 -43q-14 -8 -55 -8h-488v193h541q64 47 107 59q-258 168 -363 168q-27 0 -76 -17q170 152 252 351l51 125q29 71 60 71q22 0 55 -37q115 -127 115 -227q0 -35 -31 -151q-10 24 -16 34q-45 80 -86 133
q-19 25 -35 25q-19 0 -39 -53q-27 -68 -35 -84q-10 -23 -31 -47q9 2 15 2q28 0 159 -68l152 -78q160 -82 334 -96zM465 -231l98 90l129 -117l-102 -92zM494 1079l-103 -92l-78 72l-82 -72l-125 121l101 88l76 -72l86 72z" />
    <glyph glyph-name="lamjeeminitialarabic" unicode="&#xfedf;&#xfea0;" horiz-adv-x="1120" arabic-form="initial" 
d="M694 -254l-98 -90l-129 117l102 92zM688 877l19 -297q4 -66 4 -72q0 -31 -23 -72q94 -47 174 -74q133 -47 244 -49l-107 -172q-73 21 -153 21q-162 0 -277 -103q-49 -43 -59 -49q-18 -10 -61 -10h-474v193h535q53 47 115 63q-33 16 -121 68q-47 28 -107 59
q-71 37 -129 37q-35 0 -75 -19l108 119q43 45 74 45h24q41 -6 90 -6q25 0 74 6l-18 369q-58 16 -58 49q0 10 17 39l16 29l70 114q4 -43 25.5 -63.5t86.5 -48.5l91 -39l-64 -150z" />
    <glyph glyph-name="lamhahinitialarabic" unicode="&#xfedf;&#xfea4;" horiz-adv-x="1120" arabic-form="initial" 
d="M688 877l19 -297q4 -66 4 -72q0 -31 -23 -72q94 -47 174 -74q133 -47 244 -49l-107 -172q-73 21 -153 21q-162 0 -277 -103q-49 -43 -59 -49q-18 -10 -61 -10h-474v193h535q53 47 115 63q-33 16 -121 68q-47 28 -107 59q-71 37 -129 37q-35 0 -75 -19l108 119
q43 45 74 45h24q41 -6 90 -6q25 0 74 6l-18 369q-58 16 -58 49q0 10 17 39l16 29l70 114q4 -43 25.5 -63.5t86.5 -48.5l91 -39l-64 -150z" />
    <glyph glyph-name="lamkhahinitialarabic" unicode="&#xfedf;&#xfea8;" horiz-adv-x="1120" arabic-form="initial" 
d="M303 817l-98 -90l-129 117l102 92zM688 877l19 -297q4 -66 4 -72q0 -31 -23 -72q94 -47 174 -74q133 -47 244 -49l-107 -172q-73 21 -153 21q-162 0 -277 -103q-49 -43 -59 -49q-18 -10 -61 -10h-474v193h535q53 47 115 63q-33 16 -121 68q-47 28 -107 59q-71 37 -129 37
q-35 0 -75 -19l108 119q43 45 74 45h24q41 -6 90 -6q25 0 74 6l-18 369q-58 16 -58 49q0 10 17 39l16 29l70 114q4 -43 25.5 -63.5t86.5 -48.5l91 -39l-64 -150z" />
    <glyph glyph-name="lammeeminitialarabic" unicode="&#xfedf;&#xfee4;" horiz-adv-x="702" arabic-form="initial" 
d="M512 954l-68 -155l-36 16l45 -520q6 -64 20 -88.5t78 -63.5l137 -82l-100 -159l-226 137l-28 -39h-359v193h340l-55 679q-53 19 -53 43q0 13 14 39l15 27l71 125q6 -47 18.5 -61.5t69.5 -38.5z" />
    <glyph glyph-name="noonmeemisolatedarabic" unicode="&#xfee7;&#xfee2;" horiz-adv-x="903" arabic-form="isolated" 
d="M727 76l-96 -156l-74 45q-57 35 -119 35h-297l23 -426q0 -29 -21 -57l-18 -33l-76 -121l-26 389q-3 31 -7 66q-2 22 -2 43q0 33 27 106q25 68 76 174q16 35 33 43q6 2 57 6l33 3h92q67 108 133 192q170 221 332 221q98 0 98 -88q0 -61 -96 -192q-27 86 -82 86
q-45 0 -108.5 -54.5t-114.5 -136.5zM842 803l-101 -90l-127 116l101 93z" />
    <glyph glyph-name="behmeemisolatedarabic" unicode="&#xfe91;&#xfee2;" horiz-adv-x="942" arabic-form="isolated" 
d="M727 76l-96 -156l-74 45q-57 35 -119 35h-297l23 -426q0 -29 -21 -57l-18 -33l-76 -121l-26 389q-3 31 -7 66q-2 22 -2 43q0 33 27 106q25 68 76 174q16 35 33 43q6 2 57 6l33 3h92q67 108 133 192q170 221 332 221q98 0 98 -88q0 -61 -96 -192q-27 86 -82 86
q-45 0 -108.5 -54.5t-114.5 -136.5zM934 -268l-98 -90l-129 116l102 92z" />
    <glyph glyph-name="tehmeemisolatedarabic" unicode="&#xfe97;&#xfee2;" horiz-adv-x="903" arabic-form="isolated" 
d="M727 76l-96 -156l-74 45q-57 35 -119 35h-297l23 -426q0 -29 -21 -57l-18 -33l-76 -121l-26 389q-3 31 -7 66q-2 22 -2 43q0 33 27 106q25 68 76 174q16 35 33 43q6 2 57 6l33 3h92q67 108 133 192q170 221 332 221q98 0 98 -88q0 -61 -96 -192q-27 86 -82 86
q-45 0 -108.5 -54.5t-114.5 -136.5zM895 803l-102 -90l-78 71l-84 -71l-123 118l100 89l76 -70l84 70z" />
    <glyph glyph-name="yehmeemisolatedarabic" unicode="&#xfef3;&#xfee2;" horiz-adv-x="903" arabic-form="isolated" 
d="M727 76l-96 -156l-74 45q-57 35 -119 35h-297l23 -426q0 -29 -21 -57l-18 -33l-76 -121l-26 389q-3 31 -7 66q-2 22 -2 43q0 33 27 106q25 68 76 174q16 35 33 43q6 2 57 6l33 3h92q67 108 133 192q170 221 332 221q98 0 98 -88q0 -61 -96 -192q-27 86 -82 86
q-45 0 -108.5 -54.5t-114.5 -136.5zM899 -315l-102 -91l-80 72l-82 -72l-125 119l102 88l76 -69l84 69z" />
    <glyph glyph-name="noonmeeminitialarabic" unicode="&#xfee7;&#xfee4;" horiz-adv-x="840" arabic-form="initial" 
d="M659 76l-94 -156l-239 143l-39 -63h-312v193h293q68 108 133 192q170 221 332 221q98 0 98 -88q0 -61 -96 -192q-28 86 -82 86q-45 0 -108.5 -54.5t-114.5 -136.5zM817 846l-100 -90l-127 116l100 93z" />
    <glyph glyph-name="behmeeminitialarabic" unicode="&#xfe91;&#xfee4;" horiz-adv-x="840" arabic-form="initial" 
d="M659 76l-94 -156l-239 143l-39 -63h-312v193h293q68 108 133 192q170 221 332 221q98 0 98 -88q0 -61 -96 -192q-28 86 -82 86q-45 0 -108.5 -54.5t-114.5 -136.5zM750 -319l-101 -91l-127 117l101 94z" />
    <glyph glyph-name="yehmeeminitialarabic" unicode="&#xfef3;&#xfee4;" horiz-adv-x="840" arabic-form="initial" 
d="M659 76l-94 -156l-239 143l-39 -63h-312v193h293q68 108 133 192q170 221 332 221q98 0 98 -88q0 -61 -96 -192q-28 86 -82 86q-45 0 -108.5 -54.5t-114.5 -136.5zM436 -295l105 92l77 -71l82 71l125 -121l-100 -88l-78 72l-84 -72z" />
    <glyph glyph-name="meemmeeminitialarabic" unicode="&#xfee3;&#xfee4;" horiz-adv-x="848" arabic-form="initial" 
d="M639 80l-96 -158l-90 53q-41 25 -70 25h-408v193h318q61 92 125.5 166.5t140.5 127.5l-16 29l-6 12q-5 4 -5 11q0 8 21 32l27 33q57 66 77 66q39 0 150 -92q35 -29 35 -56q0 -20 -47 -84q-11 -14 -33 -32q-14 -15 -47 -19q-174 -18 -279 -182z" />
    <glyph glyph-name="meemmeemisolatedarabic" unicode="&#xfee3;&#xfee2;" horiz-adv-x="936" arabic-form="isolated" 
d="M727 80l-98 -158l-90 53q-41 25 -68 25h-330l23 -418q0 -33 -39 -92l-72 -111l-35 422q-4 49 -4 60q0 20 4 33q7 43 45 137q43 102 70 141q12 18 35 18h20l21 3h170q37 53 125 165q61 72 141 129l-16 29q-11 10 -11 23q0 8 21 32l27 33q53 66 77 66q37 0 150 -92
q35 -29 35 -56q0 -16 -47 -84q-9 -12 -28 -29.5t-52 -21.5q-170 -18 -279 -182z" />
    <glyph glyph-name="noonnoonfinalarabic" unicode="&#xfee8;&#xfee6;" horiz-adv-x="1407" arabic-form="final" 
d="M788 143q5 -57 5 -63q0 -78 -33 -189q-19 -63 -53 -143q-74 -59 -183.5 -99t-195.5 -40q-121 0 -203 84t-82 209q0 104 61 280q21 58 60 146q-37 -176 -37 -277q0 -119 58.5 -187.5t160.5 -68.5q76 0 172 42t164 102q-6 114 -31 200q-22 80 -94 189l111 131
q22 -33 63 -115l4 -8h289v108l152 162l2 -375q2 -38 49 -38h186v-193h-209q-74 0 -112 12q-72 23 -72 133q0 -10 4 68l-49 -70h-187zM485 535l-100 -91l-129 117l102 92zM977 797l-100 -88l-127 114l100 95z" />
    <glyph glyph-name="yehnoonfinalarabic" unicode="&#xfef4;&#xfee6;" horiz-adv-x="1407" arabic-form="final" 
d="M788 143q5 -57 5 -63q0 -78 -33 -189q-19 -63 -53 -143q-74 -59 -183.5 -99t-195.5 -40q-121 0 -203 84t-82 209q0 104 61 280q21 58 60 146q-37 -176 -37 -277q0 -119 58.5 -187.5t160.5 -68.5q76 0 172 42t164 102q-6 114 -31 200q-22 80 -94 189l111 131
q22 -33 63 -115l4 -8h289v108l152 162l2 -375q2 -38 49 -38h186v-193h-209q-74 0 -112 12q-72 23 -72 133q0 -10 4 68l-49 -70h-187zM485 535l-100 -91l-129 117l102 92zM1235 -272l-102 -90l-78 71l-84 -71l-123 118l100 88l76 -69l86 69z" />
    <glyph glyph-name="behnoonfinalarabic" unicode="&#xfe92;&#xfee6;" horiz-adv-x="1407" arabic-form="final" 
d="M788 143q5 -57 5 -63q0 -78 -33 -189q-19 -63 -53 -143q-74 -59 -183.5 -99t-195.5 -40q-121 0 -203 84t-82 209q0 104 61 280q21 58 60 146q-37 -176 -37 -277q0 -119 58.5 -187.5t160.5 -68.5q76 0 172 42t164 102q-6 114 -31 200q-22 80 -94 189l111 131
q22 -33 63 -115l4 -8h289v108l152 162l2 -375q2 -38 49 -38h186v-193h-209q-74 0 -112 12q-72 23 -72 133q0 -10 4 68l-49 -70h-187zM485 535l-100 -91l-129 117l102 92zM870 -223l101 90l127 -117l-101 -92z" />
    <glyph glyph-name="tehnoonfinalarabic" unicode="&#xfe98;&#xfee6;" horiz-adv-x="1407" arabic-form="final" 
d="M788 143q5 -57 5 -63q0 -78 -33 -189q-19 -63 -53 -143q-74 -59 -183.5 -99t-195.5 -40q-121 0 -203 84t-82 209q0 104 61 280q21 58 60 146q-37 -176 -37 -277q0 -119 58.5 -187.5t160.5 -68.5q76 0 172 42t164 102q-6 114 -31 200q-22 80 -94 189l111 131
q22 -33 63 -115l4 -8h289v108l152 162l2 -375q2 -38 49 -38h186v-193h-209q-74 0 -112 12q-72 23 -72 133q0 -10 4 68l-49 -70h-187zM485 535l-100 -91l-129 117l102 92zM1137 809l-103 -90l-78 72l-84 -72l-122 121l100 88l76 -72l84 72z" />
    <glyph glyph-name="tehmeeminitialarabic" unicode="&#xfe97;&#xfee4;" horiz-adv-x="872" arabic-form="initial" 
d="M659 76l-94 -156l-239 143l-39 -63h-312v193h293q68 108 133 192q170 221 332 221q98 0 98 -88q0 -61 -96 -192q-28 86 -82 86q-45 0 -108.5 -54.5t-114.5 -136.5zM477 838l103 92l79 -72l82 72l125 -121l-102 -88l-76 72l-84 -72z" />
    <glyph glyph-name="lammeemjeeminitialarabic" unicode="&#xfedf;&#xfee4;&#xfea0;" horiz-adv-x="1116" 
d="M473 -223l100 88l127 -117l-100 -92zM1040 627l-104 -144q-188 113 -268 113q-56 0 -160 -47l-8 -4l39 -23q225 -131 368 -174q86 -26 195 -39l-96 -164l-27 7q-53 12 -123 12q-160 0 -258 -86l-49 -43q-35 -31 -74 -33q-16 0 -53 -2h-447v193h533q41 30 100 61
q-98 70 -170 108q-104 56 -172 56q-33 0 -76 -15l134 191q30 41 108 80q45 22 109 47q71 29 135 43l-31 393q-53 23 -53 49q0 19 41 86l61 103q6 -47 23.5 -64.5t77.5 -44.5l104 -47l-70 -154l-32 15l16 -234q2 -30 8 -80q8 -36 86 -81z" />
    <glyph glyph-name="lammeemhahinitialarabic" unicode="&#xfedf;&#xfee4;&#xfea4;" horiz-adv-x="1116" arabic-form="initial" 
d="M1040 627l-104 -144q-188 113 -268 113q-56 0 -160 -47l-8 -4l39 -23q225 -131 368 -174q86 -26 195 -39l-96 -164l-27 7q-53 12 -123 12q-160 0 -258 -86l-49 -43q-35 -31 -74 -33q-16 0 -53 -2h-447v193h533q41 30 100 61q-98 70 -170 108q-104 56 -172 56
q-33 0 -76 -15l134 191q30 41 108 80q45 22 109 47q71 29 135 43l-31 393q-53 23 -53 49q0 19 41 86l61 103q6 -47 23.5 -64.5t77.5 -44.5l104 -47l-70 -154l-32 15l16 -234q2 -30 8 -80q8 -36 86 -81z" />
    <glyph glyph-name="lammeemkhahinitialarabic" unicode="&#xfedf;&#xfee4;&#xfea8;" horiz-adv-x="1116" 
d="M250 995l100 90l129 -116l-102 -92zM1040 627l-104 -144q-188 113 -268 113q-56 0 -160 -47l-8 -4l39 -23q225 -131 368 -174q86 -26 195 -39l-96 -164l-27 7q-53 12 -123 12q-160 0 -258 -86l-49 -43q-35 -31 -74 -33q-16 0 -53 -2h-447v193h533q41 30 100 61
q-98 70 -170 108q-104 56 -172 56q-33 0 -76 -15l134 191q30 41 108 80q45 22 109 47q71 29 135 43l-31 393q-53 23 -53 49q0 19 41 86l61 103q6 -47 23.5 -64.5t77.5 -44.5l104 -47l-70 -154l-32 15l16 -234q2 -30 8 -80q8 -36 86 -81z" />
    <glyph glyph-name="shaddakasraarabic" unicode="&#x650;&#x651;" arabic-form="isolated" 
d="M618 1412l-36 -44q-142 -161 -365 -165q-80 -2 -205 16q142 35 292.5 80t313.5 113zM408 1659q77 -92 77 -164q0 -38 -28 -106h-146l-24 37l-41 -37q-137 0 -162 12q-53 29 -53 97q0 67 47 139q-10 -53 -10 -72q0 -86 100 -86h84l-78 115l45 47l113 -162h98
q-14 72 -74 129z" />
    <glyph glyph-name="shaddakasratanarabic" unicode="&#x64d;&#x651;" arabic-form="isolated" 
d="M639 1410l-37 -43q-141 -162 -364 -166q-80 -2 -205 16q141 35 291.5 80t314.5 113zM639 1615l-37 -43q-141 -162 -364 -166q-80 -2 -205 16q141 35 291.5 80t314.5 113zM436 1867q78 -93 78 -164q0 -39 -29 -107h-145l-25 37l-41 -37q-139 0 -161 13q-54 28 -54 96
q0 67 47 139q-10 -53 -10 -72q0 -86 101 -86h84l-78 115l45 47l112 -162h99q-15 72 -74 129z" />
    <glyph glyph-name="shaddafathaarabic" unicode="&#x64e;&#x651;" arabic-form="isolated" 
d="M618 1705l-36 -43q-142 -161 -365 -166q-80 -2 -205 17q142 35 292.5 80t313.5 112zM489 1474q78 -92 78 -164q0 -39 -28 -106h-146l-24 36l-41 -36q-138 0 -162 12q-53 29 -53 96q0 68 47 139q-10 -53 -10 -71q0 -86 100 -86h84l-78 114l45 47l113 -161h98
q-14 71 -74 129z" />
    <glyph glyph-name="shaddadammaarabic" unicode="&#x64f;&#x651;" arabic-form="isolated" 
d="M489 1470q78 -90 78 -164q0 -39 -28 -106h-146l-24 37l-41 -37q-138 0 -162 12q-53 29 -53 96q0 68 47 140q-10 -54 -10 -72q0 -86 100 -86h84l-78 115l45 47l113 -162h98q-14 74 -74 129zM39 1460q96 47 285 152q4 106 58 176.5t128 70.5q55 0 55 -63q0 -27 -15 -82
t-29.5 -83t-149.5 -83l-27 -108l-18 94q-56 -21 -144 -41q-139 -33 -143 -33zM383 1585q4 2 39 18q80 39 80 101q0 24 -29 24q-31 0 -56.5 -41t-33.5 -102z" />
    <glyph glyph-name="lamalefhamzaaboveisolatedarabic" unicode="&#xfedf;&#xfe84;" horiz-adv-x="924" arabic-form="isolated" 
d="M225 1163l-37 -96q-55 -4 -108 -27q-70 -28 -129 -96q14 76 59 127q-76 19 -76 90q0 58 56 119q63 74 147 74q51 0 51 -35q0 -31 -26 -70q-19 8 -45 8q-76 0 -125 -57q59 -55 149 -55q35 0 84 18zM811 797l-10 -19l-84 -129q-35 -53 -101 -127q-4 -4 -14 -16l94 -144
q17 -24 41.5 -65t24.5 -78q0 -35 -23 -96l-45 -123h-561l6 27l33 206q74 62 150.5 135.5t123.5 133.5q-49 61 -109.5 124.5t-119.5 108.5q-18 -43 -45 -43q-20 0 -37 17q-86 88 -86 151q0 39 43 119q31 55 55 55q27 0 62 -35q178 -178 301 -370l14 -23q107 137 154 285
q-35 29 -35 55q0 19 12.5 35t40.5 43l88 86q-4 -29 -4 -35q0 -37 51 -78l115 -90l-102 -137zM518 418q-100 -111 -223 -211l-4 -14h362l2 4q2 6 2 14q0 14 -10 29z" />
    <glyph glyph-name="lamalefmaddaabovefinalarabic" unicode="&#xfee0;&#xfe82;" horiz-adv-x="1024" arabic-form="final" 
d="M-63 1151l53 66q65 79 110 79q23 0 166 -63q41 -19 64 -19q18 0 82 37l43 25l-64 -72q-61 -69 -112 -69q-27 0 -72 20.5l-90 42.5q-33 14 -54 14q-14 0 -81 -36zM649 940l154 164v-836q0 -51 15.5 -63t78.5 -12h133v-193h-211q8 0 -41 2q-73 4 -104 53q-25 39 -25 152v47
l-55 -78l-29 -43q-51 -78 -99 -105.5t-110 -33.5q-71 -8 -188 -8q-113 0 -213 8q158 43 264 90q76 33 143 70q50 26 105 65l-8 27q-64 209 -131 323q-45 78 -133 185q-17 -41 -45 -41q-21 0 -37 26q-64 101 -64 144q0 26 49 100q39 57 60 57q84 0 201.5 -232.5t183.5 -526.5
l39 36l39 39q26 21 26 52v26l2 25v481z" />
    <glyph glyph-name="shaddadammatanarabic" unicode="&#x64c;&#x651;" arabic-form="isolated" 
d="M473 1472q77 -92 77 -163q0 -39 -28 -107h-146l-24 37l-41 -37q-137 0 -162 12q-53 29 -53 97q0 67 47 139q-10 -53 -10 -72q0 -86 100 -86h84l-78 115l45 47l113 -162h98q-14 72 -74 129zM372 1536l-24 -107l-23 91q-18 -7 -131 -34.5l-113 -27.5q0 -2 64.5 123
t64.5 172q0 18 -14 18q-43 0 -182 -120q26 41 45 65q119 148 197 148q34 0 34 -37q0 -74 -110 -281q33 6 145 51q8 113 60.5 184.5t121.5 71.5q60 0 60 -59q0 -39 -19 -104q-24 -76 -53 -93q-47 -28 -123 -61zM485 1628q16 35 16 74t-26 39q-31 0 -59.5 -47t-32.5 -107
q34 8 102 41z" />
    <glyph glyph-name="lamalefisolatedarabic" unicode="&#xfedf;&#xfe8e;" horiz-adv-x="932" arabic-form="isolated" 
d="M811 797l-10 -19l-84 -129q-35 -53 -101 -127q-4 -4 -14 -16l94 -144q17 -24 41.5 -65t24.5 -78q0 -35 -23 -96l-45 -123h-561l6 27l33 206q74 62 150.5 135.5t123.5 133.5q-49 61 -109.5 124.5t-119.5 108.5q-18 -43 -45 -43q-20 0 -37 17q-86 88 -86 151q0 39 43 119
q31 55 55 55q27 0 62 -35q178 -178 301 -370l14 -23q107 137 154 285q-35 29 -35 55q0 19 12.5 35t40.5 43l88 86q-4 -29 -4 -35q0 -37 51 -78l115 -90l-102 -137zM518 418q-100 -111 -223 -211l-4 -14h362l2 4q2 6 2 14q0 14 -10 29z" />
    <glyph glyph-name="lamaleffinalarabic" unicode="&#xfee0;&#xfe8e;" horiz-adv-x="1024" arabic-form="final" 
d="M649 940l154 164v-836q0 -51 15.5 -63t78.5 -12h133v-193h-211q8 0 -41 2q-73 4 -104 53q-25 39 -25 152v47l-55 -78l-29 -43q-51 -78 -99 -105.5t-110 -33.5q-71 -8 -188 -8q-113 0 -213 8q158 43 264 90q76 33 143 70q50 26 105 65l-8 27q-64 209 -131 323
q-45 78 -133 185q-17 -41 -45 -41q-21 0 -37 26q-64 101 -64 144q0 26 49 100q39 57 60 57q84 0 201.5 -232.5t183.5 -526.5l39 36l39 39q26 21 26 52v26l2 25v481z" />
    <glyph glyph-name="lamalefhamzaabovefinalarabic" unicode="&#xfee0;&#xfe84;" horiz-adv-x="1024" arabic-form="final" 
d="M227 1174l-37 -97q-149 -20 -235 -123q10 76 59 127q-75 19 -75 90q0 60 63 134q51 59 137 59q51 0 51 -35q0 -31 -26 -69q-19 8 -45 8q-78 0 -123 -60q59 -53 149 -53q37 0 82 19zM649 940l154 164v-836q0 -51 15.5 -63t78.5 -12h133v-193h-211q8 0 -41 2q-73 4 -104 53
q-25 39 -25 152v47l-55 -78l-29 -43q-51 -78 -99 -105.5t-110 -33.5q-71 -8 -188 -8q-113 0 -213 8q158 43 264 90q76 33 143 70q50 26 105 65l-8 27q-64 209 -131 323q-45 78 -133 185q-17 -41 -45 -41q-21 0 -37 26q-64 101 -64 144q0 26 49 100q39 57 60 57
q84 0 201.5 -232.5t183.5 -526.5l39 36l39 39q26 21 26 52v26l2 25v481z" />
    <glyph glyph-name="lamalefhamzabelowisolatedarabic" unicode="&#xfedf;&#xfe88;" horiz-adv-x="924" arabic-form="isolated" 
d="M266 -324l-37 -94q-149 -20 -237 -123q10 76 59 127q-76 19 -76 90q0 60 64 134q51 59 139 59q51 0 51 -35q0 -27 -26 -70q-25 9 -45 9q-80 0 -125 -60q59 -53 149 -53q33 0 84 16zM811 797l-10 -19l-84 -129q-35 -53 -101 -127q-4 -4 -14 -16l94 -144q17 -24 41.5 -65
t24.5 -78q0 -35 -23 -96l-45 -123h-561l6 27l33 206q74 62 150.5 135.5t123.5 133.5q-49 61 -109.5 124.5t-119.5 108.5q-18 -43 -45 -43q-20 0 -37 17q-86 88 -86 151q0 39 43 119q31 55 55 55q27 0 62 -35q178 -178 301 -370l14 -23q107 137 154 285q-35 29 -35 55
q0 19 12.5 35t40.5 43l88 86q-4 -29 -4 -35q0 -37 51 -78l115 -90l-102 -137zM518 418q-100 -111 -223 -211l-4 -14h362l2 4q2 6 2 14q0 14 -10 29z" />
    <glyph glyph-name="lamalefhamzabelowfinalarabic" unicode="&#xfee0;&#xfe88;" horiz-adv-x="1024" arabic-form="final" 
d="M178 -352l-37 -97q-55 -4 -108 -26q-70 -29 -129 -96q14 75 59 127q-76 18 -76 90q0 57 56 118q63 74 147 74q51 0 51 -35q0 -28 -26 -69q-21 8 -47 8q-78 0 -123 -57q59 -56 149 -56q35 0 84 19zM649 940l154 164v-836q0 -51 15.5 -63t78.5 -12h133v-193h-211q8 0 -41 2
q-73 4 -104 53q-25 39 -25 152v47l-55 -78l-29 -43q-51 -78 -99 -105.5t-110 -33.5q-71 -8 -188 -8q-113 0 -213 8q158 43 264 90q76 33 143 70q50 26 105 65l-8 27q-64 209 -131 323q-45 78 -133 185q-17 -41 -45 -41q-21 0 -37 26q-64 101 -64 144q0 26 49 100
q39 57 60 57q84 0 201.5 -232.5t183.5 -526.5l39 36l39 39q26 21 26 52v26l2 25v481z" />
    <glyph glyph-name="lamalefmaddaaboveisolatedarabic" unicode="&#xfedf;&#xfe82;" horiz-adv-x="924" arabic-form="isolated" 
d="M-106 1114l53 66q65 80 116 80q25 0 70 -20.5l89 -40t61 -19.5q18 0 129 59l-64 -72q-59 -67 -110 -67q-25 0 -52 12l-112 51q-37 17 -49 17q-11 0 -131 -66zM811 797l-10 -19l-84 -129q-35 -53 -101 -127q-4 -4 -14 -16l94 -144q17 -24 41.5 -65t24.5 -78q0 -35 -23 -96
l-45 -123h-561l6 27l33 206q74 62 150.5 135.5t123.5 133.5q-49 61 -109.5 124.5t-119.5 108.5q-18 -43 -45 -43q-20 0 -37 17q-86 88 -86 151q0 39 43 119q31 55 55 55q27 0 62 -35q178 -178 301 -370l14 -23q107 137 154 285q-35 29 -35 55q0 19 12.5 35t40.5 43l88 86
q-4 -29 -4 -35q0 -37 51 -78l115 -90l-102 -137zM518 418q-100 -111 -223 -211l-4 -14h362l2 4q2 6 2 14q0 14 -10 29z" />
    <glyph glyph-name="alefmaddaabovearabic" unicode="&#x627;&#x653;" horiz-adv-x="401" 
d="M-55 1159l53 64q70 82 113 82q12 0 163 -62q52 -20 62 -20q14 0 127 59l-76 -84q-55 -55 -96 -55q-39 0 -182 71q-21 7 -37 7q-13 0 -82 -37zM129 -68q12 158 12 267q0 145 -14 393q-12 203 -27 305l164 203l39 -242l-37 -43l2 -24q19 -222 19 -367t-31 -256
q-23 -82 -127 -236z" />
    <glyph glyph-name="alefhamzaabovearabic" unicode="&#x627;&#x654;" horiz-adv-x="401" 
d="M291 1229l-37 -94q-145 -21 -238 -123q11 69 60 127q-76 16 -76 88q0 57 63 133q52 61 140 61q51 0 51 -35q0 -26 -27 -69q-24 8 -45 8q-78 0 -125 -59q60 -56 150 -56q31 0 84 19zM129 -68q12 158 12 267q0 145 -14 393q-12 203 -27 305l164 203l39 -242l-37 -43l2 -24
q19 -222 19 -367t-31 -256q-23 -82 -127 -236z" />
    <glyph glyph-name="wawhamzaabovearabic" unicode="&#x648;&#x654;" horiz-adv-x="625" 
d="M406 844l-37 -94q-150 -21 -236 -123q10 75 60 127q-76 18 -76 90q0 59 63 133q51 59 137 59q54 0 54 -35q0 -26 -27 -69q-27 8 -47 8q-76 0 -123 -59q57 -54 150 -54q34 0 82 17zM436 0h-139q-74 0 -100 4q-54 8 -89.5 50t-35.5 98q0 84 45 183t114 173q41 43 93 43
q65 0 127 -86q102 -146 102 -346q0 -230 -152 -418q-84 -104 -155 -104q-80 0 -230 194q74 -27 131 -27q93 0 170.5 63.5t118.5 172.5zM422 193q-23 188 -113 188q-39 0 -72.5 -41t-33.5 -86q0 -61 76 -61h143z" />
    <glyph glyph-name="alefhamzabelowarabic" unicode="&#x627;&#x655;" horiz-adv-x="401" 
d="M340 -373l-37 -94q-147 -20 -237 -125q10 76 59 129q-76 17 -76 88q0 58 64 133q51 62 137 62q53 0 53 -37q0 -29 -27 -68q-26 9 -47 9q-75 0 -123 -60q60 -55 150 -55q29 0 84 18zM129 -68q12 158 12 267q0 145 -14 393q-12 203 -27 305l164 203l39 -242l-37 -43l2 -24
q19 -222 19 -367t-31 -256q-23 -82 -127 -236z" />
    <glyph glyph-name="yehhamzaabovearabic" unicode="&#x64a;&#x654;" horiz-adv-x="1001" 
d="M266 590l-37 -94q-149 -21 -235 -123q10 76 59 127q-76 14 -76 90q0 55 64 131q51 61 137 61q53 0 53 -34q0 -29 -26 -70q-27 8 -47 8q-76 0 -123 -59q59 -56 149 -56q27 0 82 19zM578 285l249 -111q84 -37 84 -72q0 -28 -39 -102l-22 -43l-74 -145q-76 -74 -153 -117
q-152 -84 -289 -84q-129 0 -210 84t-81 217q0 102 55 256q29 80 64 151l-8 -32q-29 -115 -29 -205q0 -283 225 -283q101 0 217.5 61.5t169.5 141.5l-243 111q-50 22 -62 34.5t-12 40.5q0 45 47 123q176 291 414 291q86 0 86 -59q0 -11 -25 -84l-18 -56q-54 23 -109 23
q-145 0 -237 -141z" />
    <glyph glyph-name="shaddawithfathatan" unicode="&#x64b;&#x651;" 
d="M639 1700l-37 -43q-141 -162 -364 -166q-80 -2 -205 16q141 35 291.5 80t314.5 113zM639 1904l-37 -43q-141 -161 -364 -166q-80 -2 -205 17q141 35 291.5 80t314.5 112zM436 1474q78 -92 78 -164q0 -39 -29 -106h-145l-25 37l-41 -37q-139 0 -161 12q-54 29 -54 96
q0 68 47 140q-10 -54 -10 -72q0 -86 101 -86h84l-78 115l45 47l112 -162h99q-15 72 -74 129z" />
    <glyph glyph-name="shaddawithsuperscriptalef" unicode="&#x651;&#x670;" arabic-form="isolated" 
d="M489 1471q78 -93 78 -164q0 -39 -28 -107h-146l-24 37l-41 -37q-138 0 -162 13q-53 28 -53 96q0 67 47 139q-10 -53 -10 -72q0 -86 100 -86h84l-78 115l45 47l113 -162h98q-14 72 -74 129zM422 1704q0 -106 -92 -223q10 123 10 164q0 127 -33 252l74 77q41 -151 41 -270z
" />
    <glyph glyph-name="shaddawithfathamedial" unicode="&#x64e;&#x651;" arabic-form="medial" 
d="M618 1703l-36 -43q-142 -161 -365 -166q-80 -2 -205 17q142 35 292.5 80t313.5 112zM489 1472q78 -92 78 -164q0 -39 -28 -106h-146l-24 36l-41 -36q-138 0 -162 12q-53 29 -53 96q0 68 47 139q-10 -53 -10 -71q0 -86 100 -86h84l-78 114l45 47l113 -161h98
q-14 71 -74 129z" />
    <glyph glyph-name="shaddawithdammamedial" unicode="&#x64f;&#x651;" arabic-form="medial" 
d="M478 1470q78 -90 78 -164q0 -39 -29 -106h-145l-25 37l-41 -37q-137 0 -161 12q-54 29 -54 96q0 68 48 140q-11 -54 -11 -72q0 -86 101 -86h84l-78 115l45 47l113 -162h98q-15 74 -74 129zM28 1460q96 47 284 151q4 107 58.5 177.5t128.5 70.5q55 0 55 -63
q0 -27 -15.5 -82t-29.5 -83t-150 -83l-26 -109l-19 95q-55 -21 -143 -41q-139 -33 -143 -33zM372 1585q4 2 39 18q80 39 80 101q0 24 -29 24q-31 0 -56.5 -41t-33.5 -102z" />
    <glyph glyph-name="shaddawithkasramedial" unicode="&#x650;&#x651;" arabic-form="medial" 
d="M618 1408l-36 -43q-142 -162 -365 -166q-80 -2 -205 17q142 35 292.5 80t313.5 112zM408 1670q77 -92 77 -163q0 -39 -28 -107h-146l-24 37l-41 -37q-137 0 -162 12q-53 29 -53 97q0 67 47 139q-10 -53 -10 -72q0 -86 100 -86h84l-78 115l45 47l113 -162h98
q-14 72 -74 129z" />
    <glyph glyph-name="allahisolated" unicode="&#xfedf;&#xfee0;&#xfeea;" horiz-adv-x="2007" arabic-form="isolated" 
d="M1253 991v-753q0 -41 52 -41h153v-4h213l-55 567q-51 14 -51 49q0 14 14 37l14 22l74 123q2 -45 23 -65q12 -13 53 -31l125 -55l-66 -152l-37 14l35 -393q0 -61 -41 -184l-2 -6l-31 -88l-12 -31h-260v4h-272q-74 0 -86 59l-43 -59h-179v-4h-210l-25 115l-61 -88l-443 65
l70 213q6 17 16 42.5t58 49.5l270 148l-10 45l137 119l104 -516h92v4h224v626zM571 438l-227 -125q-33 -18 -41 -51l313 -47zM1305 1337q77 -92 77 -163q0 -39 -28 -107h-146l-24 37l-41 -37q-137 0 -162 12q-53 29 -53 97q0 67 47 139q-10 -53 -10 -72q0 -86 100 -86h84
l-78 115l45 47l113 -162h98q-14 72 -74 129zM1237 1528q0 -64 -92 -180q10 122 10 163q0 17 -33 211l74 78q41 -190 41 -272z" />
    <glyph glyph-name="behinitialarabic" unicode="&#x628;" horiz-adv-x="485" arabic-form="initial" 
d="M-25 193h328q-2 116 -76 217l107 145q94 -113 94 -236q0 -71 -43 -192q-12 -37 -49 -127h-361v193zM160 -250l100 90l127 -116l-100 -95z" />
    <glyph glyph-name="tehinitialarabic" unicode="&#x62a;" horiz-adv-x="487" arabic-form="initial" 
d="M-25 193h328q-2 116 -76 217l107 145q94 -113 94 -236q0 -71 -43 -192q-12 -37 -49 -127h-361v193zM430 776l-102 -90l-80 72l-82 -72l-125 119l102 88l76 -70l84 70z" />
    <glyph glyph-name="thehinitialarabic" unicode="&#x62b;" horiz-adv-x="487" arabic-form="initial" 
d="M-25 193h328q-2 116 -76 217l107 145q94 -113 94 -236q0 -71 -43 -192q-12 -37 -49 -127h-361v193zM430 776l-102 -90l-80 72l-82 -72l-125 119l102 88l76 -70l84 70zM319 1010l-100 -88l-127 114l101 94z" />
    <glyph glyph-name="jeeminitialarabic" unicode="&#x62c;" horiz-adv-x="1122" arabic-form="initial" 
d="M471 -227l100 90l127 -117l-100 -94zM1108 307l-104 -166q-91 19 -152 19q-170 0 -289 -111q-37 -35 -53 -42t-61 -7h-474v193h541q45 36 96 55q-90 74 -188 122t-158 48q-10 0 -39 -6l64 63q71 72 133 72q47 0 135 -47q186 -101 338 -152q86 -29 188 -39z" />
    <glyph glyph-name="hahinitialarabic" unicode="&#x62d;" horiz-adv-x="1122" arabic-form="initial" 
d="M1108 307l-104 -166q-91 19 -152 19q-170 0 -289 -111q-37 -35 -53 -42t-61 -7h-474v193h541q45 36 96 55q-90 74 -188 122t-158 48q-10 0 -39 -6l64 63q71 72 133 72q47 0 135 -47q186 -101 338 -152q86 -29 188 -39z" />
    <glyph glyph-name="khahinitialarabic" unicode="&#x62e;" horiz-adv-x="1122" arabic-form="initial" 
d="M729 745l-100 -88l-127 115l100 94zM1108 307l-104 -166q-91 19 -152 19q-170 0 -289 -111q-37 -35 -53 -42t-61 -7h-474v193h541q45 36 96 55q-90 74 -188 122t-158 48q-10 0 -39 -6l64 63q71 72 133 72q47 0 135 -47q186 -101 338 -152q86 -29 188 -39z" />
    <glyph glyph-name="seeninitialarabic" unicode="&#x633;" horiz-adv-x="1503" arabic-form="initial" 
d="M961 0h-361l-31 74l-59 -74h-535v193h539l-102 229l96 127l168 -356h287l-103 229l98 127l166 -356h183v8q0 12 -7 47q-14 86 -69 162l106 145q95 -113 95 -240q0 -98 -93 -315h-290l-31 74z" />
    <glyph glyph-name="sheeninitialarabic" unicode="&#x634;" horiz-adv-x="1503" arabic-form="initial" 
d="M1108 780l-102 -90l-78 72l-84 -72l-123 119l100 88l76 -70l84 70zM997 1014l-100 -88l-127 114l100 95zM961 0h-361l-31 74l-59 -74h-535v193h539l-102 229l96 127l168 -356h287l-103 229l98 127l166 -356h183v8q0 12 -7 47q-14 86 -69 162l106 145q95 -113 95 -240
q0 -98 -93 -315h-290l-31 74z" />
    <glyph glyph-name="tahinitialarabic" unicode="&#x637;" horiz-adv-x="1255" arabic-form="initial" 
d="M-25 0v193h248l103 63l-54 623q-51 16 -51 47q0 16 25 55l80 127q4 -47 19 -62.5t85 -46.5l94 -41l-65 -151l-39 14l20 -270q2 -27 2 -64q0 -94 -32 -174l108 68l70 45l106 68q152 96 219 96q43 0 101 -33q82 -47 140 -129t58 -149q0 -46 -67 -203l-33 -76h-1137z
M1090 193q-27 102 -99.5 175.5t-146.5 73.5q-66 0 -252 -123l-66 -43l-133 -83h697z" />
    <glyph glyph-name="zahinitialarabic" unicode="&#x638;" horiz-adv-x="1255" arabic-form="initial" 
d="M874 801l-98 -88l-129 116l103 93zM-25 0v193h248l103 63l-54 623q-51 16 -51 47q0 16 25 55l80 127q4 -47 19 -62.5t85 -46.5l94 -41l-65 -151l-39 14l20 -270q2 -27 2 -64q0 -94 -32 -174l108 68l70 45l106 68q152 96 219 96q43 0 101 -33q82 -47 140 -129t58 -149
q0 -46 -67 -203l-33 -76h-1137zM1090 193q-27 102 -99.5 175.5t-146.5 73.5q-66 0 -252 -123l-66 -43l-133 -83h697z" />
    <glyph glyph-name="aininitialarabic" unicode="&#x639;" horiz-adv-x="952" arabic-form="initial" 
d="M909 193l-69 -193h-865v193h293q-37 57 -37 116q0 70 45 148q115 200 265 200q84 0 159 -79q52 -54 84 -148q-108 74 -196 74q-150 0 -260 -166l10 -10l84 -84q37 -33 72 -51h415z" />
    <glyph glyph-name="ghaininitialarabic" unicode="&#x63a;" horiz-adv-x="952" arabic-form="initial" 
d="M586 913l-99 -90l-129 117l103 92zM909 193l-69 -193h-865v193h293q-37 57 -37 116q0 70 45 148q115 200 265 200q84 0 159 -79q52 -54 84 -148q-108 74 -196 74q-150 0 -260 -166l10 -10l84 -84q37 -33 72 -51h415z" />
    <glyph glyph-name="fehinitialarabic" unicode="&#x641;" horiz-adv-x="760" arabic-form="initial" 
d="M616 0h-641v193h617q4 36 4 81q0 23 -2 39l-53 -67h-119q-72 0 -98 4q-43 6 -70 46t-27 93q0 94 60 193q94 153 190 153q31 0 53 -14q76 -49 124 -155.5t48 -225.5q0 -111 -79 -324zM559 956l-100 -90l-127 117l100 92zM580 424q-5 63 -38.5 112.5t-74.5 49.5
q-35 0 -70 -35t-35 -72q0 -55 99 -55h119z" />
    <glyph glyph-name="qafinitialarabic" unicode="&#x642;" horiz-adv-x="760" arabic-form="initial" 
d="M616 0h-641v193h617q4 36 4 81q0 23 -2 39l-53 -67h-119q-72 0 -98 4q-43 6 -70 46t-27 93q0 94 60 193q94 153 190 153q31 0 53 -14q76 -49 124 -155.5t48 -225.5q0 -111 -79 -324zM639 948l-102 -90l-80 72l-82 -72l-125 119l102 88l76 -72l84 72zM580 424
q-5 63 -38.5 112.5t-74.5 49.5q-35 0 -70 -35t-35 -72q0 -55 99 -55h119z" />
    <glyph glyph-name="kafinitialarabic" unicode="&#x643;" horiz-adv-x="1057" arabic-form="initial" 
d="M1044 1096l-81 -176l-537 -158l424 -467q55 -62 55 -90q0 -17 -14 -43l-21 -39l-63 -123h-832v193h750l-334 370l-31 -33l-71 70q-8 8 -23 21q-20 20 -20 41q0 16 12 43l10 22l78 174z" />
    <glyph glyph-name="laminitialarabic" unicode="&#x644;" horiz-adv-x="547" arabic-form="initial" 
d="M512 952l-66 -151l-36 14l34 -506q0 -61 -41 -184l-2 -6l-30 -88l-13 -31h-383v193h340l-55 679q-51 15 -51 50q0 14 14 36l15 23l73 123q2 -45 23 -66q12 -12 53 -30z" />
    <glyph glyph-name="meeminitialarabic" unicode="&#x645;" horiz-adv-x="911" arabic-form="initial" 
d="M-25 0v193h240l152 198q90 119 133 160q51 49 110 49q92 0 172 -139t80 -248q0 -37 -28 -94q-17 -35 -103 -191l-10 -18l-440 190l-64 -100h-242zM715 121q8 41 8 67q0 113 -61 193q-46 59 -87 59q-51 0 -169 -166l-11 -14z" />
    <glyph glyph-name="nooninitialarabic" unicode="&#x646;" horiz-adv-x="485" arabic-form="initial" 
d="M-25 193h328q-2 116 -76 217l107 145q94 -113 94 -236q0 -71 -43 -192q-12 -37 -49 -127h-361v193zM379 776l-98 -90l-129 117l102 94z" />
    <glyph glyph-name="hehinitialarabic" unicode="&#x647;" horiz-adv-x="991" arabic-form="initial" 
d="M487 723q453 -303 453 -440q0 -31 -35 -113l-16 -39l-51 -131h-863v193h263q-11 38 -11 67q0 137 111 234q31 26 72 53q-25 16 -25 37q0 20 41 67zM819 193q-10 55 -37 98q-39 61 -129 127q2 -15 2 -29q0 -102 -47 -196h211zM543 193q12 45 12 77q0 146 -111 146
q-45 0 -77.5 -37t-32.5 -84q0 -55 45 -84q22 -18 104 -18h60z" />
    <glyph glyph-name="yehinitialarabic" unicode="&#x64a;" horiz-adv-x="485" arabic-form="initial" 
d="M-25 193h328q-2 116 -76 217l107 145q94 -111 94 -236q0 -75 -43 -192q-12 -37 -49 -127h-361v193zM59 -254l105 90l78 -72l82 72l125 -119l-101 -88l-78 72l-84 -72z" />
    <glyph glyph-name="yehhamzaabovemedialarabic" unicode="&#x626;" horiz-adv-x="651" arabic-form="medial" 
d="M365 449l73 -256h219v-193h-313l-20 63l-54 -63h-295v193h312l-41 139zM455 735l-35 -94q-150 -18 -238 -123q11 76 60 127q-76 19 -76 90q0 58 63 133q50 60 138 60q53 0 53 -35q0 -27 -27 -70q-20 8 -47 8q-78 0 -123 -59q60 -53 150 -53q35 0 82 16z" />
    <glyph glyph-name="behmedialarabic" unicode="&#x628;" horiz-adv-x="651" arabic-form="medial" 
d="M365 449l73 -256h219v-193h-313l-20 63l-54 -63h-295v193h312l-41 139zM215 -256l100 90l127 -117l-100 -92z" />
    <glyph glyph-name="tehmedialarabic" unicode="&#x62a;" horiz-adv-x="651" arabic-form="medial" 
d="M365 449l73 -256h219v-193h-313l-20 63l-54 -63h-295v193h312l-41 139zM492 680l-105 -90l-78 72l-82 -72l-125 119l101 90l78 -72l84 72z" />
    <glyph glyph-name="thehmedialarabic" unicode="&#x62b;" horiz-adv-x="651" arabic-form="medial" 
d="M365 449l73 -256h219v-193h-313l-20 63l-54 -63h-295v193h312l-41 139zM492 680l-105 -90l-78 72l-82 -72l-125 119l101 90l78 -72l84 72zM379 915l-98 -90l-129 117l100 92z" />
    <glyph glyph-name="jeemmedialarabic" unicode="&#x62c;" horiz-adv-x="1311" arabic-form="medial" 
d="M471 -227l100 90l127 -117l-100 -94zM1108 307l-59 -92l-23 2q6 -24 51 -24h240v-193h-270q-74 0 -105 12q-49 21 -68 99q0 8 -4 18l-8 31h-4q-176 0 -295 -111q-37 -35 -53 -42t-61 -7h-474v193h541q45 36 96 55q-90 74 -188 122t-158 48q-10 0 -39 -6l64 63
q71 72 133 72q45 0 135 -47q217 -115 338 -152q113 -35 211 -41z" />
    <glyph glyph-name="hahmedialarabic" unicode="&#x62d;" horiz-adv-x="1311" arabic-form="medial" 
d="M1108 307l-59 -92l-23 2q6 -24 51 -24h240v-193h-270q-74 0 -105 12q-49 21 -68 99q0 8 -4 18l-8 31h-4q-176 0 -295 -111q-37 -35 -53 -42t-61 -7h-474v193h541q45 36 96 55q-90 74 -188 122t-158 48q-10 0 -39 -6l64 63q71 72 133 72q45 0 135 -47q217 -115 338 -152
q113 -35 211 -41z" />
    <glyph glyph-name="khahmedialarabic" unicode="&#x62e;" horiz-adv-x="1311" arabic-form="medial" 
d="M727 745l-100 -88l-127 115l100 94zM1108 307l-59 -92l-23 2q6 -24 51 -24h240v-193h-270q-74 0 -105 12q-49 21 -68 99q0 8 -4 18l-8 31h-4q-176 0 -295 -111q-37 -35 -53 -42t-61 -7h-474v193h541q45 36 96 55q-90 74 -188 122t-158 48q-10 0 -39 -6l64 63
q71 72 133 72q45 0 135 -47q217 -115 338 -152q113 -35 211 -41z" />
    <glyph glyph-name="seenmedialarabic" unicode="&#x633;" horiz-adv-x="1640" arabic-form="medial" 
d="M1411 193h236v-193h-240l-43 74l-35 -74h-280l-31 74l-57 -74h-361l-31 74l-59 -74h-535v193h539l-102 229l96 127l168 -356h287l-103 229l98 127l166 -356h183v8q0 12 -7 47q-14 84 -69 162l106 145q95 -111 95 -238q0 -47 -21 -124z" />
    <glyph glyph-name="yehbarreefinalarabic" unicode="&#x6d2;" horiz-adv-x="1278" arabic-form="final" 
d="M1282 193v-193h-956q-70 0 -88.5 -16.5t-44.5 -81.5h923q76 0 141 12l-112 -121q-45 -49 -79 -66.5t-175 -17.5h-877l84 252q37 111 70 152q22 26 57 47q49 28 181 30l96 3h780z" />
    <glyph glyph-name="gaffinalarabic" unicode="&#x6af;" horiz-adv-x="1626" arabic-form="final" 
d="M1276 59l-27 -59l-1005 2q-33 0 -76 25q-96 55 -96 194q0 154 102 305q-20 -67 -20 -145q0 -125 77 -168q39 -20 160 -20h723l-301 204l-29 -41l-104 68q-35 22 -35 51q0 14 14 51l13 31l55 121l684 203l-78 -174l-465 -150l418 -283q45 -30 45 -71v-10h301v-193h-291z
M1528 1139l-78 -172l-692 -205l76 176z" />
    <glyph glyph-name="sheenmedialarabic" unicode="&#x634;" horiz-adv-x="1640" arabic-form="medial" 
d="M1108 780l-102 -90l-78 72l-84 -72l-123 119l100 88l76 -70l84 70zM997 1014l-100 -88l-127 114l100 95zM1411 193h236v-193h-240l-43 74l-35 -74h-280l-31 74l-57 -74h-361l-31 74l-59 -74h-535v193h539l-102 229l96 127l168 -356h287l-103 229l98 127l166 -356h183v8
q0 12 -7 47q-14 84 -69 162l106 145q95 -111 95 -238q0 -47 -21 -124z" />
    <glyph glyph-name="sadmedialarabic" unicode="&#x635;" horiz-adv-x="1647" arabic-form="medial" 
d="M436 193l420 268l96 59q113 70 176 70q86 0 189 -105q92 -94 92 -213q0 -45 -10 -79h252v-193h-1319l-19 66l-57 -66h-281v193h304l-37 129l125 112zM1300 193q-24 102 -97 175.5t-150 73.5q-11 0 -31 -4q-39 -12 -133 -69l-283 -176h694z" />
    <glyph glyph-name="dadmedialarabic" unicode="&#x636;" horiz-adv-x="1647" arabic-form="medial" 
d="M895 717l-98 -90l-129 116l102 93zM436 193l420 268l96 59q113 70 176 70q86 0 189 -105q92 -94 92 -213q0 -45 -10 -79h252v-193h-1319l-19 66l-57 -66h-281v193h304l-37 129l125 112zM1300 193q-24 102 -97 175.5t-150 73.5q-11 0 -31 -4q-39 -12 -133 -69l-283 -176
h694z" />
    <glyph glyph-name="tahmedialarabic" unicode="&#x637;" horiz-adv-x="1430" arabic-form="medial" 
d="M1190 193h244v-193h-1459v193h246l101 63l-54 623q-49 16 -49 47q0 20 23 55l82 127q2 -47 18 -62.5t86 -46.5l94 -41l-65 -151l-41 14l22 -270q2 -25 2 -64q0 -94 -32 -174l108 68l70 45l106 68q152 96 217 96q45 0 103 -33q82 -47 140 -129t58 -152q0 -32 -20 -83z
M1085 193q-24 100 -97 174.5t-146 74.5q-15 0 -35 -4q-74 -24 -217 -119l-66 -43l-135 -83h696z" />
    <glyph glyph-name="zahmedialarabic" unicode="&#x638;" horiz-adv-x="1430" arabic-form="medial" 
d="M872 801l-100 -88l-127 116l100 93zM1190 193h244v-193h-1459v193h246l101 63l-54 623q-49 16 -49 47q0 20 23 55l82 127q2 -47 18 -62.5t86 -46.5l94 -41l-65 -151l-41 14l22 -270q2 -25 2 -64q0 -94 -32 -174l108 68l70 45l106 68q152 96 217 96q45 0 103 -33
q82 -47 140 -129t58 -152q0 -32 -20 -83zM1085 193q-24 100 -97 174.5t-146 74.5q-15 0 -35 -4q-74 -24 -217 -119l-66 -43l-135 -83h696z" />
    <glyph glyph-name="ainmedialarabic" unicode="&#x639;" horiz-adv-x="1020" arabic-form="medial" 
d="M1024 193v-193h-481l-31 66l-55 -66h-482v193h482q-51 217 -232 229l92 199q156 43 269 43q211 0 211 -166q0 -41 -13 -74q-28 -76 -127 -207l-18 -24h385zM606 352q43 51 43 80q0 41 -61 41q-21 0 -70 -8q37 -21 58.5 -49.5t29.5 -63.5z" />
    <glyph glyph-name="ghainmedialarabic" unicode="&#x63a;" horiz-adv-x="1020" arabic-form="medial" 
d="M627 913l-101 -90l-127 117l101 92zM1024 193v-193h-481l-31 66l-55 -66h-482v193h482q-51 217 -232 229l92 199q156 43 269 43q211 0 211 -166q0 -41 -13 -74q-28 -76 -127 -207l-18 -24h385zM606 352q43 51 43 80q0 41 -61 41q-21 0 -70 -8q37 -21 58.5 -49.5
t29.5 -63.5z" />
    <glyph glyph-name="fehmedialarabic" unicode="&#x641;" horiz-adv-x="987" arabic-form="medial" 
d="M393 0h-418v193h277q-4 8 -4 20q0 47 59 133q193 279 311 279q62 0 105 -54.5t43 -134.5q0 -108 -82 -243h309v-193h-465l-75 47zM670 877l-99 -89l-129 117l103 92zM625 270q10 31 10 68q0 106 -66 106q-37 0 -90 -52t-76 -99l93 -72q16 -12 22 -12q2 2 10 4l9 4z" />
    <glyph glyph-name="qafmedialarabic" unicode="&#x642;" horiz-adv-x="987" arabic-form="medial" 
d="M393 0h-418v193h277q-4 8 -4 20q0 45 59 133q189 279 311 279q62 0 105 -54.5t43 -134.5q0 -110 -82 -243h309v-193h-465l-77 47zM735 862l-102 -90l-80 72l-82 -72l-125 119l103 88l75 -70l84 70zM625 270q10 31 10 68q0 106 -66 106q-37 0 -90 -52t-76 -99l93 -72
q16 -12 22 -12q4 2 19 8z" />
    <glyph glyph-name="kafmedialarabic" unicode="&#x643;" horiz-adv-x="1196" arabic-form="medial" 
d="M-25 0v193h750l-334 370l-29 -33l-96 91q-20 18 -20 41q0 16 12 43l10 22l78 174l698 195l-81 -176l-537 -158l426 -467q55 -62 55 -92q0 -6 -2 -10h295v-193h-315l-51 59l-37 -59h-822z" />
    <glyph glyph-name="lammedialarabic" unicode="&#x644;" horiz-adv-x="608" arabic-form="medial" 
d="M377 1100v-867q0 -40 51 -40h184v-193h-307q-74 0 -86 59l-43 -59h-201l5 193h239v739z" />
    <glyph glyph-name="meemmedialarabic" unicode="&#x645;" horiz-adv-x="1030" arabic-form="medial" 
d="M1034 193v-193h-260l-74 -150l-436 250l-65 -100h-224v193h269q57 165 172.5 257.5t267.5 92.5q80 0 107 -41q12 -19 12 -103v-206h231zM692 74v237q0 68 -84 68q-137 0 -223 -127z" />
    <glyph glyph-name="noonmedialarabic" unicode="&#x646;" horiz-adv-x="651" arabic-form="medial" 
d="M365 449l73 -256h219v-193h-313l-20 63l-54 -63h-295v193h312l-41 139zM426 686l-100 -90l-127 117l100 92z" />
    <glyph glyph-name="hehmedialarabic" unicode="&#x647;" horiz-adv-x="1094" arabic-form="medial" 
d="M1098 193v-193h-219q-2 -8 -45 -127l-19 -47q-22 -57 -31 -74q-26 -61 -61 -92q-102 -92 -260 -92q-135 0 -215 71.5t-80 194.5q0 68 31 166h-224v193h306q18 30 69 106q84 125 240 317l112 140q68 -88 115 -176q51 -95 51 -156q0 -70 -120 -231h350zM399 193h129
q78 0 129 53q72 73 72 131q0 53 -67 158l-41 -50q-48 -55 -142 -180zM727 -154q-41 60 -78 93q-67 61 -211 61h-116q-29 -59 -29 -100q0 -60 62.5 -105t144.5 -45q100 0 227 96z" />
    <glyph glyph-name="yehmedialarabic" unicode="&#x64a;" horiz-adv-x="651" arabic-form="medial" 
d="M365 449l73 -256h219v-193h-313l-20 63l-54 -63h-295v193h312l-41 139zM137 -254l105 90l77 -72l82 72l125 -119l-100 -88l-78 72l-84 -72z" />
    <glyph glyph-name="alefmaddaabovefinalarabic" unicode="&#x622;" horiz-adv-x="487" arabic-form="final" 
d="M-92 1200l53 64q70 82 111 82q28 0 113 -41t112 -41q22 0 65 22l64 37l-76 -84q-57 -55 -96 -55q-35 0 -115 40t-100 40q-14 0 -131 -64zM494 0h-312q-24 0 -51 11.5t-29 60.5l-2 39v825l156 164v-826q0 -49 8 -65t66 -16h164v-193z" />
    <glyph glyph-name="alefhamzaabovefinalarabic" unicode="&#x623;" horiz-adv-x="487" arabic-form="final" 
d="M256 1208l-37 -94q-55 -8 -108 -29q-74 -28 -129 -96q10 74 59 129q-76 17 -76 88q0 58 64 133q51 62 139 62q51 0 51 -37q0 -27 -26 -68q-27 9 -48 9q-75 0 -122 -60q59 -55 149 -55q29 0 84 18zM494 0h-312q-24 0 -51 11.5t-29 60.5l-2 39v825l156 164v-826
q0 -49 8 -65t66 -16h164v-193z" />
    <glyph glyph-name="wawhamzaabovefinalarabic" unicode="&#x624;" horiz-adv-x="774" arabic-form="final" 
d="M408 801l-37 -94q-150 -21 -238 -123q14 75 62 127q-78 16 -78 90q0 55 55 119q66 73 147 73q52 0 52 -35q0 -30 -27 -69q-25 8 -45 8q-76 0 -123 -59q60 -54 148 -54q34 0 84 17zM549 193h231v-193h-239q-17 -92 -68 -188q-113 -215 -227 -215q-80 0 -230 194
q74 -27 131 -27q93 0 170.5 63.5t118.5 172.5h-139q-74 0 -100 4q-54 8 -89.5 50t-35.5 98q0 84 45 183t114 173q41 43 93 43q73 0 140.5 -106.5t84.5 -251.5zM422 193q-23 188 -113 188q-39 0 -72.5 -41t-33.5 -86q0 -61 76 -61h143z" />
    <glyph glyph-name="alefhamzabelowfinalarabic" unicode="&#x625;" horiz-adv-x="487" arabic-form="final" 
d="M258 -369l-37 -94q-65 -12 -106 -29q-74 -30 -129 -96q10 76 59 129q-76 17 -76 88q0 58 64 133q51 62 137 62q53 0 53 -37q0 -27 -26 -70q-21 9 -47 9q-78 0 -123 -58q55 -55 149 -55q33 0 82 18zM494 0h-312q-24 0 -51 11.5t-29 60.5l-2 39v825l156 164v-826
q0 -49 8 -65t66 -16h164v-193z" />
    <glyph glyph-name="yehhamzaabovefinalarabic" unicode="&#x626;" horiz-adv-x="1149" arabic-form="final" 
d="M270 520l-37 -96q-147 -18 -235 -123q10 76 59 127q-75 18 -75 90q0 57 63 133q49 60 137 60q51 0 51 -35q0 -29 -24 -70q-21 8 -47 8q-78 0 -123 -57q59 -55 147 -55q31 0 84 18zM1153 193v-193h-248l-14 -31l-55 -119q-45 -90 -74 -143q-232 -170 -436 -170
q-125 0 -204 86t-79 221q0 144 119 400q-37 -148 -37 -244q0 -270 233 -270q70 0 158 35.5t152 91.5q30 26 67 73q-96 74 -272 74h-14l83 189h621z" />
    <glyph glyph-name="aleffinalarabic" unicode="&#x627;" horiz-adv-x="487" arabic-form="final" 
d="M494 0h-312q-24 0 -51 11.5t-29 60.5l-2 39v825l156 164v-826q0 -49 8 -65t66 -16h164v-193z" />
    <glyph glyph-name="behfinalarabic" unicode="&#x628;" horiz-adv-x="1368" arabic-form="final" 
d="M1108 449l74 -256h219v-193h-314l-20 63l-53 -63l-770 2q-33 0 -76 25q-96 55 -96 194q0 154 102 305q-20 -67 -20 -145q0 -125 77 -168q39 -20 160 -20h639l-43 139zM528 -250l99 90l129 -116l-103 -95z" />
    <glyph glyph-name="tehmarbutafinalarabic" unicode="&#x629;" horiz-adv-x="926" arabic-form="final" 
d="M598 709l104 -516h228v-193h-344l-25 115l-61 -88l-443 65l70 213q6 17 16.5 42.5t57.5 49.5l270 148l-10 45zM709 905l-103 -90l-80 72l-82 -72l-125 119l103 88l76 -72l84 72zM494 438l-228 -125q-33 -18 -41 -51l314 -47z" />
    <glyph glyph-name="tehfinalarabic" unicode="&#x62a;" horiz-adv-x="1395" arabic-form="final" 
d="M1108 449l74 -256h219v-193h-314l-20 63l-53 -63l-770 2q-33 0 -76 25q-96 55 -96 194q0 154 102 305q-20 -67 -20 -145q0 -125 77 -168q39 -20 160 -20h639l-43 139zM799 592l-103 -90l-78 71l-83 -71l-123 119l100 88l76 -72l84 72z" />
    <glyph glyph-name="thehfinalarabic" unicode="&#x62b;" horiz-adv-x="1395" arabic-form="final" 
d="M1108 449l74 -256h219v-193h-314l-20 63l-53 -63l-770 2q-33 0 -76 25q-96 55 -96 194q0 154 102 305q-20 -67 -20 -145q0 -125 77 -168q39 -20 160 -20h639l-43 139zM799 592l-103 -90l-78 71l-83 -71l-123 119l100 88l76 -72l84 72zM688 825l-100 -90l-127 117l100 94z
" />
    <glyph glyph-name="jeemfinalarabic" unicode="&#x62c;" horiz-adv-x="1249" arabic-form="final" 
d="M659 -14l-98 -90l-129 116l103 92zM735 430h-4q-221 -43 -377.5 -188.5t-156.5 -309.5q0 -151 136 -244.5t353 -93.5q168 0 320 39q-99 -79 -142 -129q-26 -30 -40.5 -44.5t-28.5 -22.5q-52 -29 -213 -29q-199 0 -318 70q-88 53 -140 151.5t-52 216.5q0 340 329 603l5 4
h-7l-26 8q-51 10 -99 10q-98 0 -182 -41l51 113q47 102 146 102q30 0 82 -4l102 -8q180 -15 342 -15q129 0 223 13l-98 -180l-57 -2l-27 -3h-6l68 -176q20 -53 37.5 -65t74.5 -12h225v-193h-272q-84 0 -121 31.5t-57 120.5l-10 45z" />
    <glyph glyph-name="hahfinalarabic" unicode="&#x62d;" horiz-adv-x="1249" arabic-form="final" 
d="M735 430h-4q-221 -43 -377.5 -188.5t-156.5 -309.5q0 -151 136 -244.5t353 -93.5q168 0 320 39q-99 -79 -142 -129q-26 -30 -40.5 -44.5t-28.5 -22.5q-52 -29 -213 -29q-199 0 -318 70q-88 53 -140 151.5t-52 216.5q0 340 329 603l5 4h-7l-26 8q-51 10 -99 10
q-98 0 -182 -41l51 113q47 102 146 102q30 0 82 -4l102 -8q180 -15 342 -15q129 0 223 13l-98 -180l-57 -2l-27 -3h-6l68 -176q20 -53 37.5 -65t74.5 -12h225v-193h-272q-84 0 -121 31.5t-57 120.5l-10 45z" />
    <glyph glyph-name="khahfinalarabic" unicode="&#x62e;" horiz-adv-x="1249" arabic-form="final" 
d="M664 877l-101 -89l-127 117l101 92zM735 430h-4q-221 -43 -377.5 -188.5t-156.5 -309.5q0 -151 136 -244.5t353 -93.5q168 0 320 39q-99 -79 -142 -129q-26 -30 -40.5 -44.5t-28.5 -22.5q-52 -29 -213 -29q-199 0 -318 70q-88 53 -140 151.5t-52 216.5q0 340 329 603l5 4
h-7l-26 8q-51 10 -99 10q-98 0 -182 -41l51 113q47 102 146 102q30 0 82 -4l102 -8q180 -15 342 -15q129 0 223 13l-98 -180l-57 -2l-27 -3h-6l68 -176q20 -53 37.5 -65t74.5 -12h225v-193h-272q-84 0 -121 31.5t-57 120.5l-10 45z" />
    <glyph glyph-name="dalfinalarabic" unicode="&#x62f;" horiz-adv-x="913" arabic-form="final" 
d="M918 193v-193h-285l-35 66l-47 -66h-361q-75 0 -102 14q-39 21 -39 76q0 41 25 109l26 61q13 -41 38.5 -54t92.5 -13h295l-174 303l86 147l262 -450h218z" />
    <glyph glyph-name="thalfinalarabic" unicode="&#x630;" horiz-adv-x="913" arabic-form="final" 
d="M524 903l-98 -90l-129 117l102 92zM918 193v-193h-285l-35 66l-47 -66h-361q-75 0 -102 14q-39 21 -39 76q0 41 25 109l26 61q13 -41 38.5 -54t92.5 -13h295l-174 303l86 147l262 -450h218z" />
    <glyph glyph-name="rehfinalarabic" unicode="&#x631;" horiz-adv-x="618" arabic-form="final" 
d="M393 193h230v-193h-232q-35 -154 -128 -277.5t-177 -123.5q-76 0 -180 135l-35 45q-4 4 -14 20q69 -30 139 -30q92 0 177 75.5t138 202.5q-18 59 -55 125q-31 55 -76 113l109 127q78 -105 104 -219z" />
    <glyph glyph-name="zainfinalarabic" unicode="&#x632;" horiz-adv-x="618" arabic-form="final" 
d="M324 645l-99 -90l-129 117l103 94zM393 193h230v-193h-232q-35 -154 -128 -277.5t-177 -123.5q-76 0 -180 135l-35 45q-4 4 -14 20q69 -30 139 -30q92 0 177 75.5t138 202.5q-18 59 -55 125q-31 55 -76 113l109 127q78 -105 104 -219z" />
    <glyph glyph-name="seenfinalarabic" unicode="&#x633;" horiz-adv-x="1755" arabic-form="final" 
d="M1524 193h237v-193h-241l-43 74l-33 -74h-283l-31 74l-57 -74h-287v-4l-71 -227l-13 -25q-198 -135 -374 -135q-121 0 -203 85t-82 212q0 104 61 280q29 84 62 144l-8 -33q-31 -123 -31 -231q0 -269 215 -269q84 0 180 41t162 103q-4 120 -35 206q-26 76 -90 185l109 127
q49 -74 75 -144q23 -59 37 -122h295l-102 229l98 127l166 -356h182q-2 114 -76 217l107 145q94 -111 94 -231q0 -62 -20 -131z" />
    <glyph glyph-name="sheenfinalarabic" unicode="&#x634;" horiz-adv-x="1755" arabic-form="final" 
d="M1221 780l-103 -90l-78 72l-84 -72l-122 119l100 88l76 -70l84 70zM1110 1014l-100 -88l-127 114l100 95zM1524 193h237v-193h-241l-43 74l-33 -74h-283l-31 74l-57 -74h-287v-4l-71 -227l-13 -25q-198 -135 -374 -135q-121 0 -203 85t-82 212q0 104 61 280q29 84 62 144
l-8 -33q-31 -123 -31 -231q0 -269 215 -269q84 0 180 41t162 103q-4 120 -35 206q-26 76 -90 185l109 127q49 -74 75 -144q23 -59 37 -122h295l-102 229l98 127l166 -356h182q-2 114 -76 217l107 145q94 -111 94 -231q0 -62 -20 -131z" />
    <glyph glyph-name="sadfinalarabic" unicode="&#x635;" horiz-adv-x="1993" arabic-form="final" 
d="M786 0v-8q-26 -133 -84 -248q-198 -135 -374 -135q-123 0 -204 86t-81 213q0 106 61 278q31 88 62 144l-8 -33q-31 -123 -31 -234q0 -266 215 -266q82 0 179 41t163 103v8q2 14 2 33q0 38 -12 92q-27 121 -115 258l109 127q80 -117 114 -266l420 268q37 24 98 59
q115 70 175 70q86 0 190 -105q92 -92 92 -213q0 -36 -12 -79h254v-193h-1213zM1649 193q-27 102 -99.5 175.5t-148.5 73.5q-17 0 -31 -4q-33 -10 -133 -69l-92 -56l-58 -37l-135 -83h697z" />
    <glyph glyph-name="dadfinalarabic" unicode="&#x636;" horiz-adv-x="1993" arabic-form="final" 
d="M1231 717l-101 -90l-129 116l103 93zM786 0v-8q-26 -133 -84 -248q-198 -135 -374 -135q-123 0 -204 86t-81 213q0 106 61 278q31 88 62 144l-8 -33q-31 -123 -31 -234q0 -266 215 -266q82 0 179 41t163 103v8q2 14 2 33q0 38 -12 92q-27 121 -115 258l109 127
q80 -117 114 -266l420 268q37 24 98 59q115 70 175 70q86 0 190 -105q92 -92 92 -213q0 -36 -12 -79h254v-193h-1213zM1649 193q-27 102 -99.5 175.5t-148.5 73.5q-17 0 -31 -4q-33 -10 -133 -69l-92 -56l-58 -37l-135 -83h697z" />
    <glyph glyph-name="tahfinalarabic" unicode="&#x637;" horiz-adv-x="1544" arabic-form="final" 
d="M1303 193h245v-193h-1409l-125 193h320l102 63l-55 623q-49 20 -49 47q0 20 22 55l82 127q4 -47 19.5 -62.5t85.5 -46.5l94 -41l-66 -151l-39 14l21 -270q2 -27 2 -64q0 -94 -33 -174l109 68q110 72 291 178q61 31 102 31q45 0 102 -33q82 -47 140.5 -129t58.5 -152
q0 -36 -20 -83zM1198 193q-22 100 -96 174.5t-148 74.5q-14 0 -34 -4q-74 -24 -218 -119l-65 -43l-133 -83h694z" />
    <glyph glyph-name="zahfinalarabic" unicode="&#x638;" horiz-adv-x="1544" arabic-form="final" 
d="M987 801l-100 -88l-127 116l100 93zM1303 193h245v-193h-1409l-125 193h320l102 63l-55 623q-49 20 -49 47q0 20 22 55l82 127q4 -47 19.5 -62.5t85.5 -46.5l94 -41l-66 -151l-39 14l21 -270q2 -27 2 -64q0 -94 -33 -174l109 68q110 72 291 178q61 31 102 31
q45 0 102 -33q82 -47 140.5 -129t58.5 -152q0 -36 -20 -83zM1198 193q-22 100 -96 174.5t-148 74.5q-14 0 -34 -4q-74 -24 -218 -119l-65 -43l-133 -83h694z" />
    <glyph glyph-name="ainfinalarabic" unicode="&#x639;" horiz-adv-x="918" arabic-form="final" 
d="M922 193v-193h-473l-46 98l-12 -8q-198 -106 -198 -246q0 -110 133 -192q116 -72 323 -72q156 0 344 41q-14 -14 -41 -33q-12 -10 -51 -51l-29.5 -32.5l-33.5 -36.5q-23 -27 -52 -35q-94 -31 -231 -31q-231 0 -357 98.5t-126 278.5q0 260 268 471q-72 158 -221 172
l92 192q16 7 43 15q92 30 221 30q221 0 221 -159q0 -111 -153 -291l4 -16h375zM504 352q43 51 43 80q0 41 -62 41q-16 0 -71 -8q39 -21 59.5 -49.5t30.5 -63.5z" />
    <glyph glyph-name="ghainfinalarabic" unicode="&#x63a;" horiz-adv-x="918" arabic-form="final" 
d="M524 918l-100 -91l-127 117l100 94zM922 193v-193h-473l-46 98l-12 -8q-198 -106 -198 -246q0 -110 133 -192q116 -72 323 -72q156 0 344 41q-14 -14 -41 -33q-12 -10 -51 -51l-29.5 -32.5l-33.5 -36.5q-23 -27 -52 -35q-94 -31 -231 -31q-231 0 -357 98.5t-126 278.5
q0 260 268 471q-72 158 -221 172l92 192q16 7 43 15q92 30 221 30q221 0 221 -159q0 -111 -153 -291l4 -16h375zM504 352q43 51 43 80q0 41 -62 41q-16 0 -71 -8q39 -21 59.5 -49.5t30.5 -63.5z" />
    <glyph glyph-name="fehfinalarabic" unicode="&#x641;" horiz-adv-x="1602" arabic-form="final" 
d="M1008 0h-717q-86 6 -125 29q-94 57 -94 188q0 156 102 307q-20 -82 -20 -143q0 -125 77 -168q37 -20 162 -20h473q-4 8 -4 22q0 45 60 131q192 279 311 279q61 0 105 -54.5t44 -134.5q0 -108 -84 -243h310v-193h-465l-76 47zM1284 877l-98 -89l-129 117l102 92zM1239 270
q10 31 10 68q0 106 -65 106q-37 0 -90.5 -52t-75.5 -99l92 -72q16 -12 23 -12q4 2 18 8z" />
    <glyph glyph-name="qaffinalarabic" unicode="&#x642;" horiz-adv-x="1061" arabic-form="final" 
d="M836 0q-17 -129 -103 -344q-233 -141 -420 -141q-120 0 -195 80.5t-75 209.5q0 97 21.5 174.5t87.5 231.5l-9 -33q-26 -127 -26 -209q0 -272 221 -272q158 0 354 139l4 21q11 49 19 143h-125q-78 0 -119 8q-47 10 -80 52t-33 98q0 145 117 299q70 90 131 90
q78 0 142.5 -99.5t85.5 -250.5v-4h233v-193h-231zM784 788l-102 -90l-78 72l-84 -72l-123 119l101 90l75 -71l84 71zM705 193q-23 188 -113 188q-37 0 -71 -43t-34 -82q0 -63 99 -63h119z" />
    <glyph glyph-name="kaffinalarabic" unicode="&#x643;" horiz-adv-x="1399" arabic-form="final" 
d="M1167 1100l2 -867q0 -40 50 -40h184v-193h-307q-25 0 -43 6q-31 10 -43 53l-37 -59h-651q-60 0 -93 4q-65 8 -111 67.5t-46 137.5q0 102 51 225q14 37 49 90l-4 -22q-12 -68 -12 -119q0 -121 73 -166q41 -24 174 -24h607v739zM731 666l-37 -95q-145 -20 -237 -122
q14 75 59 126q-76 17 -76 91q0 53 66 131q51 61 135 61q53 0 53 -35q0 -28 -26 -69q-25 8 -45 8q-78 0 -125 -60q59 -55 149 -55q35 0 84 19z" />
    <glyph glyph-name="lamfinalarabic" unicode="&#x644;" horiz-adv-x="1055" arabic-form="final" 
d="M807 0l-10 -29l-29 -98q-16 -53 -49 -121q-219 -143 -391 -143q-119 0 -202 84t-83 205q0 165 121 430q-37 -178 -37 -281q0 -115 58.5 -183.5t156.5 -68.5q82 0 177 40t163 104l-8 993l160 168v-907h225v-193h-252z" />
    <glyph glyph-name="meemfinalarabic" unicode="&#x645;" horiz-adv-x="1180" arabic-form="final" 
d="M1186 193v-193h-264l-68 -145l-498 278l13 125q-50 -22 -91.5 -53l-78.5 -60l28 -360q0 -14 2 -29v-18q0 -60 -32 -127q-27 -57 -43 -84l-29 -49l-45 456q-8 78 -8 95q0 43 43 149q53 133 143 191q115 73 371 133q121 28 200 28q72 0 97.5 -26.5t25.5 -104.5v-206h234z
M840 82v203q0 47 -15.5 62t-64.5 15q-150 0 -295 -69z" />
    <glyph glyph-name="noonfinalarabic" unicode="&#x646;" horiz-adv-x="1004" arabic-form="final" 
d="M489 535l-100 -91l-127 117l100 92zM780 193h230v-193h-224q-8 -55 -77 -254q-203 -137 -381 -137q-121 0 -203 84t-82 209q0 104 61 280q21 58 60 146q-37 -176 -37 -277q0 -119 58.5 -187.5t160.5 -68.5q76 0 172 42t164 102q-6 114 -31 200q-22 80 -94 189l111 131
q80 -115 110 -262z" />
    <glyph glyph-name="hehfinalarabic" unicode="&#x647;" horiz-adv-x="926" arabic-form="final" 
d="M598 709l104 -516h228v-193h-344l-25 115l-61 -88l-443 65l70 213q6 17 16.5 42.5t57.5 49.5l270 148l-10 45zM494 438l-228 -125q-33 -18 -41 -51l314 -47z" />
    <glyph glyph-name="wawfinalarabic" unicode="&#x648;" horiz-adv-x="774" arabic-form="final" 
d="M549 193h231v-193h-239q-17 -92 -68 -188q-113 -215 -227 -215q-80 0 -230 194q74 -27 131 -27q93 0 170.5 63.5t118.5 172.5h-139q-74 0 -100 4q-54 8 -89.5 50t-35.5 98q0 84 45 183t114 173q41 43 93 43q73 0 140.5 -106.5t84.5 -251.5zM422 193q-23 188 -113 188
q-39 0 -72.5 -41t-33.5 -86q0 -61 76 -61h143z" />
    <glyph glyph-name="alefmaksurafinalarabic" unicode="&#x649;" horiz-adv-x="1149" arabic-form="final" 
d="M1153 193v-193h-248l-14 -31l-55 -119q-45 -90 -74 -143q-232 -170 -436 -170q-125 0 -204 86t-79 221q0 144 119 400q-37 -148 -37 -244q0 -270 233 -270q70 0 158 35.5t152 91.5q30 26 67 73q-96 74 -272 74h-14l83 189h621z" />
    <glyph glyph-name="yehfinalarabic" unicode="&#x64a;" horiz-adv-x="1149" arabic-form="final" 
d="M190 -604l103 90l78 -72l84 72l125 -119l-103 -90l-76 72l-84 -72zM1153 193v-193h-248l-14 -31l-55 -119q-45 -90 -74 -143q-232 -170 -436 -158q-125 0 -204 86t-79 222q0 143 119 399q-37 -147 -37 -244q0 -270 233 -270q70 0 158 29.5t152 85.5q30 26 67 73
q-96 74 -272 74h-14l83 189h621z" />
    <glyph glyph-name="yehhamzaaboveinitialarabic" unicode="&#x626;" horiz-adv-x="485" arabic-form="initial" 
d="M-25 193h328q-6 118 -76 217l107 145q94 -113 94 -236q0 -75 -43 -192q-12 -37 -49 -127h-361v193zM424 842l-37 -94q-147 -21 -235 -123q10 71 59 127q-76 16 -76 90q0 55 64 131q51 61 137 61q53 0 53 -35q0 -28 -27 -69q-26 8 -47 8q-75 0 -122 -59q59 -54 147 -54
q37 0 84 17z" />
    <glyph glyph-name="dadinitialarabic" unicode="&#x636;" horiz-adv-x="1452" arabic-form="initial" 
d="M891 717l-100 -90l-127 116l100 93zM1325 0h-993l-19 66l-59 -66h-279v193h304l-37 129l123 112l71 -241l420 268q37 24 98 59q115 70 174 70q86 0 191 -105q92 -92 92 -213q0 -47 -72 -237l-6 -17zM1303 193q-27 102 -100 175.5t-148 73.5q-17 0 -31 -4
q-33 -10 -133 -69l-92 -56l-58 -37l-135 -83h697z" />
    <glyph glyph-name="farsiyehmedial" unicode="&#x6cc;" horiz-adv-x="651" arabic-form="medial" 
d="M365 449l73 -256h219v-193h-313l-20 63l-54 -63h-295v193h312l-41 139zM129 -258l102 90l80 -72l82 72l125 -119l-102 -88l-76 70l-84 -70z" />
    <glyph glyph-name="gafmedialarabic" unicode="&#x6af;" horiz-adv-x="1210" arabic-form="medial" 
d="M868 63l-28 -63h-865v193h730l-302 204l-28 -41l-103 68q-36 25 -36 51q0 21 14 51l14 31l55 121l682 203l-77 -174l-465 -150l420 -283q45 -28 45 -69q0 -8 -2 -12h295v-193h-277zM1118 1139l-76 -172l-694 -205l78 176z" />
    <glyph glyph-name="sadinitialarabic" unicode="&#x635;" horiz-adv-x="1452" arabic-form="initial" 
d="M1325 0h-993l-19 66l-59 -66h-279v193h304l-37 129l123 112l71 -241l420 268q37 24 98 59q115 70 174 70q86 0 191 -105q92 -92 92 -213q0 -47 -72 -237l-6 -17zM1303 193q-27 102 -100 175.5t-148 73.5q-17 0 -31 -4q-33 -10 -133 -69l-92 -56l-58 -37l-135 -83h697z
" />
    <glyph glyph-name="pehinitialarabic" unicode="&#x67e;" horiz-adv-x="485" arabic-form="initial" 
d="M-25 193h328q-2 116 -76 217l107 145q94 -113 94 -236q0 -71 -43 -192q-12 -37 -49 -127h-361v193zM20 -258l105 90l78 -72l82 72l125 -119l-101 -88l-78 70l-84 -70zM133 -492l100 91l127 -117l-100 -94z" />
    <glyph glyph-name="tchehinitialarabic" unicode="&#x686;" horiz-adv-x="1122" arabic-form="initial" 
d="M387 -223l102 92l80 -72l82 72l125 -121l-102 -88l-76 72l-84 -72zM498 -457l100 90l127 -116l-100 -92zM1108 315l-104 -165q-91 18 -152 18q-170 0 -289 -111q-37 -34 -53 -41.5t-61 -7.5h-474v193h541q45 37 96 55q-90 72 -188 121t-158 49q-10 0 -39 -6l64 63
q71 72 133 72q47 0 135 -47q186 -100 338 -152q86 -30 188 -39z" />
    <glyph glyph-name="hehinitialaltonearabic" unicode="&#x6c1;" horiz-adv-x="485" arabic-form="initial" 
d="M262 0l-74 -113q-30 -47 -30 -65q0 -58 131 -105l-86 -133q-197 94 -197 168q0 31 43 98l96 150h-170v193h328q-2 116 -76 217l107 145q94 -113 94 -236q0 -71 -43 -192q-12 -37 -49 -127h-74z" />
    <glyph glyph-name="vehinitialarabic" unicode="&#x6a4;" horiz-adv-x="760" arabic-form="initial" 
d="M616 0h-641v193h617q4 36 4 81q0 23 -2 39l-53 -67h-119q-72 0 -98 4q-43 6 -70 46t-27 93q0 94 60 193q94 153 190 153q31 0 53 -14q76 -49 124 -155.5t48 -225.5q0 -111 -79 -324zM627 981l-103 -90l-78 72l-84 -72l-124 121l102 88l76 -72l84 72zM516 1217l-100 -91
l-127 117l100 92zM580 424q-5 63 -38.5 112.5t-74.5 49.5q-35 0 -70 -35t-35 -72q0 -55 99 -55h119z" />
    <glyph glyph-name="gafinitialarabic" unicode="&#x6af;" horiz-adv-x="1073" arabic-form="initial" 
d="M1001 881l-77 -174l-465 -150l420 -283q45 -28 45 -69q0 -12 -13 -43l-12 -31l-59 -131h-865v193h730l-302 204l-28 -41l-103 68q-36 25 -36 51q0 21 14 51l14 31l55 121zM1118 1139l-76 -172l-694 -205l78 176z" />
    <glyph glyph-name="noonghunnafinalarabic" unicode="&#x6ba;" horiz-adv-x="1004" arabic-form="final" 
d="M780 193h230v-193h-224q-8 -55 -77 -254q-203 -137 -381 -137q-121 0 -203 84t-82 209q0 104 61 280q21 58 60 146q-37 -176 -37 -277q0 -119 58.5 -187.5t160.5 -68.5q76 0 172 42t164 102q-6 114 -31 200q-22 80 -94 189l111 131q80 -115 110 -262z" />
    <glyph glyph-name="pehmedialarabic" unicode="&#x67e;" horiz-adv-x="651" arabic-form="medial" 
d="M365 449l73 -256h219v-193h-313l-20 63l-54 -63h-295v193h312l-41 139zM129 -258l102 90l80 -72l82 72l125 -119l-102 -88l-76 70l-84 -70zM240 -492l100 91l127 -117l-100 -94z" />
    <glyph glyph-name="ttehmedialarabic" unicode="&#x679;" horiz-adv-x="575" arabic-form="medial" 
d="M260 776l66 43q71 47 112 47q56 0 88 -43q54 -71 54 -116q0 -17 -39 -80l-23 -37h-416l-98 94h119l47 35v305q-20 18 -20 31q0 14 28 47l55 63q0 -18 12.5 -38.5t37.5 -43.5l59 -51l-70 -86l-12 10v-180zM350 449l74 -256h156v-193h-250l-21 63l-53 -63h-281v193h297
l-43 139zM479 684q-20 86 -69 86q-19 0 -66 -33l-78 -53h213z" />
    <glyph glyph-name="tchehmedialarabic" unicode="&#x686;" horiz-adv-x="1311" arabic-form="medial" 
d="M373 -229l102 90l80 -72l82 72l125 -119l-103 -88l-75 70l-84 -70zM483 -463l101 90l127 -116l-101 -95zM1108 307l-59 -92l-23 2q6 -24 51 -24h240v-193h-270q-74 0 -105 12q-49 21 -68 99q0 8 -4 18l-8 31h-4q-176 0 -295 -111q-37 -35 -53 -42t-61 -7h-474v193h541
q45 36 96 55q-90 74 -188 122t-158 48q-10 0 -39 -6l64 63q71 72 133 72q45 0 135 -47q217 -115 338 -152q113 -35 211 -41z" />
    <glyph glyph-name="hehmedialaltonearabic" unicode="&#x6c1;" horiz-adv-x="883" arabic-form="medial" 
d="M887 193v-193h-144q-47 0 -62 -6t-44 -43q-8 -12 -33 -43l-442 -570q-29 -36 -35 -36q-10 0 -10 12q2 12 2 14l10 62l104 645q-18 -25 -25 -28t-54 -5l-39 -2h-140v193h320q72 0 102.5 18t63.5 82l-115 -477l154 270q30 55 50.5 78.5t74.5 25.5l37 3h225z" />
    <glyph glyph-name="noonghunnaarabic" unicode="&#x6ba;" horiz-adv-x="850" arabic-form="isolated" 
d="M668 459q125 -183 125 -389q0 -105 -84 -324q-203 -137 -381 -137q-121 0 -203 84t-82 209q0 104 61 280q21 58 60 146q-37 -176 -37 -277q0 -119 58.5 -187.5t160.5 -68.5q76 0 172 42t164 102q-6 114 -31 200q-22 80 -94 189z" />
    <glyph glyph-name="vehmedialarabic" unicode="&#x6a4;" horiz-adv-x="987" arabic-form="medial" 
d="M393 0h-418v193h277q-4 8 -4 20q0 47 59 133q193 279 311 279q62 0 105 -54.5t43 -134.5q0 -108 -82 -243h309v-193h-465l-75 47zM737 860l-102 -90l-80 72l-82 -72l-125 119l103 88l75 -70l84 70zM627 1094l-101 -90l-129 116l103 94zM625 270q10 31 10 68
q0 106 -66 106q-37 0 -90 -52t-76 -99l93 -72q16 -12 22 -12q2 2 10 4l9 4z" />
    <glyph glyph-name="pehfinalarabic" unicode="&#x67e;" horiz-adv-x="1395" arabic-form="final" 
d="M1108 449l74 -256h219v-193h-314l-20 63l-53 -63l-770 2q-33 0 -76 25q-96 55 -96 194q0 154 102 305q-20 -67 -20 -145q0 -125 77 -168q39 -20 160 -20h639l-43 139zM516 -258l102 90l80 -72l82 72l125 -119l-102 -88l-76 70l-84 -70zM627 -492l100 91l127 -117
l-100 -94z" />
    <glyph glyph-name="ttehfinalarabic" unicode="&#x679;" horiz-adv-x="1395" arabic-form="final" 
d="M1108 449l74 -256h219v-193h-314l-20 63l-53 -63l-770 2q-33 0 -76 25q-96 55 -96 194q0 154 102 305q-20 -67 -20 -145q0 -125 77 -168q39 -20 160 -20h639l-43 139zM602 676l68 43q78 49 112 49q54 0 88 -45q54 -68 54 -117q0 -20 -39 -80l-23 -34h-416l-98 92h119
l47 34v306q-20 18 -20 30q0 13 28 47l53 64q3 -21 13 -37q14 -24 39 -45l59 -51l-70 -86l-14 10v-180zM823 584q-22 86 -69 86q-19 0 -66 -33l-78 -53h213z" />
    <glyph glyph-name="tchehfinalarabic" unicode="&#x686;" horiz-adv-x="1249" arabic-form="final" 
d="M344 61l102 91l78 -72l84 72l123 -119l-100 -90l-76 71l-84 -71zM455 -174l100 90l127 -117l-100 -92zM735 430h-4q-221 -43 -377.5 -188.5t-156.5 -309.5q0 -151 136 -244.5t353 -93.5q168 0 320 39q-99 -79 -142 -129q-26 -30 -40.5 -44.5t-28.5 -22.5
q-52 -29 -213 -29q-199 0 -318 70q-88 53 -140 151.5t-52 216.5q0 340 329 603l5 4h-7l-26 8q-51 10 -99 10q-98 0 -182 -41l51 113q47 102 146 102q30 0 82 -4l102 -8q180 -15 342 -15q129 0 223 13l-98 -180l-57 -2l-27 -3h-6l68 -176q20 -53 37.5 -65t74.5 -12h225v-193
h-272q-84 0 -121 31.5t-57 120.5l-10 45z" />
    <glyph glyph-name="hehfinalaltonearabic" unicode="&#x6c1;" horiz-adv-x="926" arabic-form="final" 
d="M598 709l104 -516h228v-193h-344l-25 115l-61 -88l-443 65l70 213q6 17 16.5 42.5t57.5 49.5l270 148l-10 45zM494 438l-228 -125q-33 -18 -41 -51l314 -47z" />
    <glyph glyph-name="vehfinalarabic" unicode="&#x6a4;" horiz-adv-x="1602" arabic-form="final" 
d="M1008 0l-717 2q-86 4 -125 27q-94 57 -94 188q0 156 102 307q-20 -82 -20 -143q0 -125 77 -168q37 -20 162 -20h473q-4 8 -4 22q0 45 60 131q192 279 311 279q61 0 105 -54.5t44 -134.5q0 -108 -84 -243h310v-193h-465l-76 47zM1386 860l-102 -90l-78 72l-82 -72
l-125 119l101 88l76 -70l86 70zM1276 1094l-100 -90l-127 116l100 94zM1239 270q10 31 10 68q0 106 -65 106q-37 0 -90.5 -52t-75.5 -99l92 -72q16 -12 23 -12q4 2 18 8z" />
    <glyph glyph-name="ddalfinalarabic" unicode="&#x688;" horiz-adv-x="913" arabic-form="final" 
d="M371 981l65 43q72 47 115 47q55 0 88 -43q51 -67 51 -117q0 -20 -37 -80l-22 -36h-416l-98 94h119l47 35v305q-21 18 -21 31q0 12 29 47l53 63q2 -24 12 -37q13 -22 39 -45l60 -51l-70 -86l-14 10v-180zM590 889q-21 86 -70 86q-18 0 -65 -33l-76 -53h211zM918 193v-193
h-285l-35 66l-47 -66h-361q-75 0 -102 14q-39 21 -39 76q0 41 25 109l26 61q13 -41 38.5 -54t92.5 -13h295l-174 303l86 147l262 -450h218z" />
    <glyph glyph-name="rrehfinalarabic" unicode="&#x691;" horiz-adv-x="618" arabic-form="final" 
d="M393 193h230v-193h-232q-35 -154 -128 -277.5t-177 -123.5q-76 0 -180 135l-35 45q-4 4 -14 20q69 -30 139 -30q92 0 177 75.5t138 202.5q-18 59 -55 125q-31 55 -76 113l109 127q78 -105 104 -219zM256 758l66 45q32 22 61 34.5t51 12.5q53 0 88 -45q53 -68 53 -115
q0 -18 -22 -55l-16 -27l-23 -35h-416l-98 95h119l47 34v304q-21 18 -21 32q0 15 29 47l53 62q2 -21 13 -37q14 -25 39 -45l59 -51l-70 -86l-12 12v-182zM475 668q-22 84 -69 84q-21 0 -66 -31l-78 -53h213z" />
    <glyph glyph-name="jehfinalarabic" unicode="&#x698;" horiz-adv-x="618" arabic-form="final" 
d="M442 666l-102 -91l-80 72l-82 -72l-125 121l103 88l75 -71l84 71zM330 901l-99 -90l-129 117l103 92zM393 193h230v-193h-232q-35 -154 -128 -277.5t-177 -123.5q-76 0 -180 135l-35 45q-4 4 -14 20q69 -30 139 -30q92 0 177 75.5t138 202.5q-18 59 -55 125
q-31 55 -76 113l109 127q78 -105 104 -219z" />
    <glyph glyph-name="ttehinitialarabic" unicode="&#x679;" horiz-adv-x="633" arabic-form="initial" 
d="M-25 193h474q-3 118 -76 217l108 145q94 -113 94 -236q0 -65 -45 -192q-12 -37 -47 -127h-508v193zM256 872l66 46q32 22 61 34.5t51 12.5q53 0 88 -45q53 -68 53 -115q0 -23 -38 -82l-23 -35h-416l-98 94h119l47 35v303q-21 19 -21 33t29 47l53 62q2 -21 13 -37
q14 -25 39 -45l59 -52l-70 -86l-12 13v-183zM475 782q-20 84 -69 84q-21 0 -66 -30l-78 -54h213z" />
    <glyph glyph-name="hamzaarabic" unicode="&#x621;" horiz-adv-x="641" arabic-form="isolated" 
d="M590 238l-78 -197q-92 -10 -184 -47q-156 -64 -299 -240v25q0 231 137 311q-92 66 -92 152q0 127 114.5 258t278.5 131q98 0 98 -45q0 -17 -24 -78l-33 -82q-51 14 -82 14q-147 0 -233 -125q102 -100 247 -100q64 0 150 23z" />
    <glyph glyph-name="alefarabic" unicode="&#x627;" horiz-adv-x="389" arabic-form="isolated" 
d="M129 -68q12 158 12 267q0 145 -14 393q-12 203 -27 305l164 203l39 -242l-37 -43l2 -24q19 -222 19 -367t-31 -256q-23 -82 -127 -236z" />
    <glyph glyph-name="beharabic" unicode="&#x628;" horiz-adv-x="1200" arabic-form="isolated" 
d="M618 -160l130 -116l-103 -95l-125 121zM1053 0l-809 2q-33 0 -76 25q-96 55 -96 194q0 156 102 305q-20 -67 -20 -145q0 -127 77 -168q39 -20 160 -20h627q-2 116 -76 217l109 145q94 -117 94 -236q0 -65 -45 -192q-13 -37 -47 -127z" />
    <glyph glyph-name="tehmarbutaarabic" unicode="&#x629;" horiz-adv-x="668" arabic-form="isolated" 
d="M532 0h-313q-14 0 -31 2h-18q-33 4 -51 14q-56 31 -56 136q0 96 97 366q39 111 98 111q74 0 216 -117t142 -219q0 -21 -36 -143l-27 -89zM477 866l-102 -90l-78 72l-84 -72l-123 121l100 88l76 -72l84 72zM489 193q-6 92 -40 145q-54 82 -140 108q-12 5 -22 5
q-35 0 -60 -72q-28 -82 -28 -123q0 -63 88 -63h202z" />
    <glyph glyph-name="teharabic" unicode="&#x62a;" horiz-adv-x="1200" arabic-form="isolated" 
d="M1053 0l-809 2q-33 0 -76 25q-96 55 -96 194q0 156 102 305q-20 -67 -20 -145q0 -127 77 -168q39 -20 160 -20h627q-2 116 -76 217l109 145q94 -117 94 -236q0 -65 -45 -192q-13 -37 -47 -127zM786 590l-102 -90l-78 71l-82 -71l-125 118l101 89l75 -70l87 70z" />
    <glyph glyph-name="theharabic" unicode="&#x62b;" horiz-adv-x="1200" arabic-form="isolated" 
d="M1053 0l-809 2q-33 0 -76 25q-96 55 -96 194q0 156 102 305q-20 -67 -20 -145q0 -127 77 -168q39 -20 160 -20h627q-2 116 -76 217l109 145q94 -117 94 -236q0 -65 -45 -192q-13 -37 -47 -127zM786 590l-102 -90l-78 71l-82 -71l-125 118l101 89l75 -70l87 70zM676 823
l-101 -88l-126 115l100 94z" />
    <glyph glyph-name="jeemarabic" unicode="&#x62c;" horiz-adv-x="1053" arabic-form="isolated" 
d="M659 -14l-98 -90l-129 116l103 92zM1038 631l-98 -180q-123 -2 -217 -23q-225 -47 -375.5 -190.5t-150.5 -307.5q0 -166 170 -264q125 -72 319 -72q168 0 320 39q-99 -79 -142 -129q-26 -30 -40.5 -44.5t-28.5 -22.5q-52 -29 -213 -29q-199 0 -318 70q-88 53 -140 151.5
t-52 216.5q0 340 334 607q-80 18 -134 18q-96 0 -180 -41l51 113q47 102 146 102q30 0 82 -4l102 -8q180 -15 342 -15q127 0 223 13z" />
    <glyph glyph-name="haharabic" unicode="&#x62d;" horiz-adv-x="1053" arabic-form="isolated" 
d="M1038 631l-98 -180q-123 -2 -217 -23q-225 -47 -375.5 -190.5t-150.5 -307.5q0 -166 170 -264q125 -72 319 -72q168 0 320 39q-99 -79 -142 -129q-26 -30 -40.5 -44.5t-28.5 -22.5q-52 -29 -213 -29q-199 0 -318 70q-88 53 -140 151.5t-52 216.5q0 340 334 607
q-80 18 -134 18q-96 0 -180 -41l51 113q47 102 146 102q30 0 82 -4l102 -8q180 -15 342 -15q127 0 223 13z" />
    <glyph glyph-name="khaharabic" unicode="&#x62e;" horiz-adv-x="1053" arabic-form="isolated" 
d="M659 883l-98 -90l-129 116l103 92zM1038 631l-98 -180q-123 -2 -217 -23q-225 -47 -375.5 -190.5t-150.5 -307.5q0 -166 170 -264q125 -72 319 -72q168 0 320 39q-99 -79 -142 -129q-26 -30 -40.5 -44.5t-28.5 -22.5q-52 -29 -213 -29q-199 0 -318 70q-88 53 -140 151.5
t-52 216.5q0 340 334 607q-80 18 -134 18q-96 0 -180 -41l51 113q47 102 146 102q30 0 82 -4l102 -8q180 -15 342 -15q127 0 223 13z" />
    <glyph glyph-name="dalarabic" unicode="&#x62f;" horiz-adv-x="602" arabic-form="isolated" 
d="M293 604q239 -104 239 -301q0 -78 -36 -172l-52 -131h-409l43 193h334q-6 100 -48 157.5t-145 102.5z" />
    <glyph glyph-name="thalarabic" unicode="&#x630;" horiz-adv-x="602" arabic-form="isolated" 
d="M391 858l-98 -90l-129 117l102 92zM293 604q239 -104 239 -301q0 -78 -36 -172l-52 -131h-409l43 193h334q-6 100 -48 157.5t-145 102.5z" />
    <glyph glyph-name="reharabic" unicode="&#x631;" horiz-adv-x="498" arabic-form="isolated" 
d="M289 412q114 -150 114 -301q0 -146 -94 -316q-108 -196 -223 -196q-41 0 -102.5 53t-112.5 127l-14 20q69 -30 139 -30q90 0 177 76.5t138 201.5q-20 66 -55 126t-76 112z" />
    <glyph glyph-name="zainarabic" unicode="&#x632;" horiz-adv-x="498" arabic-form="isolated" 
d="M324 645l-99 -90l-129 117l101 94zM289 412q114 -150 114 -301q0 -146 -94 -316q-108 -196 -223 -196q-41 0 -102.5 53t-112.5 127l-14 20q69 -30 139 -30q90 0 177 76.5t138 201.5q-20 66 -55 126t-76 112z" />
    <glyph glyph-name="seenarabic" unicode="&#x633;" horiz-adv-x="1616" arabic-form="isolated" 
d="M1130 74l-57 -74h-287v-4l-71 -227l-13 -25q-198 -135 -374 -135q-123 0 -204 85t-81 212q0 104 61 280q29 82 62 144q-2 -13 -8 -33q-31 -145 -31 -231q0 -269 215 -269q84 0 181.5 41t160.5 103q-2 110 -35 206q-24 74 -90 185l109 127q49 -70 75 -144q13 -32 37 -122
h295l-102 229l98 127l166 -356h182q-2 114 -76 217l107 145q94 -113 94 -236q0 -75 -43 -192q-12 -37 -49 -127h-291z" />
    <glyph glyph-name="sheenarabic" unicode="&#x634;" horiz-adv-x="1616" arabic-form="isolated" 
d="M1221 780l-103 -90l-78 72l-84 -72l-122 119l100 88l76 -70l84 70zM1110 1014l-100 -88l-127 114l100 95zM1130 74l-57 -74h-287v-4l-71 -227l-13 -25q-198 -135 -374 -135q-123 0 -204 85t-81 212q0 104 61 280q29 82 62 144q-2 -13 -8 -33q-31 -145 -31 -231
q0 -269 215 -269q84 0 181.5 41t160.5 103q-2 110 -35 206q-24 74 -90 185l109 127q49 -70 75 -144q13 -32 37 -122h295l-102 229l98 127l166 -356h182q-2 114 -76 217l107 145q94 -113 94 -236q0 -75 -43 -192q-12 -37 -49 -127h-291z" />
    <glyph glyph-name="sadarabic" unicode="&#x635;" horiz-adv-x="1798" arabic-form="isolated" 
d="M702 -256q-198 -135 -374 -135q-123 0 -204 86t-81 213q0 106 61 278q31 88 62 144l-8 -33q-31 -123 -31 -234q0 -266 215 -266q82 0 179 41t163 103v8q2 14 2 33q0 38 -12 92q-27 121 -115 258l109 127q80 -117 114 -266l420 268q37 24 98 59q115 70 175 70
q86 0 190 -105q92 -92 92 -213q0 -63 -71 -237l-15 -35h-885v-8q-26 -133 -84 -248zM1649 193q-27 102 -99.5 175.5t-148.5 73.5q-17 0 -31 -4q-33 -10 -133 -69l-92 -56l-58 -37l-135 -83h697z" />
    <glyph glyph-name="dadarabic" unicode="&#x636;" horiz-adv-x="1798" arabic-form="isolated" 
d="M1237 717l-100 -90l-127 116l100 93zM702 -256q-198 -135 -374 -135q-123 0 -204 86t-81 213q0 106 61 278q31 88 62 144l-8 -33q-31 -123 -31 -234q0 -266 215 -266q82 0 179 41t163 103v8q2 14 2 33q0 38 -12 92q-27 121 -115 258l109 127q80 -117 114 -266l420 268
q37 24 98 59q115 70 175 70q86 0 190 -105q92 -92 92 -213q0 -63 -71 -237l-15 -35h-885v-8q-26 -133 -84 -248zM1649 193q-27 102 -99.5 175.5t-148.5 73.5q-17 0 -31 -4q-33 -10 -133 -69l-92 -56l-58 -37l-135 -83h697z" />
    <glyph glyph-name="taharabic" unicode="&#x637;" horiz-adv-x="1366" arabic-form="isolated" 
d="M139 0l-125 193h320l102 63l-55 623q-49 16 -49 47q0 20 22 55l82 127q4 -47 19.5 -62.5t85.5 -46.5l94 -41l-66 -151l-39 14l21 -270q2 -27 2 -64q0 -94 -33 -174l109 68l69 45l107 68q151 96 217 96q45 0 102 -33q82 -47 140.5 -129t58.5 -149q0 -37 -27 -105
q-14 -29 -43 -98l-16 -43l-14 -33h-1084zM1198 193q-24 100 -97 174.5t-147 74.5q-14 0 -34 -4q-74 -24 -218 -119l-65 -43l-133 -83h694z" />
    <glyph glyph-name="zaharabic" unicode="&#x638;" horiz-adv-x="1366" arabic-form="isolated" 
d="M985 801l-100 -88l-127 116l100 93zM139 0l-125 193h320l102 63l-55 623q-49 16 -49 47q0 20 22 55l82 127q4 -47 19.5 -62.5t85.5 -46.5l94 -41l-66 -151l-39 14l21 -270q2 -27 2 -64q0 -94 -33 -174l109 68l69 45l107 68q151 96 217 96q45 0 102 -33q82 -47 140.5 -129
t58.5 -149q0 -37 -27 -105q-14 -29 -43 -98l-16 -43l-14 -33h-1084zM1198 193q-24 100 -97 174.5t-147 74.5q-14 0 -34 -4q-74 -24 -218 -119l-65 -43l-133 -83h694z" />
    <glyph glyph-name="ainarabic" unicode="&#x639;" horiz-adv-x="866" arabic-form="isolated" 
d="M817 301l-63 -190h-181q-81 0 -131 -7q-108 -14 -183 -82.5t-75 -156.5q0 -119 145.5 -206t344.5 -87q74 0 155 10q70 8 183 35q-29 -23 -58 -49q-41 -39 -78.5 -81t-64.5 -54q-84 -41 -246 -41q-235 0 -364 105.5t-129 293.5q0 180 116 342q25 35 78 90
q-125 109 -125 203q0 66 56 158q112 186 247 186q164 0 252 -223q-32 20 -49 28q-69 41 -149 41q-160 0 -258 -176q32 -41 73 -75.5t88 -63.5h416z" />
    <glyph glyph-name="ghainarabic" unicode="&#x63a;" horiz-adv-x="866" arabic-form="isolated" 
d="M502 981l-101 -90l-127 117l101 92zM817 301l-63 -190h-181q-81 0 -131 -7q-108 -14 -183 -82.5t-75 -156.5q0 -119 145.5 -206t344.5 -87q74 0 155 10q70 8 183 35q-29 -23 -58 -49q-41 -39 -78.5 -81t-64.5 -54q-84 -41 -246 -41q-235 0 -364 105.5t-129 293.5
q0 180 116 342q25 35 78 90q-125 109 -125 203q0 66 56 158q112 186 247 186q164 0 252 -223q-32 20 -49 28q-69 41 -149 41q-160 0 -258 -176q32 -41 73 -75.5t88 -63.5h416z" />
    <glyph glyph-name="feharabic" unicode="&#x641;" horiz-adv-x="1303" arabic-form="isolated" 
d="M1159 0h-776q-127 0 -168 8q-63 12 -103 69.5t-40 135.5q0 166 104 311q-20 -80 -20 -135q0 -133 77 -176q15 -8 52 -16q57 -4 127 -4h723q6 59 6 83q0 5 -4 37l-54 -67h-118q-74 0 -99 4q-41 6 -68.5 46t-27.5 93q0 92 59 193q93 153 191 153q31 0 53 -14
q76 -49 124 -155.5t48 -225.5q0 -111 -80 -324zM1102 956l-101 -90l-127 117l101 92zM1122 424q-2 63 -36.5 112.5t-75.5 49.5q-31 0 -60 -25q-45 -39 -45 -82q0 -55 99 -55h118z" />
    <glyph glyph-name="qafarabic" unicode="&#x642;" horiz-adv-x="899" arabic-form="isolated" 
d="M152 283l-9 -33q-26 -127 -26 -209q0 -272 221 -272q156 0 354 137l4 22q19 103 19 162v19q-6 -11 -29 -39h-96q-78 0 -119 8q-47 10 -80 53t-33 96q0 148 117 301q70 90 131 90q94 0 165 -137t71 -317q0 -123 -64 -311q-12 -39 -45 -125q-231 -144 -420 -144
q-120 0 -195 81t-75 210q0 96 21.5 174t87.5 234zM784 860l-102 -90l-78 72l-84 -72l-123 119l101 88l75 -72l84 72zM705 262q-23 191 -113 191q-31 0 -64 -35q-41 -45 -41 -90q0 -66 99 -66h119z" />
    <glyph glyph-name="kafarabic" unicode="&#x643;" horiz-adv-x="1245" arabic-form="isolated" 
d="M1057 0h-707q-133 0 -182 27q-96 53 -96 190q0 154 102 309q-20 -82 -20 -139q0 -129 77 -174q35 -20 144 -20h637l-56 679q-49 17 -49 46q0 18 27 63l74 123q6 -47 22 -66q10 -10 55 -30l125 -56l-65 -151l-37 14l29 -397q6 -86 6 -109q0 -67 -43 -190q-10 -29 -33 -88z
M723 666l-35 -95q-149 -20 -237 -122q14 75 59 126q-76 15 -76 89q0 57 64 133q51 61 137 61q53 0 53 -37q0 -24 -26 -67q-27 8 -46 8q-77 0 -124 -60q59 -55 147 -55q37 0 84 19z" />
    <glyph glyph-name="lamarabic" unicode="&#x644;" horiz-adv-x="922" arabic-form="isolated" 
d="M885 954l-66 -153l-35 14l29 -434q6 -84 6 -174q0 -207 -86 -443q-209 -151 -403 -151q-129 0 -208 83t-79 216q0 145 117 405l-10 -45q-25 -108 -25 -206q0 -269 217 -269q168 0 340 144l-2 36q-6 109 -14 304l-17 335l-14 256q-55 19 -55 50q0 16 14 39l14 22l74 117
q2 -37 15.5 -52.5t68.5 -39.5z" />
    <glyph glyph-name="meemarabic" unicode="&#x645;" horiz-adv-x="819" arabic-form="isolated" 
d="M172 199l100 211l64 127q35 57 92 57q45 0 84 -25q55 -34 121 -98q135 -131 135 -240q0 -24 -27 -118l-16 -54l-8 -20l-15 -39h-563l23 -367q2 -39 2 -30q0 -19 -9.5 -45.5t-20.5 -53t-52 -98.5l-27 -47l-22 217q-2 21 -4 51.5t-11 126.5q-4 62 -4 96q0 93 54 211
q63 140 94 140q4 0 10 -2zM279 193h385q-15 51 -43 94q-37 53 -91.5 96t-87.5 43q-26 0 -49 -31q-16 -20 -59 -100z" />
    <glyph glyph-name="noonarabic" unicode="&#x646;" horiz-adv-x="850" arabic-form="isolated" 
d="M481 535l-100 -91l-127 117l100 92zM668 459q125 -183 125 -389q0 -105 -84 -324q-203 -137 -381 -137q-121 0 -203 84t-82 209q0 104 61 280q21 58 60 146q-37 -176 -37 -277q0 -119 58.5 -187.5t160.5 -68.5q76 0 172 42t164 102q-6 114 -31 200q-22 80 -94 189z" />
    <glyph glyph-name="heharabic" unicode="&#x647;" horiz-adv-x="668" arabic-form="isolated" 
d="M532 0h-313q-14 0 -31 2h-18q-33 4 -51 14q-56 31 -56 136q0 96 97 366q39 111 98 111q74 0 216 -117t142 -219q0 -21 -36 -143l-27 -89zM489 193q-6 92 -40 145q-54 82 -140 108q-12 5 -22 5q-35 0 -60 -72q-28 -82 -28 -123q0 -63 88 -63h202z" />
    <glyph glyph-name="wawarabic" unicode="&#x648;" horiz-adv-x="625" arabic-form="isolated" 
d="M436 0h-139q-74 0 -100 4q-54 8 -89.5 50t-35.5 98q0 84 45 183t114 173q41 43 93 43q65 0 127 -86q102 -146 102 -346q0 -230 -152 -418q-84 -104 -155 -104q-80 0 -230 194q74 -27 131 -27q93 0 170.5 63.5t118.5 172.5zM422 193q-23 188 -113 188q-39 0 -72.5 -41
t-33.5 -86q0 -61 76 -61h143z" />
    <glyph glyph-name="alefmaksuraarabic" unicode="&#x649;" horiz-adv-x="1001" arabic-form="isolated" 
d="M578 285l249 -111q84 -37 84 -72q0 -28 -39 -102l-22 -43l-74 -145q-76 -74 -153 -117q-152 -84 -289 -84q-129 0 -210 84t-81 217q0 102 55 256q29 80 64 151l-8 -32q-29 -115 -29 -205q0 -283 225 -283q101 0 217.5 61.5t169.5 141.5l-243 111q-50 22 -62 34.5
t-12 40.5q0 45 47 123q176 291 414 291q86 0 86 -59q0 -11 -25 -84l-18 -56q-54 23 -109 23q-145 0 -237 -141z" />
    <glyph glyph-name="yeharabic" unicode="&#x64a;" horiz-adv-x="1001" arabic-form="isolated" 
d="M197 -528l102 90l80 -72l82 72l125 -119l-103 -88l-75 70l-84 -70zM578 285l249 -111q84 -37 84 -72q0 -28 -39 -102l-96 -188q-76 -74 -153 -117q-152 -84 -289 -84q-129 0 -210 84t-81 217q0 102 55 256q29 80 64 151l-8 -32q-29 -115 -29 -205q0 -283 225 -283
q101 0 217.5 61.5t169.5 141.5l-243 111q-50 22 -62 34.5t-12 40.5q0 45 47 123q176 291 414 291q86 0 86 -59q0 -11 -25 -84l-18 -56q-54 23 -109 23q-145 0 -237 -141z" />
    <glyph glyph-name="fathatanarabic" unicode="&#xfe70;" arabic-form="isolated" 
d="M618 1416l-36 -43q-142 -162 -365 -166q-80 -2 -205 17q142 35 292.5 80t313.5 112zM618 1601l-36 -43q-142 -162 -365 -166q-80 -2 -205 16q142 35 292.5 80t313.5 113z" />
    <glyph glyph-name="dammatanarabic" unicode="&#xfe72;" arabic-form="isolated" 
d="M367 1295l-25 -107l-23 90q-18 -6 -130.5 -33.5l-112.5 -27.5q0 -2 64.5 123t64.5 172q0 18 -15 18q-43 0 -182 -121q27 41 45 66q119 147 197 147q35 0 35 -37q0 -73 -111 -280q33 6 145 51q9 113 61 184.5t122 71.5q59 0 59 -59q0 -39 -18 -105q-25 -76 -54 -92
q-47 -29 -122 -61zM479 1387q17 35 17 74q0 38 -27 38q-31 0 -59.5 -47t-32.5 -106q35 8 102 41z" />
    <glyph glyph-name="kasratanarabic" unicode="&#xfe74;" arabic-form="isolated" 
d="M608 -12q-14 -17 -37 -41q-141 -152 -362 -156q-82 0 -205 16q141 33 290.5 75t313.5 106zM610 -217l-37 -43q-141 -162 -364 -166q-80 -2 -205 16q141 35 291.5 80t314.5 113z" />
    <glyph glyph-name="fathaarabic" unicode="&#xfe76;" arabic-form="isolated" 
d="M618 1412l-36 -43q-142 -162 -365 -166q-80 -2 -205 16q142 35 292.5 80t313.5 113z" />
    <glyph glyph-name="dammaarabic" unicode="&#xfe78;" arabic-form="isolated" 
d="M10 1230q107 54 316 170q6 117 65.5 196t140.5 79q64 0 64 -70q0 -31 -17.5 -92t-34 -92t-165.5 -92q-2 -9 -29 -121l-22 104q-62 -22 -158 -45q-156 -37 -160 -37zM393 1370q4 2 43 20q88 43 88 113q0 26 -30 26q-35 0 -64 -45t-37 -114z" />
    <glyph glyph-name="kasraarabic" unicode="&#xfe7a;" arabic-form="isolated" 
d="M618 -6l-36 -43q-142 -162 -365 -166q-80 -2 -205 16q142 35 292.5 80t313.5 113z" />
    <glyph glyph-name="shaddaarabic" unicode="&#xfe7c;" arabic-form="isolated" 
d="M387 1470q78 -92 78 -164q0 -39 -29 -106h-145l-25 37l-41 -37q-137 0 -162 12q-53 29 -53 96q0 68 47 140q-10 -54 -10 -72q0 -86 100 -86h84l-77 115l45 47l112 -162h99q-15 72 -74 129z" />
    <glyph glyph-name="sukunarabic" unicode="&#xfe7e;" arabic-form="isolated" 
d="M361 1215q-45 -14 -97 -14q-92 0 -92 78q0 82 92 188q76 88 131 88q60 0 60 -84q0 -129 -94 -256zM359 1307q30 62 30 129q0 29 -18 29q-16 0 -55 -39q-60 -59 -60 -88q0 -37 49 -37q21 0 54 6z" />
    <glyph glyph-name="peharabic" unicode="&#x67e;" horiz-adv-x="1200" arabic-form="isolated" 
d="M1053 0l-809 2q-33 0 -76 25q-96 55 -96 194q0 156 102 305q-20 -67 -20 -145q0 -127 77 -168q39 -20 160 -20h627q-2 116 -76 217l109 145q94 -117 94 -236q0 -65 -45 -192q-13 -37 -47 -127zM459 -258l102 90l80 -72l82 72l125 -119l-103 -88l-75 70l-84 -70zM569 -492
l101 91l127 -117l-101 -94z" />
    <glyph glyph-name="tteharabic" unicode="&#x679;" horiz-adv-x="1200" arabic-form="isolated" 
d="M1053 0l-809 2q-33 0 -76 25q-96 55 -96 194q0 156 102 305q-20 -67 -20 -145q0 -127 77 -168q39 -20 160 -20h627q-2 116 -76 217l109 145q94 -117 94 -236q0 -65 -45 -192q-13 -37 -47 -127zM563 715l66 45q67 47 114 47q74 0 119 -96q21 -43 21 -64q0 -18 -23 -55
l-16 -27l-23 -35h-415l-99 95h119l47 34v304q-20 18 -20 32q0 15 28 47l56 62q0 -19 11 -38t38 -44l59 -51l-67 -86l-15 12v-182zM782 625q-20 84 -69 84q-21 0 -66 -31l-78 -53h213z" />
    <glyph glyph-name="tcheharabic" unicode="&#x686;" horiz-adv-x="1053" arabic-form="isolated" 
d="M461 86l102 90l80 -72l82 72l125 -119l-102 -88l-76 70l-84 -70zM571 -147l101 90l129 -117l-103 -94zM1038 631l-98 -180q-123 -2 -217 -23q-225 -47 -375.5 -190.5t-150.5 -307.5q0 -166 170 -264q125 -72 319 -72q168 0 320 39q-99 -79 -142 -129q-26 -30 -40.5 -44.5
t-28.5 -22.5q-52 -29 -213 -29q-199 0 -318 70q-88 53 -140 151.5t-52 216.5q0 340 334 607q-80 18 -134 18q-96 0 -180 -41l51 113q47 102 146 102q30 0 82 -4l102 -8q180 -15 342 -15q127 0 223 13z" />
    <glyph glyph-name="hehaltonearabic" unicode="&#x6c1;" horiz-adv-x="668" arabic-form="isolated" 
d="M532 0h-313q-14 0 -31 2h-18q-33 4 -51 14q-56 31 -56 136q0 96 97 366q39 111 98 111q74 0 216 -117t142 -219q0 -21 -36 -143l-27 -89zM489 193q-6 92 -40 145q-54 82 -140 108q-12 5 -22 5q-35 0 -60 -72q-28 -82 -28 -123q0 -63 88 -63h202z" />
    <glyph glyph-name="veharabic" unicode="&#x6a4;" horiz-adv-x="1303" arabic-form="isolated" 
d="M1159 0h-776q-127 0 -168 8q-63 12 -103 69.5t-40 135.5q0 166 104 311q-20 -80 -20 -135q0 -133 77 -176q15 -8 52 -16q57 -4 127 -4h723q6 59 6 83q0 5 -4 37l-54 -67h-118q-74 0 -99 4q-41 6 -68.5 46t-27.5 93q0 92 59 193q93 153 191 153q31 0 53 -14
q76 -49 124 -155.5t48 -225.5q0 -111 -80 -324zM1174 981l-103 -90l-80 72l-82 -72l-125 121l103 88l76 -72l84 72zM1063 1217l-100 -91l-127 117l100 92zM1122 424q-2 63 -36.5 112.5t-75.5 49.5q-31 0 -60 -25q-45 -39 -45 -82q0 -55 99 -55h118z" />
    <glyph glyph-name="gafarabic" unicode="&#x6af;" horiz-adv-x="1483" arabic-form="isolated" 
d="M1249 0l-1005 2q-33 0 -76 25q-96 55 -96 194q0 154 102 305q-20 -67 -20 -145q0 -125 77 -168q39 -20 160 -20h723l-301 204l-29 -41l-104 68q-35 22 -35 51q0 14 14 51l13 31l55 121l684 203l-78 -174l-465 -150l418 -283q45 -30 45 -69q0 -15 -10 -43l-14 -31z
M1528 1139l-78 -172l-692 -205l76 176z" />
    <glyph glyph-name="ddalarabic" unicode="&#x688;" horiz-adv-x="686" arabic-form="isolated" 
d="M295 930l65 45q31 20 62 33.5t53 13.5q51 0 86 -45q53 -68 53 -115q0 -18 -22 -55l-17 -27l-22 -35h-416l-98 95h119l47 34v304q-21 18 -21 32q0 15 29 47l55 62q0 -19 11.5 -38t37.5 -44l60 -51l-68 -86l-14 12v-182zM514 840q-20 84 -70 84q-20 0 -65 -31l-78 -53h213z
M293 604q239 -104 239 -301q0 -78 -36 -172l-52 -131h-409l43 193h334q-6 100 -48 157.5t-145 102.5z" />
    <glyph glyph-name="rreharabic" unicode="&#x691;" horiz-adv-x="530" arabic-form="isolated" 
d="M119 748l65 43q76 49 113 49q53 0 88 -45q53 -68 53 -117q0 -21 -39 -80l-22 -35h-416l-98 92h119l47 35v305q-21 19 -21 31t29 47l53 64q2 -21 12 -37q15 -25 39 -45l60 -51l-70 -86l-12 10v-180zM338 655q-23 86 -70 86q-18 0 -65 -32l-78 -54h213zM289 412
q114 -150 114 -301q0 -146 -94 -316q-108 -196 -223 -196q-41 0 -102.5 53t-112.5 127l-14 20q69 -30 139 -30q90 0 177 76.5t138 201.5q-20 66 -55 126t-76 112z" />
    <glyph glyph-name="jeharabic" unicode="&#x698;" horiz-adv-x="498" arabic-form="isolated" 
d="M455 666l-105 -91l-78 72l-82 -72l-124 121l100 88l78 -71l84 71zM342 901l-98 -90l-129 117l102 92zM289 412q114 -150 114 -301q0 -146 -94 -316q-108 -196 -223 -196q-41 0 -102.5 53t-112.5 127l-14 20q69 -30 139 -30q90 0 177 76.5t138 201.5q-20 66 -55 126
t-76 112z" />
    <glyph glyph-name="yehbarreearabic" unicode="&#x6d2;" horiz-adv-x="1272" arabic-form="isolated" 
d="M195 193h925q62 0 89.5 2t47.5 16l-120 -131q-43 -47 -74 -62q-39 -18 -129 -18h-920l76 238q35 110 62 149q65 96 235 96h188q97 0 130 9q83 20 139 190q39 121 61 160q17 22 35 22q31 0 104 -102q64 -88 64 -160q0 -51 -27 -158q-22 50 -57 105q-59 92 -84 92
q-6 0 -10 -4q-15 -10 -37 -84q-45 -139 -125 -205q-37 -31 -82 -43q-51 -14 -156 -14h-196q-66 0 -94 -19q-35 -24 -45 -79z" />
    <glyph glyph-name="alefwasla" unicode="&#x671;" horiz-adv-x="401" arabic-form="isolated" 
d="M129 -68q12 158 12 267q0 145 -14 393q-12 203 -27 305l164 203l39 -242l-37 -43l2 -24q19 -222 19 -367t-31 -256q-23 -82 -127 -236zM430 1354q0 -70 -65 -119q-58 -45 -129 -45h-189q-35 0 -35 -49q0 -8 2 -21v-22q-53 55 -53 114q0 37 39 58q33 16 74 16
q71 86 112 119q76 61 150 61q94 0 94 -112zM328 1354q0 43 -37 43q-47 0 -144 -111h78q103 0 103 68z" />
    <glyph glyph-name="keheh" unicode="&#x6a9;" horiz-adv-x="1483" arabic-form="isolated" 
d="M1249 0l-1005 2q-33 0 -76 25q-96 55 -96 194q0 154 102 305q-20 -67 -20 -145q0 -125 77 -168q39 -20 160 -20h723l-301 204l-29 -41l-104 68q-35 22 -35 51q0 14 14 51l13 31l55 121l684 203l-78 -174l-465 -150l418 -283q45 -30 45 -69q0 -15 -10 -43l-14 -31z" />
    <glyph glyph-name="uni06AE.ini" unicode="&#x6ae;" horiz-adv-x="1057" 
d="M1044 1096l-81 -176l-537 -158l424 -467q55 -62 55 -90q0 -17 -14 -43l-21 -39l-63 -123h-832v193h750l-334 370l-31 -33l-71 70q-8 8 -23 21q-20 20 -20 41q0 16 12 43l10 22l78 174zM258 -158l102 90l80 -71l82 71l125 -118l-102 -88l-76 69l-84 -69zM369 -391l100 90
l127 -117l-100 -94z" />
    <glyph glyph-name="uni06AE.med" unicode="&#x6ae;" horiz-adv-x="1196" 
d="M-25 0v193h750l-334 370l-29 -33l-96 91q-20 18 -20 41q0 16 12 43l10 22l78 174l698 195l-81 -176l-537 -158l426 -467q55 -62 55 -92q0 -6 -2 -10h295v-193h-315l-51 59l-37 -59h-822zM328 -168l102 90l80 -72l82 72l125 -119l-103 -88l-75 70l-84 -70zM438 -401
l101 90l127 -117l-101 -94z" />
    <glyph glyph-name="uni06AE.fin" unicode="&#x6ae;" horiz-adv-x="1399" 
d="M1167 1100l2 -867q0 -40 50 -40h184v-193h-307q-25 0 -43 6q-31 10 -43 53l-37 -59h-651q-60 0 -93 4q-65 8 -111 67.5t-46 137.5q0 102 51 225q14 37 49 90l-4 -22q-12 -68 -12 -119q0 -121 73 -166q41 -24 174 -24h607v739zM731 666l-37 -95q-145 -20 -237 -122
q14 75 59 126q-76 17 -76 91q0 53 66 131q51 61 135 61q53 0 53 -35q0 -28 -26 -69q-25 8 -45 8q-78 0 -125 -60q59 -55 149 -55q35 0 84 19zM477 -156l103 90l79 -71l82 71l125 -118l-102 -88l-76 69l-84 -69zM588 -389l100 90l127 -117l-100 -94z" />
    <glyph glyph-name="hehwithyehabove" unicode="&#x6c0;" horiz-adv-x="668" arabic-form="isolated" 
d="M532 0h-313q-14 0 -31 2h-18q-33 4 -51 14q-56 31 -56 136q0 96 97 366q39 111 98 111q74 0 216 -117t142 -219q0 -21 -36 -143l-27 -89zM489 193q-6 92 -40 145q-54 82 -140 108q-12 5 -22 5q-35 0 -60 -72q-28 -82 -28 -123q0 -63 88 -63h202zM496 938l-37 -94
q-146 -21 -238 -123q10 70 60 127q-76 16 -76 88q0 57 63 133q51 61 140 61q51 0 51 -34q0 -27 -27 -70q-24 8 -45 8q-78 0 -125 -59q60 -55 150 -55q30 0 84 18z" />
    <glyph glyph-name="farsiyeh" unicode="&#x6cc;" horiz-adv-x="1001" arabic-form="isolated" 
d="M578 285l249 -111q84 -37 84 -72q0 -28 -39 -102l-22 -43l-74 -145q-76 -74 -153 -117q-152 -84 -289 -84q-129 0 -210 84t-81 217q0 102 55 256q29 80 64 151l-8 -32q-29 -115 -29 -205q0 -283 225 -283q101 0 217.5 61.5t169.5 141.5l-243 111q-50 22 -62 34.5
t-12 40.5q0 45 47 123q176 291 414 291q86 0 86 -59q0 -11 -25 -84l-18 -56q-54 23 -109 23q-145 0 -237 -141z" />
    <glyph glyph-name="uni06A5.ini" unicode="&#x6a5;" horiz-adv-x="760" 
d="M616 0h-641v193h617q4 36 4 81q0 23 -2 39l-53 -67h-119q-72 0 -98 4q-43 6 -70 46t-27 93q0 94 60 193q94 153 190 153q31 0 53 -14q76 -49 124 -155.5t48 -225.5q0 -111 -79 -324zM580 424q-5 63 -38.5 112.5t-74.5 49.5q-35 0 -70 -35t-35 -72q0 -55 99 -55h119z
M168 -205l102 90l80 -71l82 71l125 -118l-102 -89l-76 70l-84 -70zM279 -438l100 90l127 -117l-100 -94z" />
    <glyph glyph-name="uni06A5.med" unicode="&#x6a5;" horiz-adv-x="987" 
d="M393 0h-418v193h277q-4 8 -4 20q0 47 59 133q193 279 311 279q62 0 105 -54.5t43 -134.5q0 -108 -82 -243h309v-193h-465l-75 47zM625 270q10 31 10 68q0 106 -66 106q-37 0 -90 -52t-76 -99l93 -72q16 -12 22 -12q2 2 10 4l9 4zM303 -215l103 90l79 -72l82 72l125 -119
l-102 -88l-76 70l-84 -70zM414 -449l100 91l127 -117l-100 -94z" />
    <glyph glyph-name="uni06A5.fin" unicode="&#x6a5;" horiz-adv-x="1602" 
d="M1008 0l-717 2q-86 4 -125 27q-94 57 -94 188q0 156 102 307q-20 -82 -20 -143q0 -125 77 -168q37 -20 162 -20h473q-4 8 -4 22q0 45 60 131q192 279 311 279q61 0 105 -54.5t44 -134.5q0 -108 -84 -243h310v-193h-465l-76 47zM1239 270q10 31 10 68q0 106 -65 106
q-37 0 -90.5 -52t-75.5 -99l92 -72q16 -12 23 -12q4 2 18 8zM821 -172l103 90l80 -72l81 72l125 -119l-102 -88l-76 70l-84 -70zM932 -406l100 91l127 -117l-100 -94z" />
    <glyph glyph-name="alefwaslafinal" unicode="&#x671;" horiz-adv-x="487" arabic-form="final" 
d="M494 0h-312q-24 0 -51 11.5t-29 60.5l-2 39v825l156 164v-826q0 -49 8 -65t66 -16h164v-193zM473 1333q0 -69 -65 -119q-58 -45 -129 -45h-189q-35 0 -35 -49q0 -8 2 -20v-23q-53 56 -53 115q0 37 39 57q33 17 74 17q71 86 112 118q76 62 150 62q94 0 94 -113zM371 1333
q0 43 -37 43q-47 0 -144 -110h78q103 0 103 67z" />
    <glyph glyph-name="kehekfinal" unicode="&#x6a9;" horiz-adv-x="1626" arabic-form="final" 
d="M1276 59l-27 -59l-1005 2q-33 0 -76 25q-96 55 -96 194q0 154 102 305q-20 -67 -20 -145q0 -125 77 -168q39 -20 160 -20h723l-301 204l-29 -41l-104 68q-35 22 -35 51q0 14 14 51l13 31l55 121l684 203l-78 -174l-465 -150l418 -283q45 -30 45 -71v-10h301v-193h-291z
" />
    <glyph glyph-name="kehehinitial" unicode="&#x6a9;" horiz-adv-x="1073" arabic-form="initial" 
d="M1001 881l-77 -174l-465 -150l420 -283q45 -28 45 -69q0 -12 -13 -43l-12 -31l-59 -131h-865v193h730l-302 204l-28 -41l-103 68q-36 25 -36 51q0 21 14 51l14 31l55 121z" />
    <glyph glyph-name="hehwithyehabovefinal" unicode="&#x6c0;" horiz-adv-x="926" arabic-form="final" 
d="M598 709l104 -516h228v-193h-344l-25 115l-61 -88l-443 65l70 213q6 17 16.5 42.5t57.5 49.5l270 148l-10 45zM494 438l-228 -125q-33 -18 -41 -51l314 -47zM580 940l-37 -94q-146 -21 -238 -123q10 70 60 127q-76 16 -76 88q0 57 63 133q51 62 140 62q51 0 51 -35
q0 -27 -27 -70q-24 8 -45 8q-78 0 -125 -59q60 -55 150 -55q30 0 84 18z" />
    <glyph glyph-name="farsiyehfinal" unicode="&#x6cc;" horiz-adv-x="1149" arabic-form="final" 
d="M1153 193v-193h-248l-14 -31l-55 -119q-45 -90 -74 -143q-232 -170 -436 -170q-125 0 -204 86t-79 221q0 144 119 400q-37 -148 -37 -244q0 -270 233 -270q70 0 158 35.5t152 91.5q30 26 67 73q-96 74 -272 74h-14l83 189h621z" />
    <glyph glyph-name="farsiyehinitial" unicode="&#x6cc;" horiz-adv-x="485" arabic-form="initial" 
d="M-25 193h328q-2 116 -76 217l107 145q94 -111 94 -236q0 -75 -43 -192q-12 -37 -49 -127h-361v193zM59 -254l105 90l78 -72l82 72l125 -119l-101 -88l-78 72l-84 -72z" />
    <glyph glyph-name="uni06A8.ini" unicode="&#x6a8;" horiz-adv-x="760" 
d="M616 0h-641v193h617q4 36 4 81q0 23 -2 39l-53 -67h-119q-72 0 -98 4q-43 6 -70 46t-27 93q0 94 60 193q94 153 190 153q31 0 53 -14q76 -49 124 -155.5t48 -225.5q0 -111 -79 -324zM580 424q-5 63 -38.5 112.5t-74.5 49.5q-35 0 -70 -35t-35 -72q0 -55 99 -55h119z
M616 915l-102 -90l-80 72l-82 -72l-125 121l103 88l76 -71l83 71zM506 1151l-100 -90l-127 117l100 92z" />
    <glyph glyph-name="uni06A8.med" unicode="&#x6a8;" horiz-adv-x="987" 
d="M393 0h-418v193h277q-4 8 -4 20q0 45 59 133q189 279 311 279q62 0 105 -54.5t43 -134.5q0 -110 -82 -243h309v-193h-465l-77 47zM625 270q10 31 10 68q0 106 -66 106q-37 0 -90 -52t-76 -99l93 -72q16 -12 22 -12q4 2 19 8zM776 821l-102 -90l-80 72l-82 -72l-125 121
l102 88l76 -72l84 72zM666 1057l-101 -90l-127 116l101 93z" />
    <glyph glyph-name="uni06A8.fin" unicode="&#x6a8;" horiz-adv-x="1061" 
d="M836 0q-17 -129 -103 -344q-233 -141 -420 -141q-120 0 -195 80.5t-75 209.5q0 97 21.5 174.5t87.5 231.5l-9 -33q-26 -127 -26 -209q0 -272 221 -272q158 0 354 139l4 21q11 49 19 143h-125q-78 0 -119 8q-47 10 -80 52t-33 98q0 145 117 299q70 90 131 90
q78 0 142.5 -99.5t85.5 -250.5v-4h233v-193h-231zM705 193q-23 188 -113 188q-37 0 -71 -43t-34 -82q0 -63 99 -63h119zM748 748l-103 -91l-80 72l-82 -72l-125 121l103 88l76 -71l84 71zM637 983l-100 -90l-127 117l100 92z" />
    <glyph glyph-name="uni06A7.ini" unicode="&#x6a7;" horiz-adv-x="760" 
d="M616 0h-641v193h617q4 36 4 81q0 23 -2 39l-53 -67h-119q-72 0 -98 4q-43 6 -70 46t-27 93q0 94 60 193q94 153 190 153q31 0 53 -14q76 -49 124 -155.5t48 -225.5q0 -111 -79 -324zM580 424q-5 63 -38.5 112.5t-74.5 49.5q-35 0 -70 -35t-35 -72q0 -55 99 -55h119z
M549 958l-100 -90l-127 117l100 92z" />
    <glyph glyph-name="uni06A7.med" unicode="&#x6a7;" horiz-adv-x="987" 
d="M393 0h-418v193h277q-4 8 -4 20q0 45 59 133q189 279 311 279q62 0 105 -54.5t43 -134.5q0 -110 -82 -243h309v-193h-465l-77 47zM625 270q10 31 10 68q0 106 -66 106q-37 0 -90 -52t-76 -99l93 -72q16 -12 22 -12q4 2 19 8zM717 838l-101 -90l-127 116l101 92z" />
    <glyph glyph-name="uni06A7.fin" unicode="&#x6a7;" horiz-adv-x="1061" 
d="M836 0q-17 -129 -103 -344q-233 -141 -420 -141q-120 0 -195 80.5t-75 209.5q0 97 21.5 174.5t87.5 231.5l-9 -33q-26 -127 -26 -209q0 -272 221 -272q158 0 354 139l4 21q11 49 19 143h-125q-78 0 -119 8q-47 10 -80 52t-33 98q0 145 117 299q70 90 131 90
q78 0 142.5 -99.5t85.5 -250.5v-4h233v-193h-231zM705 193q-23 188 -113 188q-37 0 -71 -43t-34 -82q0 -63 99 -63h119zM692 768l-100 -90l-127 117l100 92z" />
    <glyph glyph-name="kehehmedial" unicode="&#x6a9;" horiz-adv-x="1210" arabic-form="medial" 
d="M868 63l-28 -63h-865v193h730l-302 204l-28 -41l-103 68q-36 25 -36 51q0 21 14 51l14 31l55 121l682 203l-77 -174l-465 -150l420 -283q45 -28 45 -69q0 -8 -2 -12h295v-193h-277z" />
    <glyph glyph-name=".notdef" horiz-adv-x="1024" 
d="M129 0v1497h768v-1497h-768zM256 129h512v1241h-512v-1241z" />
    <glyph glyph-name=".null" 
 />
    <glyph glyph-name="nonmarkingreturn" horiz-adv-x="512" 
 />
    <glyph glyph-name="space" unicode=" " horiz-adv-x="412" 
 />
    <glyph glyph-name="uni005C" unicode="\" horiz-adv-x="429" 
d="M156 903l263 -919h-150l-260 919h147z" />
    <glyph glyph-name="uni0021" unicode="!" horiz-adv-x="492" 
d="M327 649l-39 -373h-117l-43 373v326h199v-326zM320 76q0 -35 -22.5 -59.5t-61.5 -24.5q-38 0 -61 24.5t-23 59.5q0 37 23 60.5t61 23.5q39 0 61.5 -23.5t22.5 -60.5z" />
    <glyph glyph-name="uni0022" unicode="&#x22;" horiz-adv-x="724" 
d="M665 942q0 -68 -199 -450h-28q75 199 75 327q0 38 -86 154l164 125q74 -92 74 -156zM313 940q0 -62 -199 -451h-29q76 212 76 328q0 38 -86 154l162 125q76 -88 76 -156z" />
    <glyph glyph-name="uni0023" unicode="#" horiz-adv-x="689" 
d="M643 440h-164l-39 -188h-96l39 188h-152l-37 -188h-94l37 188h-88v92h107l32 156h-139v92h156l41 189h94l-39 -189h151l37 189h97l-41 -189h98v-92h-117l-28 -156h145v-92zM432 688h-150l-30 -156h149z" />
    <glyph glyph-name="uni0024" unicode="$" horiz-adv-x="725" 
d="M691 260q0 -57 -22 -108t-60 -89.5t-89 -61t-109 -22.5v-118h-94v121q-254 32 -282 303l137 25q16 -172 145 -201v320l-66 30q-104 48 -157 112t-52 152q0 55 22 101t60 80t87.5 52.5t105.5 18.5v116h94v-116q227 -33 249 -263l-131 -23q-20 130 -118 153v-281l57 -25
q61 -25 104 -53t69.5 -61t38 -72.5t11.5 -89.5zM317 596v245q-26 0 -49 -8t-40.5 -22.5t-27.5 -34t-10 -44.5q0 -76 92 -120zM544 243q0 93 -89 130l-44 18v-286q133 34 133 138z" />
    <glyph glyph-name="uni0025" unicode="%" horiz-adv-x="1012" 
d="M425 786q0 -53 -11.5 -101t-35 -85t-57.5 -58.5t-79 -21.5q-42 0 -75.5 21.5t-56.5 58.5t-35.5 85t-12.5 101q0 59 14 108t38 84.5t57 55t71 19.5q43 0 77.5 -21t57.5 -57.5t35.5 -85t12.5 -103.5zM767 1053l-410 -1057h-115l414 1057h111zM949 262q0 -59 -13.5 -108
t-37.5 -84t-57.5 -54.5t-73.5 -19.5q-43 0 -77 20.5t-57.5 56.5t-36 84.5t-12.5 104.5q0 59 13.5 108t37.5 83.5t57.5 53.5t74.5 19q39 0 72.5 -20t58 -55.5t38 -83.5t13.5 -105zM316 786q0 175 -74 175q-73 0 -73 -175q0 -174 73 -174q74 0 74 174zM840 262q0 172 -73 172
q-72 0 -72 -172q0 -176 72 -176q73 0 73 176z" />
    <glyph glyph-name="uni0027" unicode="'" horiz-adv-x="261" 
d="M239 914q0 -46 -143 -327h-56q29 85 42.5 145t13.5 98q0 25 -66 109l141 111q68 -86 68 -136z" />
    <glyph glyph-name="uni0028" unicode="(" horiz-adv-x="427" 
d="M249 -141q-170 266 -170 522q0 292 164 522h112q-114 -224 -114 -522q0 -270 119 -522h-111z" />
    <glyph glyph-name="uni0029" unicode=")" horiz-adv-x="438" 
d="M342 381q0 -259 -172 -522h-111q121 246 121 522q0 148 -27.5 277.5t-87.5 244.5h113q164 -236 164 -522z" />
    <glyph glyph-name="uni002A" unicode="*" horiz-adv-x="534" 
d="M493 594q-68 -27 -135 -39q22 -23 44.5 -49.5t49.5 -54.5l-109 -76l-44.5 64l-35.5 53q-16 -35 -36.5 -65t-38.5 -52l-103 76q25 34 47.5 60l40.5 46q-28 6 -64 15.5l-71 19.5l43 123q42 -17 73 -27t52 -20q-2 17 -3 34.5t-1 34.5v68h129q0 -42 -2 -74.5t-6 -62.5
q26 12 59 25.5t70 23.5z" />
    <glyph glyph-name="uni002B" unicode="+" horiz-adv-x="556" 
d="M536 309h-182v-186h-152v186h-184v146h184v186h152v-186h182v-146z" />
    <glyph glyph-name="uni002C" unicode="," horiz-adv-x="371" 
d="M269 74q0 -46 -143 -326h-58q31 87 44.5 147t13.5 95q0 24 -66 110l141 109q68 -86 68 -135z" />
    <glyph glyph-name="uni002D" unicode="-" horiz-adv-x="614" 
d="M493 307h-375v150h375v-150z" />
    <glyph glyph-name="uni002E" unicode="." horiz-adv-x="358" 
d="M245 76q0 -17 -6.5 -32t-18 -26.5t-26.5 -18.5t-33 -7q-84 0 -84 84q0 33 23.5 58.5t60.5 25.5q33 0 58.5 -23.5t25.5 -60.5z" />
    <glyph glyph-name="uni002F" unicode="/" horiz-adv-x="445" 
d="M439 1020l-295 -1040h-139l295 1040h139z" />
    <glyph glyph-name="uni0030" unicode="0" horiz-adv-x="838" 
d="M419 119q97 0 150 96q8 16 15.5 46t14.5 69q8 45 12 90t4 90q0 44 -4 90t-12 91q-7 39 -14.5 69t-15.5 46q-52 96 -150 96q-96 0 -149 -96q-8 -16 -15.5 -46t-14.5 -69q-8 -45 -12 -91t-4 -90q0 -45 4 -90t12 -90q7 -38 14.5 -68.5t15.5 -46.5q27 -45 64.5 -70.5
t84.5 -25.5zM419 -33q-89 0 -157.5 41t-113.5 118q-38 66 -58.5 162.5t-20.5 221.5q0 253 77 386q93 157 273 157q181 0 274 -157q76 -130 76 -386q0 -125 -20 -222t-58 -162q-45 -77 -114 -118t-158 -41z" />
    <glyph glyph-name="uni0031" unicode="1" horiz-adv-x="838" 
d="M612 0h-153v721h-233v127q82 13 131 25.5t68 27.5q36 29 74 152h113v-1053z" />
    <glyph glyph-name="uni0032" unicode="2" horiz-adv-x="838" 
d="M82 668q6 385 372 385q148 0 239 -100q86 -92 86 -217q0 -102 -73 -195q-14 -18 -33 -37t-52 -42.5t-86.5 -54.5t-136.5 -73h1q-21 -11 -46.5 -30t-48.5 -39q-32 -29 -52 -58.5t-25 -53.5h542v-153h-711q6 88 20.5 154t37.5 109q61 110 218 198l153 86q131 75 131 187
q0 101 -80 146q-23 13 -48 20t-50 7h-9q-186 -7 -196 -239h-153z" />
    <glyph glyph-name="uni0033" unicode="3" horiz-adv-x="838" 
d="M213 329q12 -216 170 -216q127 0 188 59q45 45 45 119v10q0 6 -1 12q-7 98 -67 130q-47 25 -214 25v140q148 0 191 26q57 28 57 130q0 79 -55 113q-47 30 -107 30q-184 0 -184 -216h-152q2 176 84.5 269t243.5 93q146 0 234 -72q100 -83 100 -235q0 -112 -108 -199
q75 -38 106.5 -99.5t31.5 -155.5q0 -144 -106 -235h1q-100 -90 -257 -90q-332 0 -353 362h152z" />
    <glyph glyph-name="uni0034" unicode="4" horiz-adv-x="838" 
d="M488 392v393l-279 -393h279zM488 240h-440v157l475 656h118v-661h149v-152h-149v-240h-153v240z" />
    <glyph glyph-name="uni0035" unicode="5" horiz-adv-x="838" 
d="M86 464l85 589h557v-151h-428l-18 -120t-17 -120q31 22 70.5 32t89.5 10q132 0 224 -67q130 -96 130 -301q0 -69 -25.5 -132.5t-73.5 -116.5q-52 -57 -119 -88.5t-143 -31.5q-91 0 -162.5 30t-121.5 88q-37 43 -56.5 91.5t-19.5 101.5v4h157q11 -35 22 -61t22 -40
q48 -62 135 -62q215 0 215 221q0 103 -56 159t-141 56q-104 0 -184 -91h-142z" />
    <glyph glyph-name="uni0036" unicode="6" horiz-adv-x="838" 
d="M230 321q0 -97 63 -155q56 -53 130 -53q89 0 140.5 54t51.5 159q0 196 -190 196q-73 0 -127 -45q-68 -56 -68 -156zM596 756v12q0 58 -39 96q-48 43 -114 43q-123 0 -184 -138q-20 -45 -31.5 -95.5t-13.5 -107.5q32 29 52.5 45t26.5 20q62 38 148 38q138 0 233 -90
q100 -97 100 -252q0 -132 -75 -232q-98 -128 -279 -128q-356 0 -356 507q0 579 401 579q76 0 156 -53q116 -77 134 -244h-159z" />
    <glyph glyph-name="uni0037" unicode="7" horiz-adv-x="838" 
d="M61 902v151h715v-129q-51 -63 -113 -162t-134 -230q-60 -110 -103 -244t-69 -288h-170q25 103 46 177t38 120v-1q18 51 45 110.5t64 128.5v-1q42 81 114 198l45.5 73.5l30.5 50l18.5 30.5l9.5 16h-537z" />
    <glyph glyph-name="uni0038" unicode="8" horiz-adv-x="838" 
d="M529 879q-17 14 -44 21t-65 7q-79 0 -121 -34h1q-46 -40 -46 -101q0 -35 11 -66q32 -86 137 -86q107 0 151 55q29 38 29 88q0 74 -53 115v1zM222 290q3 -73 49 -121q52 -56 148 -56q79 0 137 55t58 124q0 110 -78 158q-50 30 -117 30q-97 0 -152 -56q-22 -26 -33.5 -56.5
t-11.5 -68.5v-9zM210 991q86 62 196 62q134 0 232 -66q102 -67 102 -220q0 -87 -42 -138q-17 -20 -35 -39t-34 -31q44 -23 84 -83l-1 2q32 -35 49 -85.5t17 -118.5t-34.5 -127t-100.5 -110q-94 -70 -240 -70q-150 0 -245 91q-98 92 -98 216q0 127 52 190q11 22 36 44t64 47
q-37 27 -61 51.5t-33 45.5q-22 48 -22 120q0 68 28 122.5t86 96.5z" />
    <glyph glyph-name="uni0039" unicode="9" horiz-adv-x="838" 
d="M608 699q0 97 -63 156q-57 52 -131 52q-87 0 -139.5 -54t-52.5 -158q0 -196 191 -196q35 0 68.5 12t59.5 34q32 26 49.5 65.5t17.5 88.5zM242 265v-8q0 -61 41 -100q46 -44 111 -44q125 0 184 139q20 45 31.5 94t13.5 107q-32 -28 -52 -44t-28 -21q-31 -17 -67 -26.5
t-80 -9.5q-139 0 -233 90q-99 96 -99 252q0 132 75 231q98 128 278 128q356 0 356 -506q0 -580 -400 -580q-76 0 -157 55q-55 38 -90 100t-44 143h160z" />
    <glyph glyph-name="uni003A" unicode=":" horiz-adv-x="364" 
d="M274 616q0 -32 -23.5 -57.5t-62.5 -25.5q-38 0 -62 23.5t-24 59.5q0 39 24 62.5t62 23.5q17 0 32 -6t27.5 -17.5t19.5 -27t7 -35.5zM267 82q0 -35 -23.5 -58.5t-61.5 -23.5q-39 0 -62.5 23.5t-23.5 58.5q0 39 23.5 62.5t62.5 23.5q16 0 31.5 -6t27.5 -17.5t19 -27
t7 -35.5z" />
    <glyph glyph-name="uni003B" unicode=";" horiz-adv-x="395" 
d="M219 489q0 -15 -5.5 -28.5t-16 -24t-24.5 -17t-31 -6.5q-35 0 -56.5 21.5t-21.5 54.5q0 34 21.5 55.5t56.5 21.5q14 0 27.5 -5.5t24.5 -16t18 -24.5t7 -31zM280 74q0 -46 -143 -326h-58q31 87 44.5 147t13.5 95q0 24 -66 110l141 109q68 -86 68 -135z" />
    <glyph glyph-name="uni003C" unicode="&#x3c;" horiz-adv-x="657" 
d="M579 76l-578 248v120l578 244v-153l-371 -150l371 -154v-155z" />
    <glyph glyph-name="uni003D" unicode="=" horiz-adv-x="703" 
d="M632 418h-514v149h514v-149zM632 195h-514v149h514v-149z" />
    <glyph glyph-name="uni003E" unicode="&#x3e;" horiz-adv-x="699" 
d="M698 324l-580 -248v153l369 156l-369 150v153l580 -244v-120z" />
    <glyph glyph-name="uni003F" unicode="?" horiz-adv-x="702" 
d="M396 0h-155v170h155v-170zM599 690q0 -56 -32.5 -112t-94.5 -115q-28 -23 -47 -45t-31 -45.5t-17 -49.5t-5 -57h-113q0 149 105 256l10 10q24 24 39.5 42t25 35t13.5 35.5t4 43.5t-10 46t-27.5 37t-40.5 25t-49 9q-105 0 -129 -113l-125 21q9 50 33 91t60 70.5t82 45.5
t99 16q54 0 100 -18t79 -51t52 -78t19 -99z" />
    <glyph glyph-name="uni201E" unicode="&#x201e;" horiz-adv-x="542" 
d="M269 18q0 -34 -10.5 -71t-29 -70t-43.5 -59.5t-54 -38.5l-64 69q27 35 40.5 68t18.5 59q2 11 3.5 54t1.5 121h137v-132zM449 18q0 -34 -10.5 -71t-29 -70t-43.5 -59.5t-54 -38.5l-64 69q22 27 34.5 48.5t18.5 42.5t7.5 42.5t1.5 47.5v121h139v-132z" />
    <glyph glyph-name="uni2026" unicode="&#x2026;" horiz-adv-x="936" 
d="M546 78q0 -31 -22.5 -53.5t-55.5 -22.5q-75 0 -75 76q0 33 20.5 55.5t54.5 22.5q15 0 29 -5.5t25 -16t17.5 -24.5t6.5 -32zM268 74q0 -33 -22.5 -55.5t-55.5 -22.5q-76 0 -76 78q0 14 5.5 27.5t15 24.5t23.5 17.5t32 6.5q33 0 55.5 -22t22.5 -54zM825 78
q0 -31 -22.5 -53.5t-55.5 -22.5q-76 0 -76 76q0 33 20.5 55.5t55.5 22.5q33 0 55.5 -21.5t22.5 -56.5z" />
    <glyph glyph-name="uni00A0" unicode="&#xa0;" horiz-adv-x="405" 
 />
    <glyph glyph-name="uni2013" unicode="&#x2013;" horiz-adv-x="658" 
d="M528 612h-401v150h401v-150z" />
    <glyph glyph-name="uni2014" unicode="&#x2014;" horiz-adv-x="821" 
d="M692 307h-565v150h565v-150z" />
    <glyph glyph-name="uni201C" unicode="&#x201c;" horiz-adv-x="507" 
d="M216 610q-27 11 -49.5 34.5t-39 53.5t-25.5 62.5t-9 62.5v119h123q0 -134 4 -154q4 -24 15 -53.5t38 -62.5zM382 610q-29 12 -52 35.5t-40 53t-26 62t-9 62.5v119h122q0 -69 1.5 -106t3.5 -48q11 -56 53 -116z" />
    <glyph glyph-name="uni201D" unicode="&#x201d;" horiz-adv-x="505" 
d="M250 823q0 -30 -9.5 -62.5t-26 -62t-39 -53t-48.5 -35.5l-57 62q42 60 53 116q4 20 4 154h123v-119zM412 823q0 -30 -9.5 -62.5t-26 -62t-39 -53t-48.5 -35.5l-57 62q17 23 28 41.5t17 37t8 39.5t2 48v104h125v-119z" />
    <glyph glyph-name="uni2018" unicode="&#x2018;" horiz-adv-x="281" 
d="M193 610q-29 11 -52.5 34.5t-40 53.5t-25.5 62.5t-9 62.5v119h123q0 -69 1 -106t3 -48q5 -28 17.5 -56.5t35.5 -59.5z" />
    <glyph glyph-name="uni2019" unicode="&#x2019;" horiz-adv-x="280" 
d="M213 825q0 -30 -9 -62.5t-25.5 -62t-38.5 -53.5t-48 -37l-59 62q22 37 35 64.5t18 51.5q2 11 3 50t1 106h123v-119z" />
    <glyph glyph-name="uni007D" unicode="}" horiz-adv-x="485" 
d="M450 322q-78 -14 -78 -146v-123q0 -194 -211 -194h-74v121h53q48 0 67 21t19 69v106q0 146 84 205q-84 57 -84 207v102q0 51 -19 71.5t-67 20.5h-53v121h74q211 0 211 -196v-119q0 -133 78 -148v-118z" />
    <glyph glyph-name="uni005D" unicode="]" horiz-adv-x="504" 
d="M373 -141h-295v131h150v782h-150v131h295v-1044z" />
    <glyph glyph-name="uni007B" unicode="{" horiz-adv-x="486" 
d="M397 -141h-74q-211 0 -211 194v123q0 132 -78 146v118q78 16 78 148v119q0 196 211 196h74v-121h-54q-84 0 -84 -92v-102q0 -84 -20.5 -131t-65.5 -76q42 -31 64 -80.5t22 -124.5v-106q0 -51 18 -70.5t66 -19.5h54v-121z" />
    <glyph glyph-name="uni005B" unicode="[" horiz-adv-x="500" 
d="M418 -141h-291v1044h291v-131h-148v-782h148v-131z" />
    <glyph glyph-name="uni007C" unicode="|" horiz-adv-x="398" 
d="M262 -141h-135v1044h135v-1044z" />
    <glyph glyph-name="uni0026" unicode="&#x26;" horiz-adv-x="1005" 
d="M538 879q-18 49 -90 49q-102 0 -102 -105q0 -16 2.5 -27.5t7.5 -21.5t12.5 -19.5t18.5 -21.5q7 -15 43 -53q54 27 87 64.5t33 80.5q0 26 -12 52v2zM397 121q30 2 54 8t46.5 17.5t45 29t48.5 41.5l-209 262q-47 -30 -76.5 -53t-46 -44.5t-22.5 -44t-6 -50.5v-15
q0 -30 14 -57.5t36.5 -48t51.5 -33t60 -12.5h4zM864 489q0 -111 -84 -247l198 -240h-213l-82 98q-36 -37 -68.5 -62.5t-68 -41t-76 -22.5t-92.5 -7q-71 0 -127.5 23t-96.5 62.5t-62.5 92t-24.5 111.5v16q0 49 9.5 89.5t29 74t50 63t73.5 58.5l59 41l-37 49q-63 91 -63 180
q0 49 19.5 93t55 77t85 52.5t108.5 19.5q55 0 102.5 -21.5t82 -55.5t54 -77t19.5 -86q0 -72 -34 -128.5t-101 -100.5l-57 -37l153 -190q31 78 31 125v26h158v-35z" />
    <glyph glyph-name="uni0040" unicode="@" horiz-adv-x="1446" 
d="M869 543q-4 35 -30 58.5t-77 23.5q-48 0 -86.5 -26.5t-65 -67t-41 -88t-14.5 -89.5q0 -24 8 -50t23.5 -47t37 -34.5t48.5 -13.5q60 0 104 52.5t72 154.5q7 23 12 44t8 37.5t4 26l1 9.5q1 0 2 -1zM1115 735l-144 -444q-5 -14 -6.5 -22t-1.5 -11q0 -22 13.5 -35.5
t29.5 -13.5q55 0 98.5 32.5t73.5 80t45.5 101.5t15.5 97q0 92 -45 166t-115.5 126.5t-156 81t-167.5 28.5q-69 0 -135 -20.5t-124.5 -57t-107 -86t-84 -107.5t-55 -122.5t-19.5 -129.5q0 -72 18 -135.5t56.5 -118t98.5 -99t144 -77.5q37 -14 80.5 -22t91.5 -8q54 0 126 14
t163 43l55 -129q-171 -70 -344 -70q-53 0 -101 4.5t-96 18.5t-98.5 39.5t-107.5 66.5q-73 48 -121 100.5t-76 109.5t-39.5 119t-11.5 130q0 108 32 200.5t85.5 168.5t125 134t150 98t160 60.5t156.5 20.5q77 0 151 -18.5t140.5 -51.5t123 -79.5t98.5 -102.5t67.5 -119.5
t29.5 -130.5v-24q0 -86 -30.5 -170t-84 -150.5t-125.5 -107.5t-155 -41q-69 0 -111.5 24t-58.5 66l-19 -19q-35 -30 -83 -45.5t-89 -15.5q-49 0 -93 21t-77.5 57t-53 85.5t-19.5 106.5q0 79 30.5 153.5t82.5 132.5t120.5 93t144.5 35q22 0 46.5 -6t47 -17.5t42.5 -28.5
t34 -38l21 59h158z" />
    <glyph glyph-name="uni0041" unicode="A" horiz-adv-x="1011" 
d="M371 453h258l-123 368zM684 305h-364l-107 -305h-180l383 1055h188l371 -1055h-188z" />
    <glyph glyph-name="uni0042" unicode="B" horiz-adv-x="1025" 
d="M285 899v-281h250q162 0 162 134q0 72 -55.5 109.5t-155.5 37.5h-201zM285 465v-309h309q35 0 63 12t48 34t30.5 51.5t10.5 65.5q0 82 -57 114t-168 32h-236zM113 0v1055h467q58 0 110.5 -21t92 -58.5t63 -89t23.5 -112.5q0 -69 -29 -124.5t-80 -92.5q38 -21 66.5 -44
t47.5 -52t28.5 -65.5t9.5 -84.5q0 -62 -24.5 -118t-64 -99t-89 -68.5t-99.5 -25.5h-522z" />
    <glyph glyph-name="uni0043" unicode="C" horiz-adv-x="1046" 
d="M801 702q-74 213 -258 213q-72 0 -127 -29t-92.5 -81.5t-56.5 -125t-19 -159.5q0 -86 19 -158.5t56.5 -125t92.5 -82t127 -29.5q198 0 278 287h173q-17 -101 -58.5 -183t-101.5 -140t-134.5 -90t-156.5 -32h-6q-111 2 -197 45t-145.5 117.5t-90 174.5t-30.5 216
q0 181 67 314q68 136 216 200q48 17 93 27t93 12q161 0 270.5 -94.5t163.5 -276.5h-176z" />
    <glyph glyph-name="uni0044" unicode="D" horiz-adv-x="1041" 
d="M119 0v1055h414q101 0 181.5 -39t136 -108.5t85 -166t29.5 -211.5q-1 -174 -65.5 -300t-182.5 -195q-64 -35 -113 -35h-485zM291 899v-743h264q24 0 45.5 3t41 12t38.5 25t39 42q25 31 39 66t21.5 71.5t10.5 74.5t5 76v29q0 84 -20 148t-56.5 107.5t-87 66t-111.5 22.5
h-229z" />
    <glyph glyph-name="uni0045" unicode="E" horiz-adv-x="977" 
d="M119 0v1055h745v-156h-573v-281h551v-153h-551v-309h598v-156h-770z" />
    <glyph glyph-name="uni0046" unicode="F" horiz-adv-x="843" 
d="M119 0v1055h721v-156h-549v-281h481v-153h-481v-465h-172z" />
    <glyph glyph-name="uni0047" unicode="G" horiz-adv-x="1136" 
d="M871 315q8 30 12 107h-309v158h467v-586h-121l-25 108q-49 -41 -89.5 -66.5t-80 -40t-82 -20.5t-94.5 -8q-33 0 -74 9t-82 23.5t-77 33.5t-58 39q-84 78 -134 187.5t-50 256.5q0 115 31.5 215t95.5 174.5t159.5 119t223.5 48.5h22q97 0 171 -30.5t126.5 -81.5
t84.5 -116.5t44 -135.5h-170q-4 43 -28 80.5t-61.5 65.5t-86 44t-102.5 16q-80 0 -142.5 -29t-106 -81.5t-66.5 -125.5t-23 -161q0 -89 23 -162t66.5 -125.5t106 -81t142.5 -28.5q58 0 106 16.5t84.5 44t61 63t35.5 72.5v-2z" />
    <glyph glyph-name="uni0048" unicode="H" horiz-adv-x="1064" 
d="M771 0v465h-479v-465h-172v1055h172v-437h479v437h172v-1055h-172z" />
    <glyph glyph-name="uni0049" unicode="I" horiz-adv-x="421" 
d="M121 0v1055h172v-1055h-172z" />
    <glyph glyph-name="uni004A" unicode="J" horiz-adv-x="771" 
d="M77 362h170v-120q0 -52 35 -86.5t90 -34.5q65 0 113 53q30 33 30 172v709h172v-826q-9 -60 -33.5 -109t-64.5 -84t-92.5 -54t-116.5 -19q-63 0 -118.5 20t-96.5 56t-64.5 86.5t-23.5 112.5v124z" />
    <glyph glyph-name="uni004B" unicode="K" horiz-adv-x="1077" 
d="M122 1055h172v-473l477 473h228l-443 -437l428 -618h-200l-347 500l-143 -142v-358h-172v1055z" />
    <glyph glyph-name="uni004C" unicode="L" horiz-adv-x="829" 
d="M79 1055h172v-899h500v-156h-672v1055z" />
    <glyph glyph-name="uni004D" unicode="M" horiz-adv-x="1240" 
d="M943 0v725l-245 -725h-160l-244 725v-725h-172v1055h217l281 -826l278 826h217v-1055h-172z" />
    <glyph glyph-name="uni004E" unicode="N" horiz-adv-x="1081" 
d="M957 0h-181l-483 766v-766h-172v1055h188l476 -770v770h172v-1055z" />
    <glyph glyph-name="uni004F" unicode="O" horiz-adv-x="1177" 
d="M588 915q-80 0 -142.5 -29t-106 -81.5t-66.5 -125t-23 -159.5q0 -86 23 -158.5t66.5 -125t106 -82t142.5 -29.5q79 0 142 29.5t106.5 82t66.5 125t23 158.5q0 87 -23 159.5t-66.5 125t-106.5 81.5t-142 29zM588 1073q119 0 213.5 -41.5t160.5 -115.5t101 -175.5
t35 -220.5q0 -123 -36.5 -224.5t-103.5 -174.5t-161 -113.5t-209 -40.5q-112 0 -205.5 39t-161 111.5t-105.5 174.5t-38 228q0 115 32 215.5t96 175.5t159.5 118.5t222.5 43.5z" />
    <glyph glyph-name="uni0050" unicode="P" horiz-adv-x="905" 
d="M294 899v-313h313q19 0 39.5 12t38 32.5t28.5 48t11 58.5v15q-2 33 -14.5 60.5t-33.5 46.5t-49 29.5t-61 10.5h-272zM122 0v1055h440q8 2 19 2h14q67 0 122.5 -22t95 -63t61.5 -100t22 -133q0 -67 -23.5 -123.5t-63.5 -98t-91.5 -64.5t-108.5 -23h-315v-430h-172z" />
    <glyph glyph-name="uni0051" unicode="Q" horiz-adv-x="1180" 
d="M578 125q68 0 125 22l-92 78l88 107l127 -101q90 115 90 289q0 87 -23 159.5t-66.5 125t-106.5 81.5t-142 29q-80 0 -142.5 -29t-106 -81.5t-66.5 -125t-23 -159.5q0 -86 23 -158.5t66.5 -125t106 -82t142.5 -29.5zM1088 514q0 -233 -135 -387l131 -102l-92 -115
l-152 125q-134 -68 -262 -68q-112 0 -205.5 39.5t-161 111.5t-105.5 172t-38 220v10q0 115 32 215.5t96 175.5t159.5 118.5t222.5 43.5q119 0 213.5 -41.5t160.5 -115.5t101 -175.5t35 -220.5v-6z" />
    <glyph glyph-name="uni0052" unicode="R" horiz-adv-x="1071" 
d="M296 899v-307h307q78 0 123 38t45 113v15q0 141 -168 141h-307zM124 0v1055h475q96 0 161.5 -17.5t106 -54.5t58.5 -95t18 -138q0 -38 -5 -67t-18.5 -55.5t-37 -51.5t-60.5 -54q35 -24 54.5 -44.5t29.5 -48t14 -67t7 -100.5q2 -52 4 -84.5t7.5 -53.5t15 -34.5t26.5 -26.5
v-63h-188q-39 85 -39 190q0 127 -10 170h2q-28 76 -138 76h-311v-436h-172z" />
    <glyph glyph-name="uni0053" unicode="S" horiz-adv-x="987" 
d="M711 719v33q0 75 -61 122.5t-179 47.5q-45 0 -82 -11t-63 -31t-40.5 -47.5t-14.5 -60.5t12.5 -53.5t42 -35.5t78 -29.5l121.5 -35.5h-2l91 -23t111 -32q35 -11 68 -36t58.5 -59t42 -73t18.5 -78v-16q0 -73 -32.5 -134.5t-87 -105.5t-127 -69t-153.5 -25h-20
q-65 2 -115.5 10t-91 24.5t-72.5 41.5t-61 61q-23 27 -38 51.5t-24 53t-12.5 65t-3.5 88.5h162v-28q0 -105 71.5 -158t194.5 -53h33q52 0 90 16.5t63 41t37.5 53t12.5 53.5q0 31 -11.5 53t-42 40.5t-83 36t-134.5 40.5q-42 8 -69 14.5t-39 11.5h2l-88 32t-82 46.5
t-60.5 75.5t-23.5 119q0 70 26.5 128.5t74.5 100.5t115 65t148 23q99 0 175.5 -24.5t128.5 -67t79 -99.5t27 -122v-8q0 -9 -2 -16t-12 -17h-156z" />
    <glyph glyph-name="uni0054" unicode="T" horiz-adv-x="898" 
d="M364 0v899h-334v156h836v-156h-330v-899h-172z" />
    <glyph glyph-name="uni0055" unicode="U" horiz-adv-x="1046" 
d="M110 1055h172v-744q0 -42 17.5 -77.5t49.5 -61t76.5 -39.5t98.5 -14q53 0 96.5 14.5t75 40t48.5 60.5t17 77v744h172v-752q0 -72 -29.5 -133.5t-83.5 -106.5t-129.5 -70.5t-166.5 -25.5q-95 0 -171 25.5t-130.5 70.5t-83.5 106.5t-29 133.5v752z" />
    <glyph glyph-name="uni0056" unicode="V" horiz-adv-x="983" 
d="M495 236l271 819h182l-373 -1055h-168l-372 1055h180z" />
    <glyph glyph-name="uni0057" unicode="W" horiz-adv-x="1462" 
d="M1024 301l178 754h186l-268 -1055h-176l-215 770l-215 -770h-174l-266 1055h186l176 -754l209 754h172z" />
    <glyph glyph-name="uni0058" unicode="X" horiz-adv-x="1129" 
d="M1024 1055l-354 -514l368 -541h-211l-260 397l-268 -397h-211l373 541l-348 514h208l246 -373l252 373h205z" />
    <glyph glyph-name="uni0059" unicode="Y" horiz-adv-x="1020" 
d="M425 0v414l-401 641h206l281 -473l276 473h207l-397 -641v-414h-172z" />
    <glyph glyph-name="uni005A" unicode="Z" horiz-adv-x="1026" 
d="M99 137l584 762h-541v156h768v-144l-586 -755h588v-156h-813v137z" />
    <glyph glyph-name="uni005E" unicode="^" horiz-adv-x="669" 
d="M39 483l231 570h129l230 -570h-139l-156 381l-156 -381h-139z" />
    <glyph glyph-name="uni005F" unicode="_" horiz-adv-x="1132" 
d="M1004 -135v-111h-877v111h877z" />
    <glyph glyph-name="uni0061" unicode="a" horiz-adv-x="890" 
d="M567 350q-34 -10 -67 -17t-68 -11h2q-38 -7 -72 -14t-60 -18t-41 -29t-15 -48v-4q0 -51 29 -74.5t77 -28.5h8q40 0 77.5 13.5t66 33t46 41t17.5 37.5v119zM729 131q0 -10 12.5 -17.5t24.5 -7.5q16 0 47 11v-133q-63 -17 -110 -17q-20 0 -39 8t-35 21t-28.5 29.5
t-20.5 33.5q-66 -45 -120 -68.5t-100 -23.5q-136 0 -206 61.5t-70 170.5v20q6 61 30 103.5t65.5 70t100.5 43t136 23.5q50 2 80 5.5t45.5 9.5t20.5 13.5t5 18.5v84q-4 22 -49 40.5t-121 18.5q-120 0 -129 -135h-151l6 92q10 43 37.5 77.5t66.5 59t87.5 37.5t101.5 13
q76 0 134.5 -15t98.5 -39.5t60 -56t20 -64.5v-487z" />
    <glyph glyph-name="uni0062" unicode="b" horiz-adv-x="844" 
d="M589 178q59 80 59 207q0 118 -44 184t-132 66h-8q-96 -8 -139 -78t-43 -188q0 -43 9 -87t30 -81h-2q12 -18 24 -32t29 -24.5t40.5 -17t57.5 -8.5q75 0 119 59zM126 1055h158v-336q35 35 90 54.5t115 19.5q68 0 128 -26.5t104.5 -78t70.5 -127t26 -172.5
q0 -102 -24.5 -181t-69.5 -132.5t-108.5 -81t-141.5 -27.5q-31 0 -61 8t-56.5 20t-48.5 26.5t-37 27.5l-6 -49h-139v1055z" />
    <glyph glyph-name="uni0063" unicode="c" horiz-adv-x="814" 
d="M740 293q-2 -83 -29.5 -144.5t-71.5 -102t-100.5 -60t-115.5 -19.5h-16q-83 4 -145 36.5t-102.5 86.5t-60.5 126t-20 155v20q2 78 26.5 149.5t68.5 127t107.5 89.5t143.5 36h6q60 0 112 -14.5t93 -49.5t68.5 -94.5t38.5 -149.5h-156q-9 48 -26 79t-38 49t-44.5 25
t-45.5 7h-4q-31 -2 -64 -15.5t-60 -46t-44.5 -87.5t-17.5 -140q0 -60 14.5 -105t38.5 -74.5t56.5 -44.5t68.5 -15h10q42 4 71.5 23t48 45.5t27.5 55t11 52.5h151z" />
    <glyph glyph-name="uni0064" unicode="d" horiz-adv-x="848" 
d="M255 178q45 -61 123 -61h13q48 2 81 25t53 58.5t29 79t9 87.5q0 120 -42 190t-141 76h-8q-88 0 -132 -66t-44 -184q0 -122 59 -205zM356 793q66 -5 119 -27.5t88 -52.5v342h158v-1057h-142l-8 45q-31 -31 -79 -53.5t-114 -22.5h-6q-80 0 -144.5 28t-109.5 81.5
t-69.5 131.5t-24.5 179q0 98 26.5 174t71.5 127.5t104.5 78t125.5 26.5h4z" />
    <glyph glyph-name="uni0065" unicode="e" horiz-adv-x="857" 
d="M430 657q-30 0 -59 -12t-53 -36t-41 -60.5t-23 -85.5h360q-8 96 -47.5 145t-124.5 49h-12zM246 319v-2q0 -53 18 -92t48 -64.5t68 -38.5t79 -13q28 0 49 1.5t38 8t32 20t36 37.5h172q-54 -112 -136 -160.5t-216 -48.5q-77 0 -141.5 25t-111.5 75.5t-73 126.5t-26 177v10
q2 103 31 180.5t77 129.5t110.5 78t131.5 26h15q80 0 136 -24t92 -64.5t56.5 -91t31 -103.5t23.5 -194z" />
    <glyph glyph-name="uni0066" unicode="f" horiz-adv-x="448" 
d="M121 0v625h-121v147h121v105q0 54 21 89.5t51 56.5t63.5 29.5t57.5 8.5q16 0 39 -3t45 -3v-137q-27 0 -20.5 0.5t-0.5 0.5h-39q-59 1 -59 -61v-86h92v-147h-92v-625h-158z" />
    <glyph glyph-name="uni0067" unicode="g" horiz-adv-x="876" 
d="M547 170q57 63 57 199q0 123 -40 186t-136 70h-2q-80 0 -128 -59.5t-52 -190.5v-23q0 -112 46 -170.5t124 -64.5h16q68 0 115 53zM418 793q96 -1 192 -88l11 67h141v-629q0 -126 -16.5 -206.5t-53.5 -129.5t-97.5 -73.5t-147.5 -38.5q-11 -2 -21.5 -3t-21.5 -1
q-65 0 -118 20.5t-92 56.5t-62 84.5t-27 104.5h155q15 -59 49.5 -90t108.5 -31q43 0 76 11.5t55.5 37.5t35.5 68t17 102q-94 -88 -207 -88h-8q-54 2 -108.5 28t-99 76.5t-72 125.5t-27.5 176q0 122 36.5 212.5t129.5 155.5q39 27 80.5 39t83.5 13h8z" />
    <glyph glyph-name="uni0068" unicode="h" horiz-adv-x="788" 
d="M125 0v1055h158v-342q89 80 207 80q34 0 78 -12t83.5 -37t67 -64.5t27.5 -93.5v-586h-158v520q0 39 -12 64t-31.5 39.5t-43 20t-46.5 5.5q-20 0 -49.5 -9t-56.5 -28t-46.5 -47.5t-19.5 -68.5v-496h-158z" />
    <glyph glyph-name="uni0069" unicode="i" horiz-adv-x="400" 
d="M285 1055v-151h-158v151h158zM285 772v-772h-158v772h158z" />
    <glyph glyph-name="uni006A" unicode="j" horiz-adv-x="405" 
d="M7 -166l88 10q16 2 25.5 15.5t9.5 27.5v885h158v-913q0 -75 -57 -120.5t-163 -45.5h-18q-12 0 -22.5 2t-20.5 12v127zM288 1055v-151h-158v151h158z" />
    <glyph glyph-name="uni006B" unicode="k" horiz-adv-x="801" 
d="M125 1055h158v-561l282 278h205l-278 -278l305 -494h-189l-233 379l-92 -92v-287h-158v1055z" />
    <glyph glyph-name="uni006C" unicode="l" horiz-adv-x="416" 
d="M127 0v1055h158v-1055h-158z" />
    <glyph glyph-name="uni006D" unicode="m" horiz-adv-x="1255" 
d="M125 0v772h147l5 -61q22 26 43 42t44 25t50.5 12t62.5 3q43 0 73.5 -8t53.5 -21.5t40.5 -31.5t33.5 -38l4 4h-2q14 19 23 30t17.5 18.5t19 12.5t26.5 11q25 10 53.5 16.5t61.5 6.5h14q115 0 175.5 -53.5t60.5 -147.5v-592h-158v539q-17 108 -121 108q-60 0 -97.5 -37.5
t-47.5 -97.5v-512h-158v543q-11 104 -115 104q-30 0 -57.5 -11.5t-48.5 -32.5t-33 -49.5t-12 -61.5v-492h-158z" />
    <glyph glyph-name="uni006E" unicode="n" horiz-adv-x="866" 
d="M124 772h149l5 -63q84 84 204 84h11q64 -2 109 -18t74.5 -42.5t46 -62.5t24.5 -78v-592h-158v530q0 58 -35 87.5t-90 29.5q-88 0 -135 -60.5t-47 -178.5v-408h-158v772z" />
    <glyph glyph-name="uni006F" unicode="o" horiz-adv-x="873" 
d="M628 381q0 50 -12.5 96t-36.5 81t-60 56t-84 21q-42 0 -77 -19t-60 -52.5t-39 -80.5t-14 -102q0 -54 13.5 -101t38.5 -81.5t60 -54t78 -19.5q45 0 81 20.5t60.5 55.5t38 81.5t13.5 98.5zM787 381q0 -101 -24 -178t-69 -129.5t-110.5 -79.5t-148.5 -27q-166 0 -258 105.5
t-92 308.5q0 100 24 177t69 129.5t110 79t147 26.5q83 0 148.5 -26.5t110.5 -79t69 -129.5t24 -177z" />
    <glyph glyph-name="uni0070" unicode="p" horiz-adv-x="842" 
d="M590 584q-44 59 -121 59h-14q-47 -4 -80 -27t-53.5 -57.5t-29.5 -77.5t-9 -88q0 -121 43.5 -191.5t136.5 -74.5h10q88 0 132 65.5t44 186.5q0 125 -59 205zM490 -33q-60 0 -115 21.5t-90 52.5v-346h-158v1077h139l8 -57q15 14 34.5 28t43 25t51 18t58.5 7h12
q80 0 144 -29.5t109 -84t69 -132t24 -172.5q0 -101 -26.5 -177.5t-72 -127.5t-105 -77t-125.5 -26z" />
    <glyph glyph-name="uni0071" unicode="q" horiz-adv-x="847" 
d="M254 584q-59 -80 -59 -203v-8q2 -117 46 -181.5t134 -64.5h6q46 2 80.5 22t56.5 54.5t33 82.5t11 107q0 44 -9 87t-29 78t-53 58t-81 27h-13q-76 0 -123 -59zM720 -305h-158v350q-37 -33 -91.5 -55.5t-115.5 -22.5q-65 0 -125 26t-106 77t-73.5 127.5t-27.5 177.5
q0 87 22.5 163t66.5 133t109 89.5t150 32.5q45 0 83 -11.5t67 -29.5l-2 2q14 -6 26 -15.5t23 -19.5l12 53h140v-1077z" />
    <glyph glyph-name="uni0072" unicode="r" horiz-adv-x="529" 
d="M124 0v772h158v-70q34 42 74 66.5t75 24.5h86v-164q-235 0 -235 -230v-399h-158z" />
    <glyph glyph-name="uni0073" unicode="s" horiz-adv-x="789" 
d="M226 256q5 -72 53 -111t154 -39q16 3 37.5 9t41 17.5t33 30t13.5 46.5q0 36 -26 53t-71.5 29t-107 25.5t-133.5 41.5q-61 21 -91 73t-30 122q0 55 22.5 99t61.5 75.5t92 48.5t113 17q287 0 291 -265h-154q0 115 -147 115q-26 0 -49 -7.5t-41 -20t-28.5 -29t-10.5 -35.5
q0 -38 51.5 -58.5t145.5 -39.5q79 -21 130.5 -41t81.5 -45.5t42 -60t12 -83.5v-6q0 -52 -22.5 -97.5t-61 -79.5t-90 -53.5t-109.5 -19.5h-4q-4 0 -10 -1t-10 -1h-19q-156 0 -231.5 73.5t-75.5 217.5h147z" />
    <glyph glyph-name="uni0074" unicode="t" horiz-adv-x="464" 
d="M282 969v-197h115v-147h-115v-488q0 -24 43 -24q37 0 72 12v-145q-35 -11 -62.5 -13t-52.5 -2h-16q-27 0 -53 10.5t-45.5 28t-31.5 40.5t-12 48v533h-100v147h100v197h158z" />
    <glyph glyph-name="uni0075" unicode="u" horiz-adv-x="864" 
d="M740 0h-154l-4 43q-39 -41 -89 -58.5t-124 -17.5q-63 0 -107.5 13.5t-75 39t-47 63t-22.5 85.5v604h158v-536q0 -57 27.5 -88t84.5 -31h11q46 0 80.5 17t57.5 48.5t34.5 75t11.5 96.5v418h158v-772z" />
    <glyph glyph-name="uni0076" unicode="v" horiz-adv-x="794" 
d="M466 0h-156l-270 772h174l176 -551l194 551h174z" />
    <glyph glyph-name="uni0077" unicode="w" horiz-adv-x="1179" 
d="M293 0l-221 772h176l127 -508l127 508h176l119 -506l135 506h176l-230 -772h-163l-133 494l-123 -494h-166z" />
    <glyph glyph-name="uni0078" unicode="x" horiz-adv-x="897" 
d="M446 256l-178 -256h-178l270 393l-254 379h179l168 -244l167 244h179l-263 -377l265 -395h-181z" />
    <glyph glyph-name="uni0079" unicode="y" horiz-adv-x="801" 
d="M258 772l172 -518l193 518h166l-342 -928q-14 -39 -36.5 -67t-50 -46t-58.5 -27t-62 -9h-8q-23 0 -44.5 8t-41.5 18v150q28 -14 48.5 -19.5t37.5 -5.5q46 0 69 54v-2l37 108l-243 766h163z" />
    <glyph glyph-name="uni007A" unicode="z" horiz-adv-x="871" 
d="M733 772v-131l-400 -485h416v-156h-635v123l408 491h-377v158h588z" />
    <glyph glyph-name="uni007E" unicode="~" horiz-adv-x="790" 
d="M187 406h-113q2 64 15.5 110.5t35.5 76.5t52 44t65 14q52 0 84 -24l-2 2l182 -109q25 -12 45 -12q27 0 39 18.5t12 44.5v41h113q0 -4 1 -15t1 -13v-9q0 -38 -13 -75t-36 -65.5t-54 -46t-67 -17.5q-53 0 -117 37l-161 106q-10 8 -29 8q-23 0 -38 -23.5t-15 -58.5v-34z" />
    <glyph glyph-name="uni00A1" unicode="&#xa1;" horiz-adv-x="413" 
d="M281 772v-184h-154v184h154zM156 528h96l29 -301v-526h-154v526z" />
    <glyph glyph-name="uni00A2" unicode="&#xa2;" horiz-adv-x="758" 
d="M212 342q0 -24 5 -49t14.5 -48.5t22.5 -44.5t30 -36l135 487q-6 2 -8 2h-47q-21 0 -47 -17.5t-49 -52.5t-38.5 -86.5t-15.5 -119.5v-17q-2 -2 -2 -6v-12zM413 791q12 0 22 -1.5t21 -1.5l38 125h101l-45 -151q33 -10 64.5 -35.5t56 -62.5t40 -84t15.5 -99h-143
q-26 108 -74 133l-146 -499q20 -4 39 -4q75 0 119.5 48.5t61.5 135.5h145q-2 -68 -25 -127.5t-65.5 -103t-103.5 -68.5t-138 -25q-39 0 -69 6l-43 -145h-95l49 176q-50 23 -85.5 61t-59 86t-34.5 103.5t-11 114.5q0 81 16 143.5t43.5 109t63.5 78t76.5 51t83 28t82.5 8.5z
" />
    <glyph glyph-name="uni00A3" unicode="&#xa3;" horiz-adv-x="908" 
d="M290 748q0 -15 1 -29t8 -34t21.5 -49.5t41.5 -74.5h231v-115h-188q12 -47 12 -69q0 -32 -9 -60.5t-23.5 -54.5t-33 -50t-38.5 -46q51 14 96 14q28 0 63 -6t70 -16h-2l57.5 -14.5t42.5 -6.5q28 0 125 53l68 -124q-90 -97 -207 -97q-33 0 -85 11.5t-120 37.5q-46 17 -92 17
q-29 -1 -58 -11.5t-61 -27.5l-41 -21l-90 123q55 47 91 84.5t56.5 69t28.5 58t8 52.5q0 24 -26 84h-160v115h102q-20 33 -31.5 55t-17.5 40t-8 36.5t-4 44.5v6q0 61 28.5 117t76.5 98.5t110 67.5t129 25q88 0 150 -23.5t101.5 -69.5t59 -113.5t23.5 -154.5h-160
q-4 55 -14 94.5t-30.5 65t-52 37.5t-77.5 12q-35 0 -66 -11t-54.5 -31t-37.5 -47.5t-14 -61.5z" />
    <glyph glyph-name="uni00A5" unicode="&#xa5;" horiz-adv-x="889" 
d="M566 553h197v-113h-248v-63h248v-115h-248v-262h-145v262h-246v115h248v63h-248v113h195l-283 498h152l256 -451l256 451h153z" />
    <glyph glyph-name="uni0192" unicode="&#x192;" horiz-adv-x="802" 
d="M194 686h181l24 137v-2q2 38 24 82.5t57.5 82.5t81.5 63.5t95 25.5q69 0 139 -37l-51 -141q-15 0 -27.5 4.5t-22.5 10t-19.5 10t-18.5 4.5q-37 0 -66.5 -43t-39.5 -113l-15 -84h152v-137h-180l-93 -504q-18 -99 -46 -165.5t-67 -106t-88.5 -56t-111.5 -16.5q-56 0 -90 27
l35 184q39 -57 78 -57q42 0 71 33.5t39 93.5l111 567h-152v137z" />
    <glyph glyph-name="uni00A7" unicode="&#xa7;" horiz-adv-x="816" 
d="M372 549q-18 12 -35.5 25.5t-38.5 25.5q-26 -17 -42 -31.5t-24 -29t-10.5 -30t-2.5 -34.5q0 -18 2 -29.5t10 -23.5t25.5 -28.5t48.5 -43.5l93.5 -76t121.5 -86q12 9 25 23.5t23.5 31.5t17.5 34.5t7 33.5v8q-2 33 -16.5 60t-42 53t-68 53.5zM268 20v-40q0 -24 8 -47
t23 -41.5t36 -30t47 -11.5h15q45 0 76.5 27t31.5 76q0 33 -20.5 60t-60.5 55t-97.5 62.5t-130.5 82.5q-66 44 -98.5 106t-32.5 140v12q2 35 8 61t21 48.5t41 44.5t69 49q-24 28 -39.5 67t-15.5 72v12q6 45 28.5 87t58.5 74t83 51.5t102 19.5h15q64 0 112 -22t80.5 -58
t49 -83.5t16.5 -98.5q0 -7 -1 -14t-1 -13v-35h-158q1 8 7 17.5t13.5 18t14 14.5t8.5 8h-37q0 22 -7.5 44t-23 38.5t-38 27t-52.5 10.5q-49 0 -77.5 -26.5t-28.5 -75.5q0 -15 6 -28t23 -28t47.5 -34l78.5 -47q29 -17 61.5 -38.5t74.5 -45.5v2q66 -42 103.5 -102t41.5 -138
v-18q0 -39 -11 -74.5t-30 -65t-44 -51.5t-52 -35q57 -80 57 -143q0 -56 -22 -104t-59.5 -83.5t-88 -56t-108.5 -20.5h-17q-57 0 -105.5 23t-84.5 60.5t-56 86t-20 100.5q0 6 1 11.5t1 9.5v30h158z" />
    <glyph glyph-name="uni00A4" unicode="&#xa4;" horiz-adv-x="813" 
d="M389 610q-24 0 -44 -9t-35 -25.5t-23.5 -38.5t-8.5 -48t8.5 -47.5t23.5 -38t35 -25.5t44 -9h21q24 0 45 9t36.5 25.5t25 39.5t9.5 51q0 25 -10 46.5t-26 37t-36.5 24t-41.5 8.5h-23zM127 492q0 90 45 137l-82 84l102 108l84 -86q72 33 134 33q59 0 131 -33l81 78
l111 -113l-84 -82q28 -51 35 -108v-10q0 -33 -9 -69t-32 -73l84 -82l-111 -102l-75 76q-71 -39 -134 -39q-65 0 -131 31l-77 -74l-103 108l70 72q-39 58 -39 144z" />
    <glyph glyph-name="uni00AB" unicode="&#xab;" horiz-adv-x="697" 
d="M583 125l-258 203v141l258 205v-170l-136 -107l136 -102v-170zM302 125l-258 203v141l258 205v-170l-139 -107l139 -102v-170z" />
    <glyph glyph-name="uni2039" unicode="&#x2039;" horiz-adv-x="356" 
d="M126 401l129 -104v-164l-252 199v141l252 195v-162z" />
    <glyph glyph-name="uni203A" unicode="&#x203a;" horiz-adv-x="385" 
d="M127 297l135 102l-135 113v156l254 -193v-145l-254 -195v162z" />
    <glyph glyph-name="uni2020" unicode="&#x2020;" horiz-adv-x="711" 
d="M4 741h268v289h176v-289h256v-155h-256v-836h-176v836h-268v155z" />
    <glyph glyph-name="uni2021" unicode="&#x2021;" horiz-adv-x="725" 
d="M455 45v-295h-176v295h-260v156h260v385h-268v155h268v289h176v-289h256v-155h-256v-385h248v-156h-248z" />
    <glyph glyph-name="uni00B6" unicode="&#xb6;" horiz-adv-x="818" 
d="M731 1055v-129h-79v-1176h-132v1176h-71v-1176h-131v610q-66 9 -122 36.5t-99 92.5q-66 100 -66 207q0 67 24.5 132t67.5 115t101.5 81t126.5 31h380z" />
    <glyph glyph-name="uni2022" unicode="&#x2022;" horiz-adv-x="545" 
d="M467 502q0 -41 -14.5 -76.5t-40.5 -62t-61.5 -41.5t-77.5 -15q-41 0 -76.5 15t-62 41.5t-41.5 62t-15 76.5t15.5 76.5t41.5 61t61.5 40t76.5 14.5q38 0 73 -15.5t62 -41.5t43 -61t16 -74z" />
    <glyph glyph-name="uni201A" unicode="&#x201a;" horiz-adv-x="298" 
d="M231 18q0 -34 -10.5 -71t-29 -70t-43.5 -59.5t-54 -38.5l-64 69q29 35 41.5 68t17.5 59q2 11 3.5 54t1.5 121h137v-132z" />
    <glyph glyph-name="uni00BB" unicode="&#xbb;" horiz-adv-x="704" 
d="M263 397l-133 107v170l246 -205v-141l-250 -203v170zM538 397l-133 107v170l253 -205v-141l-256 -203v170z" />
    <glyph glyph-name="uni2030" unicode="&#x2030;" horiz-adv-x="1072" 
d="M615 195q0 98 -30 98q-27 0 -27 -98q0 -99 27 -99q30 0 30 99zM259 551q0 100 -31 100q-28 0 -28 -100q0 -96 28 -96q31 0 31 96zM921 193q0 98 -31 98q-29 0 -29 -98q0 -99 29 -99q31 0 31 99zM613 752l-292 -758h-119l295 758h116zM372 551q0 -40 -9.5 -76.5t-28 -64
t-45.5 -44t-61 -16.5q-33 0 -59 16.5t-45 44t-29 64t-10 76.5q0 46 11.5 83t31 63.5t45.5 40.5t55 14q34 0 60.5 -15t45 -41.5t28.5 -63.5t10 -81zM728 195q0 -47 -10.5 -84t-29.5 -63t-45.5 -40t-57.5 -14q-34 0 -60.5 16t-45 43t-28.5 63.5t-10 78.5q0 46 10.5 83t29.5 63
t45.5 40t58.5 14q31 0 57.5 -15t45.5 -41.5t29.5 -63t10.5 -80.5zM1033 193q0 -47 -10.5 -84t-29.5 -63t-45.5 -40t-57.5 -14q-36 0 -63 15.5t-45.5 42.5t-28 63.5t-9.5 79.5q0 45 10.5 82t29.5 63t46 40.5t60 14.5q31 0 57.5 -15t45.5 -41.5t29.5 -63t10.5 -80.5z" />
    <glyph glyph-name="uni00BF" unicode="&#xbf;" horiz-adv-x="715" 
d="M454 772v-184h-168v184h168zM286 500h168v-105q0 -32 -8 -58t-29 -54.5t-57 -65.5l-91 -92q-20 -19 -31.5 -38.5t-18.5 -38t-9 -35.5t-2 -31q0 -60 40.5 -97t109.5 -37q42 0 72 10.5t49.5 36t30 68t13.5 107.5h146q10 -11 12 -19t2 -18v-17q0 -72 -22.5 -130.5t-64 -99.5
t-100.5 -63t-132 -22q-75 0 -135.5 17.5t-102.5 53t-65 90t-23 128.5q0 42 7 75t27.5 66t56.5 71t93 89q64 63 64 123v86z" />
    <glyph glyph-name="uni0060" unicode="`" horiz-adv-x="421" 
d="M222 1071l162 -248h-129l-248 248h215z" />
    <glyph glyph-name="uni00B4" unicode="&#xb4;" horiz-adv-x="420" 
d="M197 1071h215l-246 -248h-131z" />
    <glyph glyph-name="uni02C6" unicode="&#x2c6;" horiz-adv-x="572" 
d="M219 1449h151l160 -248h-135l-100 121l-101 -121h-135z" />
    <glyph glyph-name="uni02DC" unicode="&#x2dc;" horiz-adv-x="599" 
d="M552 1055q-28 -99 -73 -144t-96 -45h-17l-104 23q-13 4 -24 5t-25 1q-13 0 -23 -11.5t-29 -45.5h-98q44 194 156 194h14q6 0 12 -2l103 -20q13 -6 41 -6q15 0 24 3t15.5 9.5t13.5 16t18 22.5h92z" />
    <glyph glyph-name="uni02D8" unicode="&#x2d8;" 
d="M31 1493h67q0 -72 69 -104.5t189 -32.5q43 0 82 5t68 19.5t48 41t26 71.5h67q-10 -33 -18 -65.5t-17 -65.5q-18 -43 -49 -70.5t-68.5 -45t-79.5 -25t-83 -7.5q-78 0 -133.5 21.5t-92 59.5t-55 88.5t-20.5 109.5z" />
    <glyph glyph-name="uni02D9" unicode="&#x2d9;" 
d="M236 1239v213h213v-213h-213z" />
    <glyph glyph-name="uni00A8" unicode="&#xa8;" horiz-adv-x="669" 
d="M127 1028h168v-184h-168v184zM371 1028h168v-184h-168v184z" />
    <glyph glyph-name="uni02DA" unicode="&#x2da;" 
d="M162 1339q0 76 52 128.5t128 52.5t128 -52.5t52 -128.5q0 -75 -52 -127.5t-128 -52.5t-128 52.5t-52 127.5zM236 1339q0 -45 30.5 -75.5t75.5 -30.5t76 30.5t31 75.5t-31 76t-76 31t-75.5 -31t-30.5 -76z" />
    <glyph glyph-name="uni00B8" unicode="&#xb8;" horiz-adv-x="485" 
d="M73 -145q34 -19 55.5 -30t34.5 -17t20.5 -7.5t14.5 -1.5h17q8 0 18 2.5t18.5 8t14.5 13t6 17.5q0 19 -12.5 28t-22.5 9q-7 0 -33 -16l-43 24l49 154h99l-25 -76h25q45 0 75.5 -25.5t30.5 -82.5q0 -45 -18.5 -75t-47 -47.5t-64 -24.5t-68.5 -7q-59 0 -197 59z" />
    <glyph glyph-name="uni02DD" unicode="&#x2dd;" 
d="M352 1516l-303 -304h-121l199 304h225zM713 1516l-303 -304h-121l198 304h226z" />
    <glyph glyph-name="uni02DB" unicode="&#x2db;" 
d="M176 31h137q-55 -84 -55 -174q0 -101 109 -101q6 0 12 1t12 1h15q18 0 31.5 1t26.5 7.5t31.5 17.5t47.5 32v-162q-99 -41 -174 -41q-125 0 -188.5 58.5t-63.5 133.5q0 50 16.5 108t42.5 118z" />
    <glyph glyph-name="uni02C7" unicode="&#x2c7;" 
d="M627 1516l-197 -308h-194l-197 308h131l162 -195l164 195h131z" />
    <glyph glyph-name="uni00C6" unicode="&#xc6;" horiz-adv-x="1517" 
d="M418 453h280v446h-108zM864 463v-307h545v-156h-713v297h-342l-117 -297h-186l432 1055h899v-156h-518v-283h494v-153h-494z" />
    <glyph glyph-name="uni00AA" unicode="&#xaa;" horiz-adv-x="632" 
d="M389 788q-33 -12 -65 -16.5t-57 -9.5t-40.5 -14t-15.5 -31v-4q0 -50 57 -51h6q21 0 41.5 6t37 16t26.5 22t10 23v59zM106 532h426v-112h-426v112zM501 668q0 -6 17 -6h33v-91l-82 -10q-53 16 -72 49l-39 -24t-27 -13.5t-25 -6.5l-32 -5h-16q-78 0 -119 39t-41 109v12
q4 39 18.5 66t40 44t62 26.5t84.5 14.5q27 2 43.5 4t25.5 4t12 5t3 8v49q-4 12 -30 19.5t-56 7.5h-10q-67 -5 -68 -78h-107l5 61q14 60 67 90.5t125 30.5q33 0 66.5 -7.5t60.5 -21.5t44 -34.5t17 -46.5v-295z" />
    <glyph glyph-name="uni00D8" unicode="&#xd8;" horiz-adv-x="1207" 
d="M280 520q0 -119 47 -221l493 553q-84 63 -205 63q-80 0 -142 -29.5t-105 -81t-65.5 -122.5t-22.5 -154v-8zM953 520q0 158 -65 262l-508 -565q104 -92 235 -92q81 0 143.5 29.5t106 82t66 125t22.5 158.5zM615 1073q38 0 81 -8t85 -21.5t80 -31.5t66 -39l98 106l70 -65
l-97 -109q124 -148 129 -385v-10q0 -117 -36.5 -216t-104 -172t-162 -114t-209.5 -41q-190 0 -337 135l-121 -139l-72 68l125 139q-105 142 -105 344v6q0 115 33 215.5t97.5 175.5t159.5 118.5t220 43.5z" />
    <glyph glyph-name="uni0152" unicode="&#x152;" horiz-adv-x="1511" 
d="M519 1069q170 0 248 -84v70h637v-156h-467v-289h456v-153h-456v-301h475v-156h-649v63q-42 -43 -100 -67.5t-134 -24.5h-10q-109 2 -188.5 44.5t-132 113.5t-78 165.5t-25.5 201.5v14q1 92 13.5 160.5t35.5 117.5q60 125 159 203t216 78zM525 129q46 2 80.5 9.5
t61.5 24.5t50.5 45.5t49.5 72.5v469q-29 51 -52 83.5t-47.5 50.5t-55 24.5t-73.5 6.5q-137 0 -205.5 -109.5t-68.5 -309.5q0 -96 18.5 -165.5t52 -114t81 -66t104.5 -21.5h4v0z" />
    <glyph glyph-name="uni00BA" unicode="&#xba;" horiz-adv-x="634" 
d="M112 532h408v-112h-408v112zM315 674q33 0 54.5 16.5t33.5 39t16.5 47t4.5 40.5q0 15 -4.5 39.5t-16.5 48t-34 41t-56 19.5h-2q-33 0 -53 -18t-30.5 -42t-13.5 -49t-3 -39t4 -38.5t15 -47.5t31.5 -40t53.5 -17zM135 659q-37 58 -37 158q0 129 58.5 192.5t158.5 63.5
q106 0 162.5 -63t56.5 -193q0 -128 -56.5 -191t-162.5 -63q-125 0 -180 96z" />
    <glyph glyph-name="uni00E6" unicode="&#xe6;" horiz-adv-x="1366" 
d="M733 315v-2q0 -53 18 -92t48 -64.5t68 -38.5t79 -13q28 0 49 1.5t38 8t32 20t36 37.5h172q-54 -112 -136 -160.5t-216 -48.5q-70 0 -130 21q-5 1 -11 4h-1q-64 25 -111 75q-12 12 -22 26q-32 -30 -68 -55q-62 -42 -117 -54.5t-101 -12.5q-136 0 -206 61.5t-70 170.5v20
q6 61 30 103.5t65.5 70t100.5 43t136 23.5q50 2 80 5.5t45.5 9.5t20.5 13.5t5 18.5v84q-4 22 -49 40.5t-121 18.5q-120 0 -129 -135h-151l6 92q10 43 37.5 77.5t66.5 59t87.5 37.5t101.5 13q76 0 134.5 -15t98.5 -40q26 -16 44 -35q42 40 94 62q63 26 132 26h15
q80 0 136 -24t92 -64.5t56.5 -91t31 -103.5t23.5 -194zM567 350q-34 -10 -67 -17q-32 -7 -67 -11h1q-38 -7 -72 -14t-60 -18t-41 -29t-15 -48v-4q0 -51 29 -74.5t77 -28.5h8q40 0 77.5 13.5t66 33t46 41t17.5 37.5v119zM917 653q-30 0 -59 -12t-53 -36t-41 -60.5t-23 -85.5
h360q-8 96 -47.5 145t-124.5 49h-12z" />
    <glyph glyph-name="uni0130" unicode="&#x130;" horiz-adv-x="377" 
d="M102 0v1075h172v-1075h-172zM273 1354v-151h-171v151h171z" />
    <glyph glyph-name="uni00F8" unicode="&#xf8;" horiz-adv-x="920" 
d="M644 385q0 33 -18 104l-285 -319q47 -41 115 -41q51 0 87 24.5t58.5 62.5t32.5 83t10 86zM263 385q0 -54 25 -129l291 330q-50 53 -123 53q-52 0 -88.5 -25t-60 -62.5t-34 -82t-10.5 -84.5zM167 119l-4 8q-60 124 -60 258q0 198 91 304t262 106q141 0 231 -84l92 102
l70 -70l-98 -114q53 -101 53 -244q0 -202 -90.5 -308t-257.5 -106q-142 0 -223 72l-78 -90l-72 72z" />
    <glyph glyph-name="uni0153" unicode="&#x153;" horiz-adv-x="1432" 
d="M809 323v-2q0 -53 18 -92t48 -64.5t68 -38.5t79 -13q28 0 49 1.5t38 8t32 20t36 37.5h172q-54 -112 -136 -160.5t-216 -48.5q-77 0 -141.5 25t-111.5 75l-20 23l-16 -21q-45 -52 -110.5 -79t-148.5 -27q-166 0 -258 105.5t-92 308.5q0 100 24 177t69 129.5t110 79
t147 26.5q83 0 148.5 -26.5t110.5 -79.5q10 -11 19 -24q12 17 26 32q48 52 110.5 78t131.5 26h15q80 0 136 -24t92 -64.5t56.5 -91t31 -103.5t23.5 -194zM642 381q0 50 -12.5 96t-36.5 81t-60 56t-84 21q-42 0 -77 -19t-60 -52.5t-39 -80.5t-14 -102q0 -54 13.5 -101
t38.5 -81.5t60 -54t78 -19.5q45 0 81 20.5t60.5 55.5t38 81.5t13.5 98.5zM993 661q-30 0 -59 -12t-53 -36t-41 -60.5t-23 -85.5h360q-8 96 -47.5 145t-124.5 49h-12z" />
    <glyph glyph-name="uni00DF" unicode="&#xdf;" horiz-adv-x="845" 
d="M116 0v803q0 46 22 91.5t63.5 81.5t100 58.5t131.5 22.5q64 0 117.5 -20.5t92 -57.5t60 -89t21.5 -116q0 -143 -100 -194q32 -20 58.5 -42t45 -51t29 -66.5t10.5 -86.5v-10q0 -74 -22.5 -138.5t-64 -112t-100.5 -75t-132 -27.5q-2 0 -24 1t-70 8v145q28 -2 52.5 -3
t29.5 -1q37 0 69 15t54.5 40t35.5 58.5t13 70.5v4q0 176 -177 176h-71v156q41 0 78.5 9t65.5 26.5t44.5 42t16.5 55.5q0 57 -33.5 90t-93.5 39h-19q-63 0 -102 -33.5t-39 -93.5v-776h-162z" />
    <glyph glyph-name="uni0178" unicode="&#x178;" horiz-adv-x="1020" 
d="M315 1319h168v-184h-168v184zM559 1319h168v-184h-168v184zM425 0v414l-401 641h206l281 -473l276 473h207l-397 -641v-414h-172z" />
    <glyph glyph-name="uni2122" unicode="&#x2122;" horiz-adv-x="1475" 
d="M603 1073v-123h-186v-504h-144v504h-186v123h516zM1347 1073v-627h-134v420l-170 -420h-79l-164 418v-418h-133v627h182l156 -383l161 383h181z" />
    <glyph glyph-name="uni00FF" unicode="&#xff;" horiz-adv-x="801" 
d="M258 772l172 -518l193 518h166l-342 -928q-14 -39 -36.5 -67t-50 -46t-58.5 -27t-62 -9h-8q-23 0 -44.5 8t-41.5 18v150q28 -14 48.5 -19.5t37.5 -5.5q46 0 69 54v-2l37 108l-243 766h163zM217 1128h168v-184h-168v184zM461 1128h168v-184h-168v184z" />
    <glyph glyph-name="uni00FC" unicode="&#xfc;" horiz-adv-x="864" 
d="M740 0h-154l-4 43q-39 -41 -89 -58.5t-124 -17.5q-63 0 -107.5 13.5t-75 39t-47 63t-22.5 85.5v604h158v-536q0 -57 27.5 -88t84.5 -31h11q46 0 80.5 17t57.5 48.5t34.5 75t11.5 96.5v418h158v-772zM217 1128h168v-184h-168v184zM461 1128h168v-184h-168v184z" />
    <glyph glyph-name="uni00FB" unicode="&#xfb;" horiz-adv-x="864" 
d="M740 0h-154l-4 43q-39 -41 -89 -58.5t-124 -17.5q-63 0 -107.5 13.5t-75 39t-47 63t-22.5 85.5v604h158v-536q0 -57 27.5 -88t84.5 -31h11q46 0 80.5 17t57.5 48.5t34.5 75t11.5 96.5v418h158v-772zM345 1154h151l160 -248h-135l-100 121l-101 -121h-135z" />
    <glyph glyph-name="uni00FA" unicode="&#xfa;" horiz-adv-x="864" 
d="M740 0h-154l-4 43q-39 -41 -89 -58.5t-124 -17.5q-63 0 -107.5 13.5t-75 39t-47 63t-22.5 85.5v604h158v-536q0 -57 27.5 -88t84.5 -31h11q46 0 80.5 17t57.5 48.5t34.5 75t11.5 96.5v418h158v-772zM503 1152h215l-246 -248h-131z" />
    <glyph glyph-name="uni00F9" unicode="&#xf9;" horiz-adv-x="864" 
d="M740 0h-154l-4 43q-39 -41 -89 -58.5t-124 -17.5q-63 0 -107.5 13.5t-75 39t-47 63t-22.5 85.5v604h158v-536q0 -57 27.5 -88t84.5 -31h11q46 0 80.5 17t57.5 48.5t34.5 75t11.5 96.5v418h158v-772zM285 1126l162 -248h-129l-248 248h215z" />
    <glyph glyph-name="uni00F7" unicode="&#xf7;" horiz-adv-x="736" 
d="M461 -14h-187v186h187v-186zM461 516h-187v184h187v-184zM725 412v-138h-715v138h715z" />
    <glyph glyph-name="uni00F6" unicode="&#xf6;" horiz-adv-x="873" 
d="M628 381q0 50 -12.5 96t-36.5 81t-60 56t-84 21q-42 0 -77 -19t-60 -52.5t-39 -80.5t-14 -102q0 -54 13.5 -101t38.5 -81.5t60 -54t78 -19.5q45 0 81 20.5t60.5 55.5t38 81.5t13.5 98.5zM787 381q0 -101 -24 -178t-69 -129.5t-110.5 -79.5t-148.5 -27q-166 0 -258 105.5
t-92 308.5q0 100 24 177t69 129.5t110 79t147 26.5q83 0 148.5 -26.5t110.5 -79t69 -129.5t24 -177zM225 1122h168v-184h-168v184zM469 1122h168v-184h-168v184z" />
    <glyph glyph-name="uni00F5" unicode="&#xf5;" horiz-adv-x="873" 
d="M628 381q0 50 -12.5 96t-36.5 81t-60 56t-84 21q-42 0 -77 -19t-60 -52.5t-39 -80.5t-14 -102q0 -54 13.5 -101t38.5 -81.5t60 -54t78 -19.5q45 0 81 20.5t60.5 55.5t38 81.5t13.5 98.5zM787 381q0 -101 -24 -178t-69 -129.5t-110.5 -79.5t-148.5 -27q-166 0 -258 105.5
t-92 308.5q0 100 24 177t69 129.5t110 79t147 26.5q83 0 148.5 -26.5t110.5 -79t69 -129.5t24 -177zM697 1104q-28 -99 -73 -144t-96 -45h-17l-104 23q-13 4 -24 5t-25 1q-13 0 -23 -11.5t-29 -45.5h-98q44 194 156 194h14q6 0 12 -2l103 -20q13 -6 41 -6q15 0 24 3
t15.5 9.5t13.5 16t18 22.5h92z" />
    <glyph glyph-name="uni00F4" unicode="&#xf4;" horiz-adv-x="873" 
d="M628 381q0 50 -12.5 96t-36.5 81t-60 56t-84 21q-42 0 -77 -19t-60 -52.5t-39 -80.5t-14 -102q0 -54 13.5 -101t38.5 -81.5t60 -54t78 -19.5q45 0 81 20.5t60.5 55.5t38 81.5t13.5 98.5zM787 381q0 -101 -24 -178t-69 -129.5t-110.5 -79.5t-148.5 -27q-166 0 -258 105.5
t-92 308.5q0 100 24 177t69 129.5t110 79t147 26.5q83 0 148.5 -26.5t110.5 -79t69 -129.5t24 -177zM366 1114h151l160 -248h-135l-100 121l-101 -121h-135z" />
    <glyph glyph-name="uni00F3" unicode="&#xf3;" horiz-adv-x="873" 
d="M530 1138h215l-246 -248h-131zM628 381q0 50 -12.5 96t-36.5 81t-60 56t-84 21q-42 0 -77 -19t-60 -52.5t-39 -80.5t-14 -102q0 -54 13.5 -101t38.5 -81.5t60 -54t78 -19.5q45 0 81 20.5t60.5 55.5t38 81.5t13.5 98.5zM787 381q0 -101 -24 -178t-69 -129.5t-110.5 -79.5
t-148.5 -27q-166 0 -258 105.5t-92 308.5q0 100 24 177t69 129.5t110 79t147 26.5q83 0 148.5 -26.5t110.5 -79t69 -129.5t24 -177z" />
    <glyph glyph-name="uni00F2" unicode="&#xf2;" horiz-adv-x="873" 
d="M628 381q0 50 -12.5 96t-36.5 81t-60 56t-84 21q-42 0 -77 -19t-60 -52.5t-39 -80.5t-14 -102q0 -54 13.5 -101t38.5 -81.5t60 -54t78 -19.5q45 0 81 20.5t60.5 55.5t38 81.5t13.5 98.5zM787 381q0 -101 -24 -178t-69 -129.5t-110.5 -79.5t-148.5 -27q-166 0 -258 105.5
t-92 308.5q0 100 24 177t69 129.5t110 79t147 26.5q83 0 148.5 -26.5t110.5 -79t69 -129.5t24 -177zM356 1132l162 -248h-129l-248 248h215z" />
    <glyph glyph-name="uni00F1" unicode="&#xf1;" horiz-adv-x="866" 
d="M672 1135q-28 -99 -73 -144t-96 -45h-17l-104 23q-13 4 -24 5t-25 1q-13 0 -23 -11.5t-29 -45.5h-98q44 194 156 194h14q6 0 12 -2l103 -20q13 -6 41 -6q15 0 24 3t15.5 9.5t13.5 16t18 22.5h92zM124 772h149l5 -63q84 84 204 84h11q64 -2 109 -18t74.5 -42.5t46 -62.5
t24.5 -78v-592h-158v530q0 58 -35 87.5t-90 29.5q-88 0 -135 -60.5t-47 -178.5v-408h-158v772z" />
    <glyph glyph-name="uni00EF" unicode="&#xef;" horiz-adv-x="400" 
d="M4 1128h168v-184h-168v184zM248 1128h168v-184h-168v184zM285 772v-772h-158v772h158z" />
    <glyph glyph-name="uni00EE" unicode="&#xee;" horiz-adv-x="400" 
d="M137 1141h151l160 -248h-135l-100 121l-101 -121h-135zM285 772v-772h-158v772h158z" />
    <glyph glyph-name="uni00ED" unicode="&#xed;" horiz-adv-x="400" 
d="M211 1124h215l-246 -248h-131zM285 772v-772h-158v772h158z" />
    <glyph glyph-name="uni00EC" unicode="&#xec;" horiz-adv-x="400" 
d="M195 1134l162 -248h-129l-248 248h215zM285 772v-772h-158v772h158z" />
    <glyph glyph-name="uni00EB" unicode="&#xeb;" horiz-adv-x="857" 
d="M430 657q-30 0 -59 -12t-53 -36t-41 -60.5t-23 -85.5h360q-8 96 -47.5 145t-124.5 49h-12zM246 319v-2q0 -53 18 -92t48 -64.5t68 -38.5t79 -13q28 0 49 1.5t38 8t32 20t36 37.5h172q-54 -112 -136 -160.5t-216 -48.5q-77 0 -141.5 25t-111.5 75.5t-73 126.5t-26 177v10
q2 103 31 180.5t77 129.5t110.5 78t131.5 26h15q80 0 136 -24t92 -64.5t56.5 -91t31 -103.5t23.5 -194zM242 1126h168v-184h-168v184zM486 1126h168v-184h-168v184z" />
    <glyph glyph-name="uni00EA" unicode="&#xea;" horiz-adv-x="857" 
d="M430 657q-30 0 -59 -12t-53 -36t-41 -60.5t-23 -85.5h360q-8 96 -47.5 145t-124.5 49h-12zM246 319v-2q0 -53 18 -92t48 -64.5t68 -38.5t79 -13q28 0 49 1.5t38 8t32 20t36 37.5h172q-54 -112 -136 -160.5t-216 -48.5q-77 0 -141.5 25t-111.5 75.5t-73 126.5t-26 177v10
q2 103 31 180.5t77 129.5t110.5 78t131.5 26h15q80 0 136 -24t92 -64.5t56.5 -91t31 -103.5t23.5 -194zM354 1167h151l160 -248h-135l-100 121l-101 -121h-135z" />
    <glyph glyph-name="uni00E9" unicode="&#xe9;" horiz-adv-x="857" 
d="M447 1122h215l-246 -248h-131zM430 657q-30 0 -59 -12t-53 -36t-41 -60.5t-23 -85.5h360q-8 96 -47.5 145t-124.5 49h-12zM246 319v-2q0 -53 18 -92t48 -64.5t68 -38.5t79 -13q28 0 49 1.5t38 8t32 20t36 37.5h172q-54 -112 -136 -160.5t-216 -48.5q-77 0 -141.5 25
t-111.5 75.5t-73 126.5t-26 177v10q2 103 31 180.5t77 129.5t110.5 78t131.5 26h15q80 0 136 -24t92 -64.5t56.5 -91t31 -103.5t23.5 -194z" />
    <glyph glyph-name="uni00E8" unicode="&#xe8;" horiz-adv-x="857" 
d="M430 657q-30 0 -59 -12t-53 -36t-41 -60.5t-23 -85.5h360q-8 96 -47.5 145t-124.5 49h-12zM246 319v-2q0 -53 18 -92t48 -64.5t68 -38.5t79 -13q28 0 49 1.5t38 8t32 20t36 37.5h172q-54 -112 -136 -160.5t-216 -48.5q-77 0 -141.5 25t-111.5 75.5t-73 126.5t-26 177v10
q2 103 31 180.5t77 129.5t110.5 78t131.5 26h15q80 0 136 -24t92 -64.5t56.5 -91t31 -103.5t23.5 -194zM372 1132l162 -248h-129l-248 248h215z" />
    <glyph glyph-name="uni00E7" unicode="&#xe7;" horiz-adv-x="814" 
d="M740 293q-2 -83 -29.5 -144.5t-71.5 -102t-100.5 -60t-115.5 -19.5h-16q-83 4 -145 36.5t-102.5 86.5t-60.5 126t-20 155v20q2 78 26.5 149.5t68.5 127t107.5 89.5t143.5 36h6q60 0 112 -14.5t93 -49.5t68.5 -94.5t38.5 -149.5h-156q-9 48 -26 79t-38 49t-44.5 25
t-45.5 7h-4q-31 -2 -64 -15.5t-60 -46t-44.5 -87.5t-17.5 -140q0 -60 14.5 -105t38.5 -74.5t56.5 -44.5t68.5 -15h10q42 4 71.5 23t48 45.5t27.5 55t11 52.5h151zM210 -201q34 -19 55.5 -30t34.5 -17t20.5 -7.5t14.5 -1.5h17q8 0 18 2.5t18.5 8t14.5 13t6 17.5
q0 19 -12.5 28t-22.5 9q-7 0 -33 -16l-43 24l49 154h99l-25 -76h25q45 0 75.5 -25.5t30.5 -82.5q0 -45 -18.5 -75t-47 -47.5t-64 -24.5t-68.5 -7q-59 0 -197 59z" />
    <glyph glyph-name="uni00E5" unicode="&#xe5;" horiz-adv-x="890" 
d="M567 350q-34 -10 -67 -17t-68 -11h2q-38 -7 -72 -14t-60 -18t-41 -29t-15 -48v-4q0 -51 29 -74.5t77 -28.5h8q40 0 77.5 13.5t66 33t46 41t17.5 37.5v119zM729 131q0 -10 12.5 -17.5t24.5 -7.5q16 0 47 11v-133q-63 -17 -110 -17q-20 0 -39 8t-35 21t-28.5 29.5
t-20.5 33.5q-66 -45 -120 -68.5t-100 -23.5q-136 0 -206 61.5t-70 170.5v20q6 61 30 103.5t65.5 70t100.5 43t136 23.5q50 2 80 5.5t45.5 9.5t20.5 13.5t5 18.5v84q-4 22 -49 40.5t-121 18.5q-120 0 -129 -135h-151l6 92q10 43 37.5 77.5t66.5 59t87.5 37.5t101.5 13
q76 0 134.5 -15t98.5 -39.5t60 -56t20 -64.5v-487zM286 1084q0 76 52 128.5t128 52.5t128 -52.5t52 -128.5q0 -75 -52 -127.5t-128 -52.5t-128 52.5t-52 127.5zM360 1084q0 -45 30.5 -75.5t75.5 -30.5t76 30.5t31 75.5t-31 76t-76 31t-75.5 -31t-30.5 -76z" />
    <glyph glyph-name="uni00E4" unicode="&#xe4;" horiz-adv-x="890" 
d="M567 350q-34 -10 -67 -17t-68 -11h2q-38 -7 -72 -14t-60 -18t-41 -29t-15 -48v-4q0 -51 29 -74.5t77 -28.5h8q40 0 77.5 13.5t66 33t46 41t17.5 37.5v119zM729 131q0 -10 12.5 -17.5t24.5 -7.5q16 0 47 11v-133q-63 -17 -110 -17q-20 0 -39 8t-35 21t-28.5 29.5
t-20.5 33.5q-66 -45 -120 -68.5t-100 -23.5q-136 0 -206 61.5t-70 170.5v20q6 61 30 103.5t65.5 70t100.5 43t136 23.5q50 2 80 5.5t45.5 9.5t20.5 13.5t5 18.5v84q-4 22 -49 40.5t-121 18.5q-120 0 -129 -135h-151l6 92q10 43 37.5 77.5t66.5 59t87.5 37.5t101.5 13
q76 0 134.5 -15t98.5 -39.5t60 -56t20 -64.5v-487zM274 1132h168v-184h-168v184zM518 1132h168v-184h-168v184z" />
    <glyph glyph-name="uni00E3" unicode="&#xe3;" horiz-adv-x="890" 
d="M567 350q-34 -10 -67 -17t-68 -11h2q-38 -7 -72 -14t-60 -18t-41 -29t-15 -48v-4q0 -51 29 -74.5t77 -28.5h8q40 0 77.5 13.5t66 33t46 41t17.5 37.5v119zM729 131q0 -10 12.5 -17.5t24.5 -7.5q16 0 47 11v-133q-63 -17 -110 -17q-20 0 -39 8t-35 21t-28.5 29.5
t-20.5 33.5q-66 -45 -120 -68.5t-100 -23.5q-136 0 -206 61.5t-70 170.5v20q6 61 30 103.5t65.5 70t100.5 43t136 23.5q50 2 80 5.5t45.5 9.5t20.5 13.5t5 18.5v84q-4 22 -49 40.5t-121 18.5q-120 0 -129 -135h-151l6 92q10 43 37.5 77.5t66.5 59t87.5 37.5t101.5 13
q76 0 134.5 -15t98.5 -39.5t60 -56t20 -64.5v-487zM654 1135q-28 -99 -73 -144t-96 -45h-17l-104 23q-13 4 -24 5t-25 1q-13 0 -23 -11.5t-29 -45.5h-98q44 194 156 194h14q6 0 12 -2l103 -20q13 -6 41 -6q15 0 24 3t15.5 9.5t13.5 16t18 22.5h92z" />
    <glyph glyph-name="uni00E2" unicode="&#xe2;" horiz-adv-x="890" 
d="M567 350q-34 -10 -67 -17t-68 -11h2q-38 -7 -72 -14t-60 -18t-41 -29t-15 -48v-4q0 -51 29 -74.5t77 -28.5h8q40 0 77.5 13.5t66 33t46 41t17.5 37.5v119zM729 131q0 -10 12.5 -17.5t24.5 -7.5q16 0 47 11v-133q-63 -17 -110 -17q-20 0 -39 8t-35 21t-28.5 29.5
t-20.5 33.5q-66 -45 -120 -68.5t-100 -23.5q-136 0 -206 61.5t-70 170.5v20q6 61 30 103.5t65.5 70t100.5 43t136 23.5q50 2 80 5.5t45.5 9.5t20.5 13.5t5 18.5v84q-4 22 -49 40.5t-121 18.5q-120 0 -129 -135h-151l6 92q10 43 37.5 77.5t66.5 59t87.5 37.5t101.5 13
q76 0 134.5 -15t98.5 -39.5t60 -56t20 -64.5v-487zM351 1147h151l160 -248h-135l-100 121l-101 -121h-135z" />
    <glyph glyph-name="uni00E1" unicode="&#xe1;" horiz-adv-x="890" 
d="M567 350q-34 -10 -67 -17t-68 -11h2q-38 -7 -72 -14t-60 -18t-41 -29t-15 -48v-4q0 -51 29 -74.5t77 -28.5h8q40 0 77.5 13.5t66 33t46 41t17.5 37.5v119zM729 131q0 -10 12.5 -17.5t24.5 -7.5q16 0 47 11v-133q-63 -17 -110 -17q-20 0 -39 8t-35 21t-28.5 29.5
t-20.5 33.5q-66 -45 -120 -68.5t-100 -23.5q-136 0 -206 61.5t-70 170.5v20q6 61 30 103.5t65.5 70t100.5 43t136 23.5q50 2 80 5.5t45.5 9.5t20.5 13.5t5 18.5v84q-4 22 -49 40.5t-121 18.5q-120 0 -129 -135h-151l6 92q10 43 37.5 77.5t66.5 59t87.5 37.5t101.5 13
q76 0 134.5 -15t98.5 -39.5t60 -56t20 -64.5v-487zM511 1139h215l-246 -248h-131z" />
    <glyph glyph-name="uni00E0" unicode="&#xe0;" horiz-adv-x="890" 
d="M567 350q-34 -10 -67 -17t-68 -11h2q-38 -7 -72 -14t-60 -18t-41 -29t-15 -48v-4q0 -51 29 -74.5t77 -28.5h8q40 0 77.5 13.5t66 33t46 41t17.5 37.5v119zM729 131q0 -10 12.5 -17.5t24.5 -7.5q16 0 47 11v-133q-63 -17 -110 -17q-20 0 -39 8t-35 21t-28.5 29.5
t-20.5 33.5q-66 -45 -120 -68.5t-100 -23.5q-136 0 -206 61.5t-70 170.5v20q6 61 30 103.5t65.5 70t100.5 43t136 23.5q50 2 80 5.5t45.5 9.5t20.5 13.5t5 18.5v84q-4 22 -49 40.5t-121 18.5q-120 0 -129 -135h-151l6 92q10 43 37.5 77.5t66.5 59t87.5 37.5t101.5 13
q76 0 134.5 -15t98.5 -39.5t60 -56t20 -64.5v-487zM346 1147l162 -248h-129l-248 248h215z" />
    <glyph glyph-name="uni00DC" unicode="&#xdc;" horiz-adv-x="1046" 
d="M110 1055h172v-744q0 -42 17.5 -77.5t49.5 -61t76.5 -39.5t98.5 -14q53 0 96.5 14.5t75 40t48.5 60.5t17 77v744h172v-752q0 -72 -29.5 -133.5t-83.5 -106.5t-129.5 -70.5t-166.5 -25.5q-95 0 -171 25.5t-130.5 70.5t-83.5 106.5t-29 133.5v752zM320 1357h168v-184h-168
v184zM564 1357h168v-184h-168v184z" />
    <glyph glyph-name="uni00DB" unicode="&#xdb;" horiz-adv-x="1046" 
d="M110 1055h172v-744q0 -42 17.5 -77.5t49.5 -61t76.5 -39.5t98.5 -14q53 0 96.5 14.5t75 40t48.5 60.5t17 77v744h172v-752q0 -72 -29.5 -133.5t-83.5 -106.5t-129.5 -70.5t-166.5 -25.5q-95 0 -171 25.5t-130.5 70.5t-83.5 106.5t-29 133.5v752zM456 1433h151l160 -248
h-135l-100 121l-101 -121h-135z" />
    <glyph glyph-name="uni00DA" unicode="&#xda;" horiz-adv-x="1046" 
d="M110 1055h172v-744q0 -42 17.5 -77.5t49.5 -61t76.5 -39.5t98.5 -14q53 0 96.5 14.5t75 40t48.5 60.5t17 77v744h172v-752q0 -72 -29.5 -133.5t-83.5 -106.5t-129.5 -70.5t-166.5 -25.5q-95 0 -171 25.5t-130.5 70.5t-83.5 106.5t-29 133.5v752zM564 1409h215l-246 -248
h-131z" />
    <glyph glyph-name="uni00D9" unicode="&#xd9;" horiz-adv-x="1046" 
d="M110 1055h172v-744q0 -42 17.5 -77.5t49.5 -61t76.5 -39.5t98.5 -14q53 0 96.5 14.5t75 40t48.5 60.5t17 77v744h172v-752q0 -72 -29.5 -133.5t-83.5 -106.5t-129.5 -70.5t-166.5 -25.5q-95 0 -171 25.5t-130.5 70.5t-83.5 106.5t-29 133.5v752zM428 1427l162 -248h-129
l-248 248h215z" />
    <glyph glyph-name="uni00D6" unicode="&#xd6;" horiz-adv-x="1177" 
d="M588 915q-80 0 -142.5 -29t-106 -81.5t-66.5 -125t-23 -159.5q0 -86 23 -158.5t66.5 -125t106 -82t142.5 -29.5q79 0 142 29.5t106.5 82t66.5 125t23 158.5q0 87 -23 159.5t-66.5 125t-106.5 81.5t-142 29zM588 1073q119 0 213.5 -41.5t160.5 -115.5t101 -175.5
t35 -220.5q0 -123 -36.5 -224.5t-103.5 -174.5t-161 -113.5t-209 -40.5q-112 0 -205.5 39t-161 111.5t-105.5 174.5t-38 228q0 115 32 215.5t96 175.5t159.5 118.5t222.5 43.5zM371 1349h168v-184h-168v184zM615 1349h168v-184h-168v184z" />
    <glyph glyph-name="uni00D5" unicode="&#xd5;" horiz-adv-x="1177" 
d="M588 915q-80 0 -142.5 -29t-106 -81.5t-66.5 -125t-23 -159.5q0 -86 23 -158.5t66.5 -125t106 -82t142.5 -29.5q79 0 142 29.5t106.5 82t66.5 125t23 158.5q0 87 -23 159.5t-66.5 125t-106.5 81.5t-142 29zM588 1073q119 0 213.5 -41.5t160.5 -115.5t101 -175.5
t35 -220.5q0 -123 -36.5 -224.5t-103.5 -174.5t-161 -113.5t-209 -40.5q-112 0 -205.5 39t-161 111.5t-105.5 174.5t-38 228q0 115 32 215.5t96 175.5t159.5 118.5t222.5 43.5zM858 1375q-28 -99 -73 -144t-96 -45h-17l-104 23q-13 4 -24 5t-25 1q-13 0 -23 -11.5t-29 -45.5
h-98q44 194 156 194h14q6 0 12 -2l103 -20q13 -6 41 -6q15 0 24 3t15.5 9.5t13.5 16t18 22.5h92z" />
    <glyph glyph-name="uni00D4" unicode="&#xd4;" horiz-adv-x="1177" 
d="M588 915q-80 0 -142.5 -29t-106 -81.5t-66.5 -125t-23 -159.5q0 -86 23 -158.5t66.5 -125t106 -82t142.5 -29.5q79 0 142 29.5t106.5 82t66.5 125t23 158.5q0 87 -23 159.5t-66.5 125t-106.5 81.5t-142 29zM588 1073q119 0 213.5 -41.5t160.5 -115.5t101 -175.5
t35 -220.5q0 -123 -36.5 -224.5t-103.5 -174.5t-161 -113.5t-209 -40.5q-112 0 -205.5 39t-161 111.5t-105.5 174.5t-38 228q0 115 32 215.5t96 175.5t159.5 118.5t222.5 43.5zM474 1430h151l160 -248h-135l-100 121l-101 -121h-135z" />
    <glyph glyph-name="uni00D3" unicode="&#xd3;" horiz-adv-x="1177" 
d="M588 915q-80 0 -142.5 -29t-106 -81.5t-66.5 -125t-23 -159.5q0 -86 23 -158.5t66.5 -125t106 -82t142.5 -29.5q79 0 142 29.5t106.5 82t66.5 125t23 158.5q0 87 -23 159.5t-66.5 125t-106.5 81.5t-142 29zM588 1073q119 0 213.5 -41.5t160.5 -115.5t101 -175.5
t35 -220.5q0 -123 -36.5 -224.5t-103.5 -174.5t-161 -113.5t-209 -40.5q-112 0 -205.5 39t-161 111.5t-105.5 174.5t-38 228q0 115 32 215.5t96 175.5t159.5 118.5t222.5 43.5zM694 1413h215l-246 -248h-131z" />
    <glyph glyph-name="uni00D2" unicode="&#xd2;" horiz-adv-x="1177" 
d="M500 1402l162 -248h-129l-248 248h215zM588 915q-80 0 -142.5 -29t-106 -81.5t-66.5 -125t-23 -159.5q0 -86 23 -158.5t66.5 -125t106 -82t142.5 -29.5q79 0 142 29.5t106.5 82t66.5 125t23 158.5q0 87 -23 159.5t-66.5 125t-106.5 81.5t-142 29zM588 1073
q119 0 213.5 -41.5t160.5 -115.5t101 -175.5t35 -220.5q0 -123 -36.5 -224.5t-103.5 -174.5t-161 -113.5t-209 -40.5q-112 0 -205.5 39t-161 111.5t-105.5 174.5t-38 228q0 115 32 215.5t96 175.5t159.5 118.5t222.5 43.5z" />
    <glyph glyph-name="uni00D1" unicode="&#xd1;" horiz-adv-x="1081" 
d="M843 1382q-28 -99 -73 -144t-96 -45h-17l-104 23q-13 4 -24 5t-25 1q-13 0 -23 -11.5t-29 -45.5h-98q44 194 156 194h14q6 0 12 -2l103 -20q13 -6 41 -6q15 0 24 3t15.5 9.5t13.5 16t18 22.5h92zM957 0h-181l-483 766v-766h-172v1055h188l476 -770v770h172v-1055z" />
    <glyph glyph-name="uni00CF" unicode="&#xcf;" horiz-adv-x="421" 
d="M121 0v1055h172v-1055h-172zM0 1342h168v-184h-168v184zM244 1342h168v-184h-168v184z" />
    <glyph glyph-name="uni00CE" unicode="&#xce;" horiz-adv-x="421" 
d="M121 0v1055h172v-1055h-172zM127 1423h151l160 -248h-135l-100 121l-101 -121h-135z" />
    <glyph glyph-name="uni00CD" unicode="&#xcd;" horiz-adv-x="421" 
d="M121 0v1055h172v-1055h-172zM222 1360h215l-246 -248h-131z" />
    <glyph glyph-name="uni00CC" unicode="&#xcc;" horiz-adv-x="421" 
d="M121 0v1055h172v-1055h-172zM201 1411l162 -248h-129l-248 248h215z" />
    <glyph glyph-name="uni00CB" unicode="&#xcb;" horiz-adv-x="977" 
d="M119 0v1055h745v-156h-573v-281h551v-153h-551v-309h598v-156h-770zM305 1361h168v-184h-168v184zM549 1361h168v-184h-168v184z" />
    <glyph glyph-name="uni00CA" unicode="&#xca;" horiz-adv-x="977" 
d="M119 0v1055h745v-156h-573v-281h551v-153h-551v-309h598v-156h-770zM364 1442h151l160 -248h-135l-100 121l-101 -121h-135z" />
    <glyph glyph-name="uni00C9" unicode="&#xc9;" horiz-adv-x="977" 
d="M119 0v1055h745v-156h-573v-281h551v-153h-551v-309h598v-156h-770zM559 1401h215l-246 -248h-131z" />
    <glyph glyph-name="uni00C8" unicode="&#xc8;" horiz-adv-x="977" 
d="M119 0v1055h745v-156h-573v-281h551v-153h-551v-309h598v-156h-770zM427 1410l162 -248h-129l-248 248h215z" />
    <glyph glyph-name="uni00C7" unicode="&#xc7;" horiz-adv-x="1046" 
d="M801 702q-74 213 -258 213q-72 0 -127 -29t-92.5 -81.5t-56.5 -125t-19 -159.5q0 -86 19 -158.5t56.5 -125t92.5 -82t127 -29.5q198 0 278 287h173q-17 -101 -58.5 -183t-101.5 -140t-134.5 -90t-156.5 -32h-6q-111 2 -197 45t-145.5 117.5t-90 174.5t-30.5 216
q0 181 67 314q68 136 216 200q48 17 93 27t93 12q161 0 270.5 -94.5t163.5 -276.5h-176zM321 -197q34 -19 55.5 -30t34.5 -17t20.5 -7.5t14.5 -1.5h17q8 0 18 2.5t18.5 8t14.5 13t6 17.5q0 19 -12.5 28t-22.5 9q-7 0 -33 -16l-43 24l49 154h99l-25 -76h25q45 0 75.5 -25.5
t30.5 -82.5q0 -45 -18.5 -75t-47 -47.5t-64 -24.5t-68.5 -7q-59 0 -197 59z" />
    <glyph glyph-name="uni00C5" unicode="&#xc5;" horiz-adv-x="1011" 
d="M371 453h258l-123 368zM684 305h-364l-107 -305h-180l383 1055h188l371 -1055h-188zM321 1376q0 76 52 128.5t128 52.5t128 -52.5t52 -128.5q0 -75 -52 -127.5t-128 -52.5t-128 52.5t-52 127.5zM395 1376q0 -45 30.5 -75.5t75.5 -30.5t76 30.5t31 75.5t-31 76t-76 31
t-75.5 -31t-30.5 -76z" />
    <glyph glyph-name="uni00C4" unicode="&#xc4;" horiz-adv-x="1011" 
d="M371 453h258l-123 368zM684 305h-364l-107 -305h-180l383 1055h188l371 -1055h-188zM295 1374h168v-184h-168v184zM539 1374h168v-184h-168v184z" />
    <glyph glyph-name="uni00C3" unicode="&#xc3;" horiz-adv-x="1011" 
d="M371 453h258l-123 368zM684 305h-364l-107 -305h-180l383 1055h188l371 -1055h-188zM802 1319q-28 -99 -73 -144t-96 -45h-17l-104 23q-13 4 -24 5t-25 1q-13 0 -23 -11.5t-29 -45.5h-98q44 194 156 194h14q6 0 12 -2l103 -20q13 -6 41 -6q15 0 24 3t15.5 9.5t13.5 16
t18 22.5h92z" />
    <glyph glyph-name="uni00C2" unicode="&#xc2;" horiz-adv-x="1011" 
d="M371 453h258l-123 368zM684 305h-364l-107 -305h-180l383 1055h188l371 -1055h-188zM415 1412h151l160 -248h-135l-100 121l-101 -121h-135z" />
    <glyph glyph-name="uni00C1" unicode="&#xc1;" horiz-adv-x="1011" 
d="M371 453h258l-123 368zM684 305h-364l-107 -305h-180l383 1055h188l371 -1055h-188zM627 1406h215l-246 -248h-131z" />
    <glyph glyph-name="uni00C0" unicode="&#xc0;" horiz-adv-x="1011" 
d="M371 453h258l-123 368zM684 305h-364l-107 -305h-180l383 1055h188l371 -1055h-188zM383 1408l162 -248h-129l-248 248h215z" />
    <glyph glyph-name="uni00B5" unicode="&#xb5;" horiz-adv-x="788" 
d="M590 0v41q-41 -41 -90 -57.5t-123 -16.5q-60 0 -94 8v-280h-156v1077h156v-536q0 -57 27.5 -88t84.5 -31h11q46 0 80.5 17t57.5 48.5t34.5 75t11.5 96.5v418h156v-772h-156z" />
    <glyph glyph-name="uni00B1" unicode="&#xb1;" horiz-adv-x="834" 
d="M45 0v145h743v-145h-743zM59 612h289v289h137v-289h289v-137h-289v-289h-137v289h-289v137z" />
    <glyph glyph-name="uni00B0" unicode="&#xb0;" horiz-adv-x="608" 
d="M437 823q0 27 -11 51t-30 42.5t-43.5 29t-51.5 10.5q-26 0 -49.5 -10.5t-41.5 -29t-29 -42.5t-11 -51q0 -29 10.5 -54t28.5 -43t42.5 -28t51.5 -10t51 10t42.5 28t29.5 43t11 54zM533 823q0 -47 -18.5 -89t-50 -73.5t-73 -50t-88.5 -18.5q-46 0 -87.5 18.5t-73 50
t-50 73.5t-18.5 89q0 45 18.5 86t50 72.5t73 50.5t87.5 19q47 0 88.5 -19t73 -50.5t50 -72.5t18.5 -86z" />
    <glyph glyph-name="uni00AE" unicode="&#xae;" horiz-adv-x="1257" 
d="M524 748v-173h92q60 0 97.5 4t58.5 14.5t28.5 27.5t7.5 43q0 84 -135 84h-149zM921 662q0 -164 -172 -183l180 -276h-131l-170 274h-104v-274h-111v635h278q230 0 230 -176zM630 72q92 0 173.5 35.5t142 97t95.5 143.5t35 174q0 91 -35.5 172.5t-96 142.5t-142 96.5
t-172.5 35.5t-172.5 -35.5t-142.5 -96t-97 -142t-36 -173.5t34.5 -174t95 -143.5t142 -97t176.5 -35.5zM630 -33q-114 0 -214.5 44t-176.5 120t-120 176.5t-44 214.5t44 214t120 175t176.5 118.5t214.5 43.5q112 0 212 -43.5t175.5 -118.5t119.5 -175.5t44 -213.5
q0 -114 -43.5 -214.5t-118.5 -176.5t-175.5 -120t-213.5 -44z" />
    <glyph glyph-name="uni00AC" unicode="&#xac;" horiz-adv-x="874" 
d="M600 113v272h-598v145h743v-417h-145z" />
    <glyph glyph-name="uni00A9" unicode="&#xa9;" horiz-adv-x="1257" 
d="M921 444q-7 -56 -30.5 -102t-59 -78t-81.5 -49.5t-97 -17.5q-71 0 -129 25t-99 69t-63.5 104t-22.5 131q0 70 21.5 129.5t61.5 102.5t97.5 67.5t128.5 24.5q109 0 181.5 -62.5t93.5 -177.5h-119q-5 31 -18.5 57t-34 44.5t-47 28.5t-56.5 10q-46 0 -82 -16t-60.5 -45.5
t-37 -70.5t-12.5 -90q0 -48 14 -89t40 -71t62 -47.5t81 -17.5q28 0 54 10t46 28t33.5 44t17.5 59h117zM630 72q92 0 173.5 35.5t142 97t95.5 143.5t35 174q0 91 -35.5 172.5t-96 142.5t-142 96.5t-172.5 35.5t-172.5 -35.5t-142.5 -96t-97 -142t-36 -173.5t34.5 -174
t95 -143.5t142 -97t176.5 -35.5zM630 -33q-114 0 -214.5 44t-176.5 120t-120 176.5t-44 214.5t44 214t120 175t176.5 118.5t214.5 43.5q112 0 212 -43.5t175.5 -118.5t119.5 -175.5t44 -213.5q0 -114 -43.5 -214.5t-118.5 -176.5t-175.5 -120t-213.5 -44z" />
    <glyph glyph-name="uni05D305B8" horiz-adv-x="832" 
d="M748 664h-116v-664h-166v664h-412v143h694v-143zM706 -252h-104l2 -49q20 -16 20 -49q0 -25 -18.5 -43.5t-44.5 -18.5q-23 0 -43.5 18.5t-20.5 43.5q0 24 17 43v55h-109v94h301v-94z" />
    <glyph glyph-name="uni05D305B7" horiz-adv-x="832" 
d="M763 664h-116v-664h-166v664h-412v143h694v-143zM718 -252h-301v92h301v-92z" />
    <glyph glyph-name="uni05D305B5" horiz-adv-x="832" 
d="M763 664h-116v-664h-166v664h-412v143h694v-143zM657 -212q0 -27 -18 -45t-45 -18q-29 0 -46.5 17t-17.5 46q0 25 17.5 44.5t46.5 19.5q24 0 43.5 -18.5t19.5 -45.5zM473 -212q0 -27 -18.5 -45t-44.5 -18q-29 0 -46.5 17t-17.5 46q0 25 17.5 44.5t46.5 19.5
q24 0 43.5 -18.5t19.5 -45.5z" />
    <glyph glyph-name="uni05D305B6" horiz-adv-x="832" 
d="M719 664h-116v-664h-166v664h-412v143h694v-143zM666 -211q0 -27 -18 -45t-45 -18q-29 0 -46.5 17t-17.5 46q0 25 17.5 44.5t46.5 19.5q24 0 43.5 -18.5t19.5 -45.5zM482 -211q0 -27 -18.5 -45t-44.5 -18q-29 0 -46.5 17t-17.5 46q0 25 17.5 44.5t46.5 19.5
q24 0 43.5 -18.5t19.5 -45.5zM574 -395q0 -27 -18.5 -45.5t-44.5 -18.5q-29 0 -46.5 17.5t-17.5 46.5q0 24 17.5 43.5t46.5 19.5q24 0 43.5 -18.5t19.5 -44.5z" />
    <glyph glyph-name="uni05D305B4" horiz-adv-x="832" 
d="M763 664h-116v-664h-166v664h-412v143h694v-143zM642 -223q0 -27 -18.5 -45.5t-44.5 -18.5q-29 0 -46.5 17.5t-17.5 46.5q0 24 17.5 43.5t46.5 19.5q24 0 43.5 -18.5t19.5 -44.5z" />
    <glyph glyph-name="uni05D305B0" horiz-adv-x="832" 
d="M763 664h-116v-664h-166v664h-412v143h694v-143zM622 -211q0 -27 -18.5 -45t-44.5 -18q-29 0 -46.5 17t-17.5 46q0 25 17.5 44.5t46.5 19.5q24 0 43.5 -18.5t19.5 -45.5zM622 -395q0 -27 -18.5 -45.5t-44.5 -18.5q-29 0 -46.5 17.5t-17.5 46.5q0 24 17.5 43.5t46.5 19.5
q24 0 43.5 -18.5t19.5 -44.5z" />
    <glyph glyph-name="uni05D305B2" horiz-adv-x="832" 
d="M763 664h-116v-664h-166v664h-412v143h694v-143zM741 -211q0 -27 -18.5 -45t-45.5 -18q-28 0 -45.5 17t-17.5 46q0 25 17.5 44.5t45.5 19.5q25 0 44.5 -18.5t19.5 -45.5zM741 -395q0 -27 -18.5 -45.5t-45.5 -18.5q-28 0 -45.5 17.5t-17.5 46.5q0 24 17.5 43.5t45.5 19.5
q25 0 44.5 -18.5t19.5 -44.5zM546 -252h-301v94h301v-94z" />
    <glyph glyph-name="uni05D305B1" horiz-adv-x="832" 
d="M739 664h-116v-664h-166v664h-412v143h694v-143zM630 -207q0 -27 -18.5 -45t-45.5 -18q-28 0 -45.5 17t-17.5 46q0 25 17.5 44.5t45.5 19.5q25 0 44.5 -18.5t19.5 -45.5zM445 -207q0 -27 -18 -45t-45 -18q-29 0 -46.5 17t-17.5 46q0 25 17.5 44.5t46.5 19.5
q24 0 43.5 -18.5t19.5 -45.5zM630 -391q0 -27 -18.5 -45.5t-45.5 -18.5q-28 0 -45.5 17.5t-17.5 46.5q0 24 17.5 43.5t45.5 19.5q25 0 44.5 -18.5t19.5 -44.5zM261 -207q0 -27 -18.5 -45t-44.5 -18q-29 0 -46.5 17t-17.5 46q0 25 17.5 44.5t46.5 19.5q24 0 43.5 -18.5
t19.5 -45.5zM353 -391q0 -27 -18.5 -45.5t-44.5 -18.5q-29 0 -46.5 17.5t-17.5 46.5q0 24 17.5 43.5t46.5 19.5q24 0 43.5 -18.5t19.5 -44.5z" />
    <glyph glyph-name="uni05D305BB" horiz-adv-x="832" 
d="M709 664h-116v-664h-166v664h-412v143h694v-143zM718 -400q0 -27 -17.5 -45.5t-46.5 -18.5q-27 0 -44 17.5t-17 46.5q0 24 17 43.5t44 19.5q25 0 44.5 -18.5t19.5 -44.5zM580 -308q0 -27 -18.5 -45.5t-44.5 -18.5q-29 0 -46.5 17.5t-17.5 46.5q0 24 17.5 43.5t46.5 19.5
q24 0 43.5 -18t19.5 -45zM441 -216q0 -27 -17.5 -45t-45.5 -18q-27 0 -44.5 17t-17.5 46q0 25 17.5 44.5t44.5 19.5q24 0 43.5 -18.5t19.5 -45.5z" />
    <glyph glyph-name="uni05D305B9" horiz-adv-x="832" 
d="M763 664h-116v-664h-166v664h-412v143h694v-143zM220 950q0 -63 -63 -63q-29 0 -46.5 17.5t-17.5 45.5q0 64 64 64q63 0 63 -64z" />
    <glyph glyph-name="uni05E705B8" horiz-adv-x="846" 
d="M265 -301h-166v766h166v-766zM747 156q0 -37 -14 -66t-36 -49t-49.5 -30.5t-54.5 -10.5h-180v141h131q12 0 22.5 5.5t17.5 13t11 15t4 11.5v478h-504l5 143h652zM744 -252h-104l2 -49q20 -16 20 -49q0 -25 -18.5 -43.5t-44.5 -18.5q-23 0 -43.5 18.5t-20.5 43.5
q0 24 17 43v55h-109v94h301v-94z" />
    <glyph glyph-name="uni05E705B7" horiz-adv-x="846" 
d="M265 -301h-166v766h166v-766zM747 156q0 -37 -14 -66t-36 -49t-49.5 -30.5t-54.5 -10.5h-180v141h131q12 0 22.5 5.5t17.5 13t11 15t4 11.5v478h-504l5 143h652zM750 -252h-301v92h301v-92z" />
    <glyph glyph-name="uni05E705B5" horiz-adv-x="846" 
d="M264 -301h-166v766h166v-766zM746 156q0 -37 -14 -66t-36 -49t-49.5 -30.5t-54.5 -10.5h-180v141h131q12 0 22.5 5.5t17.5 13t11 15t4 11.5v478h-504l5 143h652zM752 -211q0 -27 -18 -45t-45 -18q-29 0 -46.5 17t-17.5 46q0 25 17.5 44.5t46.5 19.5q24 0 43.5 -18.5
t19.5 -45.5zM568 -211q0 -27 -18.5 -45t-44.5 -18q-29 0 -46.5 17t-17.5 46q0 25 17.5 44.5t46.5 19.5q24 0 43.5 -18.5t19.5 -45.5z" />
    <glyph glyph-name="uni05E705B6" horiz-adv-x="846" 
d="M216 -301h-166v766h166v-766zM698 156q0 -37 -14 -66t-36 -49t-49.5 -30.5t-54.5 -10.5h-180v141h131q12 0 22.5 5.5t17.5 13t11 15t4 11.5v478h-504l5 143h652zM677 -212q0 -27 -18 -45t-45 -18q-29 0 -46.5 17t-17.5 46q0 25 17.5 44.5t46.5 19.5q24 0 43.5 -18.5
t19.5 -45.5zM493 -212q0 -27 -18.5 -45t-44.5 -18q-29 0 -46.5 17t-17.5 46q0 25 17.5 44.5t46.5 19.5q24 0 43.5 -18.5t19.5 -45.5zM585 -396q0 -27 -18.5 -45.5t-44.5 -18.5q-29 0 -46.5 17.5t-17.5 46.5q0 24 17.5 43.5t46.5 19.5q24 0 43.5 -18.5t19.5 -44.5z" />
    <glyph glyph-name="uni05E705B4" horiz-adv-x="846" 
d="M256 -301h-166v766h166v-766zM738 156q0 -37 -14 -66t-36 -49t-49.5 -30.5t-54.5 -10.5h-180v141h131q12 0 22.5 5.5t17.5 13t11 15t4 11.5v478h-504l5 143h652zM713 -227q0 -27 -18.5 -45.5t-44.5 -18.5q-29 0 -46.5 17.5t-17.5 46.5q0 24 17.5 43.5t46.5 19.5
q24 0 43.5 -18.5t19.5 -44.5z" />
    <glyph glyph-name="uni05E705B0" horiz-adv-x="846" 
d="M253 -301h-166v766h166v-766zM735 156q0 -37 -14 -66t-36 -49t-49.5 -30.5t-54.5 -10.5h-180v141h131q12 0 22.5 5.5t17.5 13t11 15t4 11.5v478h-504l5 143h652zM710 -201q0 -27 -18.5 -45t-44.5 -18q-29 0 -46.5 17t-17.5 46q0 25 17.5 44.5t46.5 19.5q24 0 43.5 -18.5
t19.5 -45.5zM710 -385q0 -27 -18.5 -45.5t-44.5 -18.5q-29 0 -46.5 17.5t-17.5 46.5q0 24 17.5 43.5t46.5 19.5q24 0 43.5 -18.5t19.5 -44.5z" />
    <glyph glyph-name="uni05E705B2" horiz-adv-x="846" 
d="M192 -301h-166v766h166v-766zM674 156q0 -37 -14 -66t-36 -49t-49.5 -30.5t-54.5 -10.5h-180v141h131q12 0 22.5 5.5t17.5 13t11 15t4 11.5v478h-504l5 143h652zM738 -211q0 -27 -18.5 -45t-45.5 -18q-28 0 -45.5 17t-17.5 46q0 25 17.5 44.5t45.5 19.5q25 0 44.5 -18.5
t19.5 -45.5zM738 -395q0 -27 -18.5 -45.5t-45.5 -18.5q-28 0 -45.5 17.5t-17.5 46.5q0 24 17.5 43.5t45.5 19.5q25 0 44.5 -18.5t19.5 -44.5zM543 -252h-301v94h301v-94z" />
    <glyph glyph-name="uni05E705B1" horiz-adv-x="846" 
d="M192 -301h-166v766h166v-766zM674 156q0 -37 -14 -66t-36 -49t-49.5 -30.5t-54.5 -10.5h-180v141h131q12 0 22.5 5.5t17.5 13t11 15t4 11.5v478h-504l5 143h652zM762 -211q0 -27 -18.5 -45t-45.5 -18q-28 0 -45.5 17t-17.5 46q0 25 17.5 44.5t45.5 19.5q25 0 44.5 -18.5
t19.5 -45.5zM577 -211q0 -27 -18 -45t-45 -18q-29 0 -46.5 17t-17.5 46q0 25 17.5 44.5t46.5 19.5q24 0 43.5 -18.5t19.5 -45.5zM762 -395q0 -27 -18.5 -45.5t-45.5 -18.5q-28 0 -45.5 17.5t-17.5 46.5q0 24 17.5 43.5t45.5 19.5q25 0 44.5 -18.5t19.5 -44.5zM393 -211
q0 -27 -18.5 -45t-44.5 -18q-29 0 -46.5 17t-17.5 46q0 25 17.5 44.5t46.5 19.5q24 0 43.5 -18.5t19.5 -45.5zM485 -395q0 -27 -18.5 -45.5t-44.5 -18.5q-29 0 -46.5 17.5t-17.5 46.5q0 24 17.5 43.5t46.5 19.5q24 0 43.5 -18.5t19.5 -44.5z" />
    <glyph glyph-name="uni05E705BB" horiz-adv-x="846" 
d="M186 -301h-166v766h166v-766zM668 156q0 -37 -14 -66t-36 -49t-49.5 -30.5t-54.5 -10.5h-180v141h131q12 0 22.5 5.5t17.5 13t11 15t4 11.5v478h-504l5 143h652zM674 -391q0 -27 -17.5 -45.5t-46.5 -18.5q-27 0 -44 17.5t-17 46.5q0 24 17 43.5t44 19.5q25 0 44.5 -18.5
t19.5 -44.5zM536 -299q0 -27 -18.5 -45.5t-44.5 -18.5q-29 0 -46.5 17.5t-17.5 46.5q0 24 17.5 43.5t46.5 19.5q24 0 43.5 -18t19.5 -45zM397 -207q0 -27 -17.5 -45t-45.5 -18q-27 0 -44.5 17t-17.5 46q0 25 17.5 44.5t44.5 19.5q24 0 43.5 -18.5t19.5 -45.5z" />
    <glyph glyph-name="uni05E705B9" horiz-adv-x="846" 
d="M286 -301h-166v766h166v-766zM768 156q0 -37 -14 -66t-36 -49t-49.5 -30.5t-54.5 -10.5h-180v141h131q12 0 22.5 5.5t17.5 13t11 15t4 11.5v478h-504l5 143h652zM266 950q0 -63 -63 -63q-29 0 -46.5 17.5t-17.5 45.5q0 64 64 64q63 0 63 -64z" />
    <glyph glyph-name="uni05E805B8" horiz-adv-x="768" 
d="M676 0h-166v399q0 66 -12 116.5t-43.5 85t-86 52t-140.5 17.5q-42 0 -91.5 -4.5t-109.5 -12.5l-10 144q135 18 221 18q114 0 197 -21.5t136.5 -67.5t79 -118t25.5 -174v-434zM750 -252h-104l2 -49q20 -16 20 -49q0 -25 -18.5 -43.5t-44.5 -18.5q-23 0 -43.5 18.5
t-20.5 43.5q0 24 17 43v55h-109v94h301v-94z" />
    <glyph glyph-name="uni05E805B7" horiz-adv-x="768" 
d="M676 0h-166v399q0 66 -12 116.5t-43.5 85t-86 52t-140.5 17.5q-42 0 -91.5 -4.5t-109.5 -12.5l-10 144q135 18 221 18q114 0 197 -21.5t136.5 -67.5t79 -118t25.5 -174v-434zM751 -252h-301v92h301v-92z" />
    <glyph glyph-name="uni05E805B5" horiz-adv-x="768" 
d="M675 0h-166v399q0 66 -12 116.5t-43.5 85t-86 52t-140.5 17.5q-42 0 -91.5 -4.5t-109.5 -12.5l-10 144q135 18 221 18q114 0 197 -21.5t136.5 -67.5t79 -118t25.5 -174v-434zM752 -212q0 -27 -18 -45t-45 -18q-29 0 -46.5 17t-17.5 46q0 25 17.5 44.5t46.5 19.5
q24 0 43.5 -18.5t19.5 -45.5zM568 -212q0 -27 -18.5 -45t-44.5 -18q-29 0 -46.5 17t-17.5 46q0 25 17.5 44.5t46.5 19.5q24 0 43.5 -18.5t19.5 -45.5z" />
    <glyph glyph-name="uni05E805B6" horiz-adv-x="768" 
d="M678 0h-166v399q0 66 -12 116.5t-43.5 85t-86 52t-140.5 17.5q-42 0 -91.5 -4.5t-109.5 -12.5l-10 144q135 18 221 18q114 0 197 -21.5t136.5 -67.5t79 -118t25.5 -174v-434zM749 -211q0 -27 -18 -45t-45 -18q-29 0 -46.5 17t-17.5 46q0 25 17.5 44.5t46.5 19.5
q24 0 43.5 -18.5t19.5 -45.5zM565 -211q0 -27 -18.5 -45t-44.5 -18q-29 0 -46.5 17t-17.5 46q0 25 17.5 44.5t46.5 19.5q24 0 43.5 -18.5t19.5 -45.5zM657 -395q0 -27 -18.5 -45.5t-44.5 -18.5q-29 0 -46.5 17.5t-17.5 46.5q0 24 17.5 43.5t46.5 19.5q24 0 43.5 -18.5
t19.5 -44.5z" />
    <glyph glyph-name="uni05E805B4" horiz-adv-x="768" 
d="M713 0h-166v399q0 66 -12 116.5t-43.5 85t-86 52t-140.5 17.5q-42 0 -91.5 -4.5t-109.5 -12.5l-10 144q135 18 221 18q114 0 197 -21.5t136.5 -67.5t79 -118t25.5 -174v-434zM694 -227q0 -27 -18.5 -45.5t-44.5 -18.5q-29 0 -46.5 17.5t-17.5 46.5q0 24 17.5 43.5
t46.5 19.5q24 0 43.5 -18.5t19.5 -44.5z" />
    <glyph glyph-name="uni05E805B0" horiz-adv-x="768" 
d="M713 0h-166v399q0 66 -12 116.5t-43.5 85t-86 52t-140.5 17.5q-42 0 -91.5 -4.5t-109.5 -12.5l-10 144q135 18 221 18q114 0 197 -21.5t136.5 -67.5t79 -118t25.5 -174v-434zM692 -211q0 -27 -18.5 -45t-44.5 -18q-29 0 -46.5 17t-17.5 46q0 25 17.5 44.5t46.5 19.5
q24 0 43.5 -18.5t19.5 -45.5zM692 -395q0 -27 -18.5 -45.5t-44.5 -18.5q-29 0 -46.5 17.5t-17.5 46.5q0 24 17.5 43.5t46.5 19.5q24 0 43.5 -18.5t19.5 -44.5z" />
    <glyph glyph-name="uni05E805B2" horiz-adv-x="768" 
d="M653 0h-166v399q0 66 -12 116.5t-43.5 85t-86 52t-140.5 17.5q-42 0 -91.5 -4.5t-109.5 -12.5l-10 144q135 18 221 18q114 0 197 -21.5t136.5 -67.5t79 -118t25.5 -174v-434zM663 -211q0 -27 -18.5 -45t-45.5 -18q-28 0 -45.5 17t-17.5 46q0 25 17.5 44.5t45.5 19.5
q25 0 44.5 -18.5t19.5 -45.5zM663 -395q0 -27 -18.5 -45.5t-45.5 -18.5q-28 0 -45.5 17.5t-17.5 46.5q0 24 17.5 43.5t45.5 19.5q25 0 44.5 -18.5t19.5 -44.5zM468 -252h-301v94h301v-94z" />
    <glyph glyph-name="uni05E805B1" horiz-adv-x="768" 
d="M672 0h-166v399q0 66 -12 116.5t-43.5 85t-86 52t-140.5 17.5q-42 0 -91.5 -4.5t-109.5 -12.5l-10 144q135 18 221 18q114 0 197 -21.5t136.5 -67.5t79 -118t25.5 -174v-434zM673 -205q0 -27 -18.5 -45t-45.5 -18q-28 0 -45.5 17t-17.5 46q0 25 17.5 44.5t45.5 19.5
q25 0 44.5 -18.5t19.5 -45.5zM488 -205q0 -27 -18 -45t-45 -18q-29 0 -46.5 17t-17.5 46q0 25 17.5 44.5t46.5 19.5q24 0 43.5 -18.5t19.5 -45.5zM673 -389q0 -27 -18.5 -45.5t-45.5 -18.5q-28 0 -45.5 17.5t-17.5 46.5q0 24 17.5 43.5t45.5 19.5q25 0 44.5 -18.5
t19.5 -44.5zM304 -205q0 -27 -18.5 -45t-44.5 -18q-29 0 -46.5 17t-17.5 46q0 25 17.5 44.5t46.5 19.5q24 0 43.5 -18.5t19.5 -45.5zM396 -389q0 -27 -18.5 -45.5t-44.5 -18.5q-29 0 -46.5 17.5t-17.5 46.5q0 24 17.5 43.5t46.5 19.5q24 0 43.5 -18.5t19.5 -44.5z" />
    <glyph glyph-name="uni05E805BB" horiz-adv-x="768" 
d="M671 0h-166v399q0 66 -12 116.5t-43.5 85t-86 52t-140.5 17.5q-42 0 -91.5 -4.5t-109.5 -12.5l-10 144q135 18 221 18q114 0 197 -21.5t136.5 -67.5t79 -118t25.5 -174v-434zM707 -395q0 -27 -17.5 -45.5t-46.5 -18.5q-27 0 -44 17.5t-17 46.5q0 24 17 43.5t44 19.5
q25 0 44.5 -18.5t19.5 -44.5zM569 -303q0 -27 -18.5 -45.5t-44.5 -18.5q-29 0 -46.5 17.5t-17.5 46.5q0 24 17.5 43.5t46.5 19.5q24 0 43.5 -18t19.5 -45zM430 -211q0 -27 -17.5 -45t-45.5 -18q-27 0 -44.5 17t-17.5 46q0 25 17.5 44.5t44.5 19.5q24 0 43.5 -18.5
t19.5 -45.5z" />
    <glyph glyph-name="uni05E8059" horiz-adv-x="768" 
d="M713 0h-166v399q0 66 -12 116.5t-43.5 85t-86 52t-140.5 17.5q-42 0 -91.5 -4.5t-109.5 -12.5l-10 144q135 18 221 18q114 0 197 -21.5t136.5 -67.5t79 -118t25.5 -174v-434zM198 950q0 -63 -63 -63q-29 0 -46.5 17.5t-17.5 45.5q0 64 64 64q63 0 63 -64z" />
    <glyph glyph-name="uni05DA05B8" unicode="&#xe803;" horiz-adv-x="755" 
d="M682 -299h-166v698q0 79 -17 131.5t-51.5 83.5t-87 43.5t-124.5 12.5q-42 0 -91.5 -4.5t-109.5 -12.5l-10 144q68 9 121.5 13.5t97.5 4.5q115 0 198 -21t136 -66.5t78.5 -118t25.5 -175.5v-733zM420 311h-104l2 -49q20 -16 20 -49q0 -25 -18.5 -43.5t-44.5 -18.5
q-23 0 -43.5 18.5t-20.5 43.5q0 24 17 43v55h-109v94h301v-94z" />
    <glyph glyph-name="uni05DA05B0" unicode="&#xe802;" horiz-adv-x="755" 
d="M682 -299h-166v698q0 79 -17 131.5t-51.5 83.5t-87 43.5t-124.5 12.5q-42 0 -91.5 -4.5t-109.5 -12.5l-10 144q68 9 121.5 13.5t97.5 4.5q115 0 198 -21t136 -66.5t78.5 -118t25.5 -175.5v-733zM348 405q0 -27 -18.5 -45t-44.5 -18q-29 0 -46.5 17t-17.5 46
q0 25 17.5 44.5t46.5 19.5q24 0 43.5 -18.5t19.5 -45.5zM348 221q0 -27 -18.5 -45.5t-44.5 -18.5q-29 0 -46.5 17.5t-17.5 46.5q0 24 17.5 43.5t46.5 19.5q24 0 43.5 -18.5t19.5 -44.5z" />
    <glyph glyph-name="uni05C1" unicode="&#x5c1;" horiz-adv-x="1044" 
d="M958 950q0 -26 -20 -44.5t-43 -18.5q-64 0 -64 63q0 64 64 64q20 0 41.5 -16.5t21.5 -47.5z" />
    <glyph glyph-name="uni05C2" unicode="&#x5c2;" 
d="M137 950q0 -26 -20.5 -44.5t-42.5 -18.5q-64 0 -64 63q0 64 64 64q63 0 63 -64z" />
    <glyph glyph-name="uni05D905D905B7" unicode="&#xfb1f;" horiz-adv-x="1024" 
d="M854 4h-606v125h606v-125zM440 524h-196v551h196v-551zM866 518h-196v551h196v-551z" />
    <glyph glyph-name="uni05BD" unicode="&#x5bd;" 
d="M98 -156v-301h-94v301h94z" />
    <glyph glyph-name="uni05BE" unicode="&#x5be;" horiz-adv-x="500" 
d="M449 668h-402v118h402v-118z" />
    <glyph glyph-name="uni20AA" unicode="&#x20aa;" horiz-adv-x="1024" 
d="M934 172q0 -172 -180 -172h-435v457h107v-365h305q96 0 96 90v494h107v-504zM680 219h-107v275q0 92 -94 92h-305v-586h-108v676h434q180 0 180 -172v-285z" />
    <glyph glyph-name="uni05BC" unicode="&#x5bc;" horiz-adv-x="141" 
d="M135 434q0 -26 -18.5 -44.5t-44.5 -18.5q-29 0 -46.5 17.5t-17.5 45.5q0 25 17.5 44.5t46.5 19.5q24 0 43.5 -18.5t19.5 -45.5z" />
    <glyph glyph-name="uni05B8" unicode="&#x5b8;" 
d="M305 -252h-104l2 -49q20 -16 20 -49q0 -25 -18.5 -43.5t-44.5 -18.5q-23 0 -43.5 18.5t-20.5 43.5q0 24 17 43v55h-109v94h301v-94z" />
    <glyph glyph-name="uni05B7" unicode="&#x5b7;" 
d="M305 -252h-301v92h301v-92z" />
    <glyph glyph-name="uni05B5" unicode="&#x5b5;" 
d="M315 -211q0 -27 -18 -45t-45 -18q-29 0 -46.5 17t-17.5 46q0 25 17.5 44.5t46.5 19.5q24 0 43.5 -18.5t19.5 -45.5zM131 -211q0 -27 -18.5 -45t-44.5 -18q-29 0 -46.5 17t-17.5 46q0 25 17.5 44.5t46.5 19.5q24 0 43.5 -18.5t19.5 -45.5z" />
    <glyph glyph-name="uni05B6" unicode="&#x5b6;" 
d="M315 -211q0 -27 -18 -45t-45 -18q-29 0 -46.5 17t-17.5 46q0 25 17.5 44.5t46.5 19.5q24 0 43.5 -18.5t19.5 -45.5zM131 -211q0 -27 -18.5 -45t-44.5 -18q-29 0 -46.5 17t-17.5 46q0 25 17.5 44.5t46.5 19.5q24 0 43.5 -18.5t19.5 -45.5zM223 -395q0 -27 -18.5 -45.5
t-44.5 -18.5q-29 0 -46.5 17.5t-17.5 46.5q0 24 17.5 43.5t46.5 19.5q24 0 43.5 -18.5t19.5 -44.5z" />
    <glyph glyph-name="uni05B4" unicode="&#x5b4;" 
d="M131 -227q0 -27 -18.5 -45.5t-44.5 -18.5q-29 0 -46.5 17.5t-17.5 46.5q0 24 17.5 43.5t46.5 19.5q24 0 43.5 -18.5t19.5 -44.5z" />
    <glyph glyph-name="uni05BF" unicode="&#x5bf;" 
d="M229 891h-229v74h229v-74z" />
    <glyph glyph-name="uni05B0" unicode="&#x5b0;" 
d="M131 -211q0 -27 -18.5 -45t-44.5 -18q-29 0 -46.5 17t-17.5 46q0 25 17.5 44.5t46.5 19.5q24 0 43.5 -18.5t19.5 -45.5zM131 -395q0 -27 -18.5 -45.5t-44.5 -18.5q-29 0 -46.5 17.5t-17.5 46.5q0 24 17.5 43.5t46.5 19.5q24 0 43.5 -18.5t19.5 -44.5z" />
    <glyph glyph-name="uni05B2" unicode="&#x5b2;" 
d="M500 -211q0 -27 -18.5 -45t-45.5 -18q-28 0 -45.5 17t-17.5 46q0 25 17.5 44.5t45.5 19.5q25 0 44.5 -18.5t19.5 -45.5zM500 -395q0 -27 -18.5 -45.5t-45.5 -18.5q-28 0 -45.5 17.5t-17.5 46.5q0 24 17.5 43.5t45.5 19.5q25 0 44.5 -18.5t19.5 -44.5zM305 -252h-301v94
h301v-94z" />
    <glyph glyph-name="uni05B1" unicode="&#x5b1;" 
d="M500 -211q0 -27 -18.5 -45t-45.5 -18q-28 0 -45.5 17t-17.5 46q0 25 17.5 44.5t45.5 19.5q25 0 44.5 -18.5t19.5 -45.5zM315 -211q0 -27 -18 -45t-45 -18q-29 0 -46.5 17t-17.5 46q0 25 17.5 44.5t46.5 19.5q24 0 43.5 -18.5t19.5 -45.5zM500 -395q0 -27 -18.5 -45.5
t-45.5 -18.5q-28 0 -45.5 17.5t-17.5 46.5q0 24 17.5 43.5t45.5 19.5q25 0 44.5 -18.5t19.5 -44.5zM131 -211q0 -27 -18.5 -45t-44.5 -18q-29 0 -46.5 17t-17.5 46q0 25 17.5 44.5t46.5 19.5q24 0 43.5 -18.5t19.5 -45.5zM223 -395q0 -27 -18.5 -45.5t-44.5 -18.5
q-29 0 -46.5 17.5t-17.5 46.5q0 24 17.5 43.5t46.5 19.5q24 0 43.5 -18.5t19.5 -44.5z" />
    <glyph glyph-name="uni05BB" unicode="&#x5bb;" 
d="M408 -395q0 -27 -17.5 -45.5t-46.5 -18.5q-27 0 -44 17.5t-17 46.5q0 24 17 43.5t44 19.5q25 0 44.5 -18.5t19.5 -44.5zM270 -303q0 -27 -18.5 -45.5t-44.5 -18.5q-29 0 -46.5 17.5t-17.5 46.5q0 24 17.5 43.5t46.5 19.5q24 0 43.5 -18t19.5 -45zM131 -211
q0 -27 -17.5 -45t-45.5 -18q-27 0 -44.5 17t-17.5 46q0 25 17.5 44.5t44.5 19.5q24 0 43.5 -18.5t19.5 -45.5z" />
    <glyph glyph-name="uni05B9" unicode="&#x5b9;" 
d="M133 950q0 -63 -63 -63q-29 0 -46.5 17.5t-17.5 45.5q0 64 64 64q63 0 63 -64z" />
    <glyph glyph-name="uni05B3" unicode="&#x5b3;" 
d="M500 -211q0 -27 -18.5 -45t-45.5 -18q-28 0 -45.5 17t-17.5 46q0 25 17.5 44.5t45.5 19.5q25 0 44.5 -18.5t19.5 -45.5zM500 -395q0 -27 -18.5 -45.5t-45.5 -18.5q-28 0 -45.5 17.5t-17.5 46.5q0 24 17.5 43.5t45.5 19.5q25 0 44.5 -18.5t19.5 -44.5zM305 -252h-106
l4 -49q20 -16 20 -49q0 -25 -18.5 -43.5t-44.5 -18.5q-23 0 -43.5 18.5t-20.5 43.5q0 24 17 43v55h-109v94h301v-94z" />
    <glyph glyph-name="uni05D0" unicode="&#x5d0;" horiz-adv-x="829" 
d="M809 0h-203l-295 418q-32 -22 -49.5 -57t-17.5 -78v-283h-170v283q0 88 37 152.5t112 105.5l-94.5 133.5l-93.5 132.5h203l247 -348q19 15 38 39t35 50.5t26 50.5t10 38v172h154v-176q0 -32 -13 -71.5t-36.5 -80.5t-56.5 -78.5t-73 -64.5z" />
    <glyph glyph-name="uni05D1" unicode="&#x5d1;" horiz-adv-x="768" 
d="M743 0h-712v143h452v256q0 66 -10 116.5t-41.5 85t-90.5 52t-157 17.5q-11 0 -42 -3t-85 -10l-16 140q59 9 106.5 13.5t88.5 4.5q213 0 313 -93t100 -288v-291h94v-143z" />
    <glyph glyph-name="uni05D2" unicode="&#x5d2;" horiz-adv-x="614" 
d="M569 0h-163l-56 238q-29 -4 -60.5 -41.5t-68.5 -108.5l-49 -88h-170l72 139q28 53 62 94t68.5 69.5t66.5 44.5t57 20v147q0 38 -4.5 67.5t-17.5 49t-37 29.5t-64 10q-11 0 -24 -1t-27 -3q-7 0 -20 -1t-19 -1l-15 133q34 9 68.5 13.5t64.5 4.5q77 0 127 -19t79.5 -56
t41 -92.5t11.5 -127.5v-239z" />
    <glyph glyph-name="uni05D3" unicode="&#x5d3;" horiz-adv-x="768" 
d="M737 664h-116v-664h-166v664h-412v143h694v-143z" />
    <glyph glyph-name="uni05D4" unicode="&#x5d4;" horiz-adv-x="844" 
d="M233 0h-163v465h163v-465zM776 0h-166v399q0 72 -12 123.5t-45.5 84.5t-92.5 48t-153 15q-48 0 -105 -6t-128 -17l-17 144q145 24 275 24q115 0 199 -19.5t138.5 -64.5t80.5 -118t26 -179v-434z" />
    <glyph glyph-name="uni05D5" unicode="&#x5d5;" horiz-adv-x="385" 
d="M276 0h-167v807h167v-807z" />
    <glyph glyph-name="uni05D6" unicode="&#x5d6;" horiz-adv-x="614" 
d="M561 682q-55 0 -100 -15.5t-76.5 -45t-48.5 -71t-17 -93.5q0 -17 3.5 -35t6.5 -45q8 -85 12.5 -150.5t4.5 -105.5v-121h-166v139q0 29 -3 90t-11 152v-2q-5 35 -5.5 58t-0.5 34q0 28 5 57t15.5 56.5t25 52.5t34.5 45h-179v125h500v-125z" />
    <glyph glyph-name="uni05D7" unicode="&#x5d7;" horiz-adv-x="922" 
d="M817 0h-166v436q0 62 -9.5 105t-36.5 70t-75.5 41t-126.5 18q-32 0 -62 -2t-65 -9v-659h-166v567l97 97h-99v124q92 14 166.5 20.5t137.5 6.5q108 0 185 -21t125.5 -65t71.5 -113t23 -165v-451z" />
    <glyph glyph-name="uni05D8" unicode="&#x5d8;" horiz-adv-x="922" 
d="M821 436q0 -167 -28 -243q-17 -45 -46 -83.5t-71 -67.5t-97 -45.5t-122 -16.5q-56 0 -106.5 15.5t-93.5 42.5t-75.5 64t-50.5 80q-15 42 -24 102.5t-9 141.5v381h166v-418q0 -272 193 -272q59 0 97 17t60.5 53t31.5 92.5t9 136.5v98q0 81 -20.5 120.5t-65.5 39.5
q-66 0 -127 -88l-59 94q43 72 97.5 107.5t119.5 35.5q221 0 221 -329v-58z" />
    <glyph glyph-name="uni05D9" unicode="&#x5d9;" horiz-adv-x="385" 
d="M275 377h-166v430h166v-430z" />
    <glyph glyph-name="uni05DA" unicode="&#x5da;" horiz-adv-x="744" 
d="M682 -299h-166v698q0 79 -17 131.5t-51.5 83.5t-87 43.5t-124.5 12.5q-42 0 -91.5 -4.5t-109.5 -12.5l-10 144q68 9 121.5 13.5t97.5 4.5q115 0 198 -21t136 -66.5t78.5 -118t25.5 -175.5v-733z" />
    <glyph glyph-name="uni05DB" unicode="&#x5db;" horiz-adv-x="690" 
d="M647 403q0 -85 -27 -160.5t-81 -132t-134 -89.5t-186 -33q-38 0 -79 6t-91 18l25 154q42 -12 79 -19.5t72 -7.5q58 0 104 18.5t78 52.5t49 83t17 110q0 58 -16 106.5t-47.5 83.5t-77.5 55t-107 20q-35 0 -72 -7t-79 -18l-25 152q50 12 91 18t79 6q97 0 176 -30t135 -84.5
t86.5 -131t30.5 -170.5z" />
    <glyph glyph-name="uni05DC" unicode="&#x5dc;" horiz-adv-x="692" 
d="M623 158q0 -37 -14 -66.5t-36.5 -49.5t-51 -31t-56.5 -11h-178v143h129q14 0 24.5 5.5t17 13t10 15t3.5 11.5v478h-434v440h166v-299h420v-649z" />
    <glyph glyph-name="uni05DD" unicode="&#x5dd;" horiz-adv-x="922" 
d="M653 143v293q0 62 -10 105t-37.5 70t-76 41t-126.5 18q-31 0 -61.5 -2t-65.5 -9v-516h377zM819 0h-709v567l96 97h-96v124q91 14 165 20.5t137 6.5q108 0 185 -21t126.5 -65t72.5 -113t23 -165v-451z" />
    <glyph glyph-name="uni05DE" unicode="&#x5de;" horiz-adv-x="907" 
d="M825 0h-428v143h260v217q0 84 -4.5 143t-18 96t-38.5 54t-66 17q-83 0 -136.5 -94t-90.5 -277l-29.5 -149.5l-28.5 -149.5h-166l64 319q0 4 1 7t3 8q5 21 11.5 56.5t19.5 78.5l-59 169.5l-60 170.5h160l49 -154q21 33 51.5 62t65.5 51t72.5 34.5t74.5 12.5
q76 0 131.5 -24t91.5 -78t53 -142t17 -215v-356z" />
    <glyph glyph-name="uni05DF" unicode="&#x5df;" horiz-adv-x="385" 
d="M281 -299h-166v1106h166v-1106z" />
    <glyph glyph-name="uni05E0" unicode="&#x5e0;" horiz-adv-x="537" 
d="M471 0h-403v143h237v371q0 84 -26.5 118t-98.5 38q-10 -2 -26.5 -4l-34.5 -4l-10 135q69 18 102 18q141 0 200.5 -68.5t59.5 -226.5v-520z" />
    <glyph glyph-name="uni05E1" unicode="&#x5e1;" horiz-adv-x="844" 
d="M641 403q0 136 -52 210.5t-149 74.5q-98 0 -149 -79t-51 -208q0 -133 52 -206.5t148 -73.5q99 0 150 76.5t51 205.5zM819 401q0 -88 -24.5 -165.5t-71.5 -135t-119 -90.5t-164 -33q-86 0 -155.5 31t-118.5 86.5t-77 133t-28 173.5q0 97 28 175.5t77 134t118.5 86
t155.5 30.5q78 0 147.5 -27.5t121 -80.5t81 -133t29.5 -185z" />
    <glyph glyph-name="uni05E2" unicode="&#x5e2;" horiz-adv-x="768" 
d="M702 592l3 -23q0 -128 -14 -218t-50 -154t-98.5 -108.5t-159.5 -80.5q-59 -21 -144 -42t-204 -40l-25 144q62 11 122.5 25t117.5 34l-184 678h165l175 -629q21 10 37.5 20t29.5 23.5t22 31.5t17 44q35 113 35 258v248h155v-211z" />
    <glyph glyph-name="uni05E3" unicode="&#x5e3;" horiz-adv-x="844" 
d="M768 -299h-166v735q0 71 -16.5 117.5t-48 73.5t-77.5 38t-106 11q-68 0 -116 -12v-197q0 -78 77 -78q31 0 70 17l21 -130q-28 -11 -55.5 -16.5t-59.5 -5.5q-215 0 -215 217v305q74 20 145.5 29.5t140.5 9.5q105 0 182 -21.5t126.5 -66.5t73.5 -113.5t24 -162.5v-750z" />
    <glyph glyph-name="uni05E4" unicode="&#x5e4;" horiz-adv-x="844" 
d="M776 414q0 -199 -119.5 -312.5t-337.5 -113.5q-147 0 -241 61l41 139q80 -55 190 -55q131 0 213 74t82 205q0 120 -69.5 193t-180.5 73q-28 0 -56 -2t-54 -8v-133q0 -80 78 -80q16 0 33.5 4t37.5 10l21 -127q-29 -10 -55.5 -16.5t-59.5 -6.5q-213 0 -213 218v239
q143 43 279 43q94 0 169.5 -28.5t130 -82t83 -128t28.5 -166.5z" />
    <glyph glyph-name="uni05E5" unicode="&#x5e5;" horiz-adv-x="690" 
d="M639 811v-246q0 -42 -21 -86.5t-69 -91.5l-64 -63q-19 -18 -35 -30.5t-36 -25.5v-567h-166v604l-130.5 251.5l-129.5 250.5h176l188 -385q20 14 41 31.5t38 37.5t27.5 42t10.5 45v233h170z" />
    <glyph glyph-name="uni05E6" unicode="&#x5e6;" horiz-adv-x="768" 
d="M731 633q0 -32 -12.5 -72t-35.5 -80.5t-56 -78t-74 -64.5l145 -205v-133h-643v143h437l-237.5 332.5l-236.5 331.5h201l250 -348q18 14 36.5 38.5t33.5 50.5t24.5 50.5t9.5 38.5v170h158v-174z" />
    <glyph glyph-name="uni05E7" unicode="&#x5e7;" horiz-adv-x="846" 
d="M276 -301h-166v766h166v-766zM758 156q0 -37 -14 -66t-36 -49t-49.5 -30.5t-54.5 -10.5h-180v141h131q12 0 22.5 5.5t17.5 13t11 15t4 11.5v478h-504l5 143h652z" />
    <glyph glyph-name="uni05E8" unicode="&#x5e8;" horiz-adv-x="768" 
d="M684 0h-166v399q0 66 -12 116.5t-43.5 85t-86 52t-140.5 17.5q-42 0 -91.5 -4.5t-109.5 -12.5l-10 144q135 18 221 18q114 0 197 -21.5t136.5 -67.5t79 -118t25.5 -174v-434z" />
    <glyph glyph-name="uni05E9" unicode="&#x5e9;" horiz-adv-x="1044" 
d="M971 807q-6 -13 -7 -20t-1 -15v-268q0 -58 -16.5 -123.5t-46.5 -128t-71 -117t-90 -88.5q-100 -70 -260 -70q-65 0 -121 13.5t-104 45t-87.5 82.5t-69.5 126q-11 28 -16 84t-5 143v336h164v-414q37 1 76.5 11.5t72 31.5t53.5 53.5t21 77.5v240h151v-260q0 -53 -25.5 -103
t-72.5 -89.5t-113.5 -64.5t-148.5 -26q12 -30 33.5 -56t51 -45.5t66.5 -30.5t80 -11q41 0 76 9t67 29.5t61 55t58 85.5q56 98 56 159v348h168z" />
    <glyph glyph-name="uni05EA" unicode="&#x5ea;" horiz-adv-x="997" 
d="M885 0h-166v397q0 74 -9.5 126t-37.5 85t-78.5 48.5t-132.5 15.5h-74v-465q0 -52 -7 -92t-29 -67t-64.5 -40.5t-112.5 -13.5q-83 0 -149 29l28 129q28 -8 50 -12.5t42 -4.5q42 0 59 20.5t17 69.5v338l105 107q-25 -2 -47.5 -3t-45.5 -1q-8 0 -12 -1t-10 -3t-21 -5t-32 -6
l-15 140q97 14 160.5 19t104.5 5q119 0 208.5 -13.5t149 -54.5t89.5 -116t30 -197v-434z" />
    <glyph glyph-name="uni2215" unicode="&#x2215;" horiz-adv-x="1068" 
d="M-1 -43l927 1532h117l-928 -1532h-116z" />
    <glyph glyph-name="uni00660069" unicode="&#xfb01;" horiz-adv-x="791" 
d="M156 0v608h-97v97h97v40q0 69 20.5 125.5t60 96.5t97 62t131.5 22q24 0 58 -5.5t67 -14.5t61.5 -19.5t42.5 -20.5l-32 -114q-12 7 -36.5 17t-53.5 19t-59 15t-54 6q-51 0 -80.5 -14.5t-45 -40.5t-20 -62t-4.5 -78v-34h379v-705h-145v608h-232v-608h-155z" />
    <glyph glyph-name="uni0066006C" unicode="&#xfb02;" horiz-adv-x="795" 
d="M176 0v621h-98v153h98v19q0 37 3.5 66.5t13 54.5t26 46.5t41.5 43.5q40 35 105.5 47t140.5 12q31 0 56.5 -4.5t47.5 -11.5t42 -17l40 -20v-1010h-157v938q-9 4 -10.5 7.5t-4.5 6t-10.5 3.5t-26.5 1q-50 0 -84.5 -9t-55.5 -27.5t-30.5 -48.5t-9.5 -72v-25h168v-153h-137
v-621h-158z" />
    <glyph glyph-name="uni2219" unicode="&#x2219;" horiz-adv-x="569" 
d="M178 778q0 53 38 90t89 37q53 0 90 -37t37 -90q0 -51 -37 -89t-90 -38q-51 0 -89 38t-38 89z" />
    <glyph glyph-name="uni02C9" unicode="&#x2c9;" 
d="M618 1421v-149h-561v149h561z" />
    <glyph glyph-name="uni0141" unicode="&#x141;" horiz-adv-x="935" 
d="M251 157h494v-160h-661v477l-138 -81v94l138 80v475h167v-388l173 101v-93l-173 -103v-402z" />
    <glyph glyph-name="uni0142" unicode="&#x142;" horiz-adv-x="447" 
d="M127 549v496h160v-427l92 56v-79l-92 -55v-540h-160v476l-92 -55v73zM127 0v1055h158v-1055h-158z" />
    <glyph glyph-name="uni017E" unicode="&#x17e;" horiz-adv-x="871" 
d="M756 772v-131l-400 -485h416v-156h-635v123l408 491h-377v158h588zM730 1191l-197 -308h-194l-197 308h131l162 -195l164 195h131z" />
    <glyph glyph-name="uni017D" unicode="&#x17d;" horiz-adv-x="1026" 
d="M781 1488l-197 -308h-194l-197 308h131l162 -195l164 195h131zM99 137l584 762h-541v156h768v-144l-586 -755h588v-156h-813v137z" />
    <glyph glyph-name="uni0161" unicode="&#x161;" horiz-adv-x="789" 
d="M226 256q5 -72 53 -111t154 -39q16 3 37.5 9t41 17.5t33 30t13.5 46.5q0 36 -26 53t-71.5 29t-107 25.5t-133.5 41.5q-61 21 -91 73t-30 122q0 55 22.5 99t61.5 75.5t92 48.5t113 17q287 0 291 -265h-154q0 115 -147 115q-26 0 -49 -7.5t-41 -20t-28.5 -29t-10.5 -35.5
q0 -38 51.5 -58.5t145.5 -39.5q79 -21 130.5 -41t81.5 -45.5t42 -60t12 -83.5v-6q0 -52 -22.5 -97.5t-61 -79.5t-90 -53.5t-109.5 -19.5h-4q-4 0 -10 -1t-10 -1h-19q-156 0 -231.5 73.5t-75.5 217.5h147zM684 1245l-197 -308h-194l-197 308h131l162 -195l164 195h131z" />
    <glyph glyph-name="uni0160" unicode="&#x160;" horiz-adv-x="987" 
d="M711 719v33q0 75 -61 122.5t-179 47.5q-45 0 -82 -11t-63 -31t-40.5 -47.5t-14.5 -60.5t12.5 -53.5t42 -35.5t78 -29.5l121.5 -35.5h-2l91 -23t111 -32q35 -11 68 -36t58.5 -59t42 -73t18.5 -78v-16q0 -73 -32.5 -134.5t-87 -105.5t-127 -69t-153.5 -25h-20
q-65 2 -115.5 10t-91 24.5t-72.5 41.5t-61 61q-23 27 -38 51.5t-24 53t-12.5 65t-3.5 88.5h162v-28q0 -105 71.5 -158t194.5 -53h33q52 0 90 16.5t63 41t37.5 53t12.5 53.5q0 31 -11.5 53t-42 40.5t-83 36t-134.5 40.5q-42 8 -69 14.5t-39 11.5h2l-88 32t-82 46.5
t-60.5 75.5t-23.5 119q0 70 26.5 128.5t74.5 100.5t115 65t148 23q99 0 175.5 -24.5t128.5 -67t79 -99.5t27 -122v-8q0 -9 -2 -16t-12 -17h-156zM766 1478l-197 -308h-194l-197 308h131l162 -195l164 195h131z" />
    <glyph glyph-name="uni00FE" unicode="&#xfe;" horiz-adv-x="821" 
d="M285 369q0 -51 11 -95.5t32 -77.5t53 -53.5t74 -23.5q51 2 86.5 20.5t58.5 53t34.5 84t14.5 114.5q-2 111 -45 177.5t-127 66.5h-12q-180 -8 -180 -266zM127 1055h158v-336q35 33 87 53.5t118 20.5q75 0 135.5 -30.5t103.5 -84.5t66.5 -127.5t23.5 -159.5
q0 -92 -22.5 -170t-66.5 -134.5t-108 -88t-147 -31.5q-26 0 -51.5 5.5t-50 15t-46.5 22t-40 27.5v-342h-160v1360z" />
    <glyph glyph-name="uni00FD" unicode="&#xfd;" horiz-adv-x="801" 
d="M258 772l172 -518l193 518h166l-342 -928q-14 -39 -36.5 -67t-50 -46t-58.5 -27t-62 -9h-8q-23 0 -44.5 8t-41.5 18v150q28 -14 48.5 -19.5t37.5 -5.5q46 0 69 54v-2l37 108l-243 766h163zM501 1138h215l-246 -248h-131z" />
    </font>
</defs>
</svg>
